<svg xmlns="http://www.w3.org/2000/svg" xmlns:xlink="http://www.w3.org/1999/xlink" contentStyleType="text/css" data-diagram-type="DESCRIPTION" height="853px" preserveAspectRatio="none" style="width:1194px;height:853px;" version="1.1" viewBox="0 0 1194 853" width="1194px" zoomAndPan="magnify"><defs/><g><!--cluster AI--><g class="cluster" data-entity="AI" data-source-line="29" data-uid="ent0003" id="cluster_AI"><path d="M179,110 L240.411,110 A3.75,3.75 0 0 1 242.911,112.5 L249.911,133.706 L931,133.706 A2.5,2.5 0 0 1 933.5,136.206 L933.5,358.5 A2.5,2.5 0 0 1 931,361 L179,361 A2.5,2.5 0 0 1 176.5,358.5 L176.5,112.5 A2.5,2.5 0 0 1 179,110" fill="#FFF3E0" style="stroke:#777777;stroke-width:1.5;"/><line style="stroke:#777777;stroke-width:1.5;" x1="176.5" x2="249.911" y1="133.706" y2="133.706"/><text fill="#000000" font-family="Serif" font-size="13" font-weight="bold" lengthAdjust="spacing" textLength="60.411" x="180.5" y="125.897">Modul AI</text></g><!--cluster Acces--><g class="cluster" data-entity="Acces" data-source-line="39" data-uid="ent0010" id="cluster_Acces"><path d="M731,420 L816.6171,420 A3.75,3.75 0 0 1 819.1171,422.5 L826.1171,443.706 L1056,443.706 A2.5,2.5 0 0 1 1058.5,446.206 L1058.5,517.5 A2.5,2.5 0 0 1 1056,520 L731,520 A2.5,2.5 0 0 1 728.5,517.5 L728.5,422.5 A2.5,2.5 0 0 1 731,420" fill="#F3E5F5" style="stroke:#777777;stroke-width:1.5;"/><line style="stroke:#777777;stroke-width:1.5;" x1="728.5" x2="826.1171" y1="443.706" y2="443.706"/><text fill="#000000" font-family="Serif" font-size="13" font-weight="bold" lengthAdjust="spacing" textLength="84.6171" x="732.5" y="435.897">Acces extern</text></g><!--cluster Persist--><g class="cluster" data-entity="Persist" data-source-line="44" data-uid="ent0013" id="cluster_Persist"><path d="M900,589 L1016.6091,589 A3.75,3.75 0 0 1 1019.1091,591.5 L1026.1091,612.706 L1055,612.706 A2.5,2.5 0 0 1 1057.5,615.206 L1057.5,843.5 A2.5,2.5 0 0 1 1055,846 L900,846 A2.5,2.5 0 0 1 897.5,843.5 L897.5,591.5 A2.5,2.5 0 0 1 900,589" fill="#E8F5E9" style="stroke:#777777;stroke-width:1.5;"/><line style="stroke:#777777;stroke-width:1.5;" x1="897.5" x2="1026.1091" y1="612.706" y2="612.706"/><text fill="#000000" font-family="Serif" font-size="13" font-weight="bold" lengthAdjust="spacing" textLength="115.6091" x="901.5" y="604.897">Layer Persisten&#539;&#259;</text></g><!--entity Face--><g class="entity" data-entity="Face" data-source-line="30" data-uid="ent0004" id="entity_Face"><rect fill="#FFFFFF" height="61.326" rx="2.5" ry="2.5" style="stroke:#333333;stroke-width:0.5;" width="199.9781" x="500.5" y="154"/><rect fill="#FFFFFF" height="10" style="stroke:#333333;stroke-width:0.5;" width="15" x="680.4781" y="159"/><rect fill="#FFFFFF" height="2" style="stroke:#333333;stroke-width:0.5;" width="4" x="678.4781" y="161"/><rect fill="#FFFFFF" height="2" style="stroke:#333333;stroke-width:0.5;" width="4" x="678.4781" y="165"/><text fill="#111111" font-family="Serif" font-size="13" lengthAdjust="spacing" textLength="159.9781" x="515.5" y="187.897">facial_recognition_system</text><text fill="#111111" font-family="Serif" font-size="10" lengthAdjust="spacing" textLength="84.3599" x="515.5" y="202.396">InsightFace + FER</text></g><!--entity Plate--><g class="entity" data-entity="Plate" data-source-line="31" data-uid="ent0005" id="entity_Plate"><rect fill="#FFFFFF" height="61.326" rx="2.5" ry="2.5" style="stroke:#333333;stroke-width:0.5;" width="245.5302" x="219.5" y="154"/><rect fill="#FFFFFF" height="10" style="stroke:#333333;stroke-width:0.5;" width="15" x="445.0302" y="159"/><rect fill="#FFFFFF" height="2" style="stroke:#333333;stroke-width:0.5;" width="4" x="443.0302" y="161"/><rect fill="#FFFFFF" height="2" style="stroke:#333333;stroke-width:0.5;" width="4" x="443.0302" y="165"/><text fill="#111111" font-family="Serif" font-size="13" lengthAdjust="spacing" textLength="205.5302" x="234.5" y="187.897">license_plate_recognition_system</text><text fill="#111111" font-family="Serif" font-size="10" lengthAdjust="spacing" textLength="91.6299" x="234.5" y="202.396">YOLOv8 + EasyOCR</text></g><!--entity Fire--><g class="entity" data-entity="Fire" data-source-line="32" data-uid="ent0006" id="entity_Fire"><rect fill="#FFFFFF" height="61.326" rx="2.5" ry="2.5" style="stroke:#333333;stroke-width:0.5;" width="174.3421" x="735.5" y="154"/><rect fill="#FFFFFF" height="10" style="stroke:#333333;stroke-width:0.5;" width="15" x="889.8421" y="159"/><rect fill="#FFFFFF" height="2" style="stroke:#333333;stroke-width:0.5;" width="4" x="887.8421" y="161"/><rect fill="#FFFFFF" height="2" style="stroke:#333333;stroke-width:0.5;" width="4" x="887.8421" y="165"/><text fill="#111111" font-family="Serif" font-size="13" lengthAdjust="spacing" textLength="134.3421" x="750.5" y="187.897">fire_detection_system</text><text fill="#111111" font-family="Serif" font-size="10" lengthAdjust="spacing" textLength="105.7799" x="750.5" y="202.396">confirmare temporal&#259;</text></g><!--entity Weapon--><g class="entity" data-entity="Weapon" data-source-line="33" data-uid="ent0007" id="entity_Weapon"><rect fill="#FFFFFF" height="61.326" rx="2.5" ry="2.5" style="stroke:#333333;stroke-width:0.5;" width="201.6551" x="230.5" y="276"/><rect fill="#FFFFFF" height="10" style="stroke:#333333;stroke-width:0.5;" width="15" x="412.1551" y="281"/><rect fill="#FFFFFF" height="2" style="stroke:#333333;stroke-width:0.5;" width="4" x="410.1551" y="283"/><rect fill="#FFFFFF" height="2" style="stroke:#333333;stroke-width:0.5;" width="4" x="410.1551" y="287"/><text fill="#111111" font-family="Serif" font-size="13" lengthAdjust="spacing" textLength="161.6551" x="245.5" y="309.897">weapon_detection_system</text><text fill="#111111" font-family="Serif" font-size="10" lengthAdjust="spacing" textLength="48.15" x="245.5" y="324.396">YOLOv8m</text></g><!--entity HAR--><g class="entity" data-entity="HAR" data-source-line="34" data-uid="ent0008" id="entity_HAR"><rect fill="#FFFFFF" height="61.326" rx="2.5" ry="2.5" style="stroke:#333333;stroke-width:0.5;" width="110.551" x="468" y="276"/><rect fill="#FFFFFF" height="10" style="stroke:#333333;stroke-width:0.5;" width="15" x="558.551" y="281"/><rect fill="#FFFFFF" height="2" style="stroke:#333333;stroke-width:0.5;" width="4" x="556.551" y="283"/><rect fill="#FFFFFF" height="2" style="stroke:#333333;stroke-width:0.5;" width="4" x="556.551" y="287"/><text fill="#111111" font-family="Serif" font-size="13" lengthAdjust="spacing" textLength="70.551" x="483" y="309.897">har_system</text><text fill="#111111" font-family="Serif" font-size="10" lengthAdjust="spacing" textLength="63.3299" x="483" y="324.396">SlowFast-R50</text></g><!--entity REST--><g class="entity" data-entity="REST" data-source-line="40" data-uid="ent0011" id="entity_REST"><rect fill="#FFFFFF" height="47.706" rx="2.5" ry="2.5" style="stroke:#333333;stroke-width:0.5;" width="96.8361" x="946" y="456"/><rect fill="#FFFFFF" height="10" style="stroke:#333333;stroke-width:0.5;" width="15" x="1022.8361" y="461"/><rect fill="#FFFFFF" height="2" style="stroke:#333333;stroke-width:0.5;" width="4" x="1020.8361" y="463"/><rect fill="#FFFFFF" height="2" style="stroke:#333333;stroke-width:0.5;" width="4" x="1020.8361" y="467"/><text fill="#111111" font-family="Serif" font-size="13" lengthAdjust="spacing" textLength="56.8361" x="961" y="489.897">API REST</text></g><!--entity WS--><g class="entity" data-entity="WS" data-source-line="41" data-uid="ent0012" id="entity_WS"><rect fill="#FFFFFF" height="47.706" rx="2.5" ry="2.5" style="stroke:#333333;stroke-width:0.5;" width="166.4641" x="744.5" y="456"/><rect fill="#FFFFFF" height="10" style="stroke:#333333;stroke-width:0.5;" width="15" x="890.9641" y="461"/><rect fill="#FFFFFF" height="2" style="stroke:#333333;stroke-width:0.5;" width="4" x="888.9641" y="463"/><rect fill="#FFFFFF" height="2" style="stroke:#333333;stroke-width:0.5;" width="4" x="888.9641" y="467"/><text fill="#111111" font-family="Serif" font-size="13" lengthAdjust="spacing" textLength="126.4641" x="759.5" y="489.897">Gestiune WebSocket</text></g><!--entity PG--><g class="entity" data-entity="PG" data-source-line="45" data-uid="ent0014" id="entity_PG"><path d="M949,635 C949,625 994.3405,625 994.3405,625 C994.3405,625 1039.6811,625 1039.6811,635 L1039.6811,661.706 C1039.6811,671.706 994.3405,671.706 994.3405,671.706 C994.3405,671.706 949,671.706 949,661.706 L949,635" fill="#E8F5E9" style="stroke:#2E7D32;stroke-width:0.5;"/><path d="M949,635 C949,645 994.3405,645 994.3405,645 C994.3405,645 1039.6811,645 1039.6811,635" fill="none" style="stroke:#2E7D32;stroke-width:0.5;"/><text fill="#000000" font-family="Serif" font-size="13" lengthAdjust="spacing" textLength="70.6811" x="959" y="662.897">PostgreSQL</text></g><!--entity FAISS--><g class="entity" data-entity="FAISS" data-source-line="46" data-uid="ent0015" id="entity_FAISS"><rect fill="#FFFFFF" height="61.326" rx="2.5" ry="2.5" style="stroke:#333333;stroke-width:0.5;" width="126.6399" x="914" y="769"/><rect fill="#FFFFFF" height="10" style="stroke:#333333;stroke-width:0.5;" width="15" x="1020.6399" y="774"/><rect fill="#FFFFFF" height="2" style="stroke:#333333;stroke-width:0.5;" width="4" x="1018.6399" y="776"/><rect fill="#FFFFFF" height="2" style="stroke:#333333;stroke-width:0.5;" width="4" x="1018.6399" y="780"/><text fill="#111111" font-family="Serif" font-size="13" lengthAdjust="spacing" textLength="74.7371" x="929" y="802.897">Index FAISS</text><text fill="#111111" font-family="Serif" font-size="10" lengthAdjust="spacing" textLength="86.6399" x="929" y="817.396">512-d, &#238;n memorie</text></g><!--entity Captura--><g class="entity" data-entity="Captura" data-source-line="27" data-uid="ent0002" id="entity_Captura"><rect fill="#E0E0E0" height="47.706" rx="2.5" ry="2.5" style="stroke:#333333;stroke-width:0.5;" width="132.8981" x="7" y="7"/><rect fill="#E0E0E0" height="10" style="stroke:#333333;stroke-width:0.5;" width="15" x="119.8981" y="12"/><rect fill="#E0E0E0" height="2" style="stroke:#333333;stroke-width:0.5;" width="4" x="117.8981" y="14"/><rect fill="#E0E0E0" height="2" style="stroke:#333333;stroke-width:0.5;" width="4" x="117.8981" y="18"/><text fill="#111111" font-family="Serif" font-size="13" lengthAdjust="spacing" textLength="92.8981" x="22" y="40.897">Modul Captur&#259;</text></g><!--entity Fuziune--><g class="entity" data-entity="Fuziune" data-source-line="37" data-uid="ent0009" id="entity_Fuziune"><rect fill="#D7E9FF" height="61.326" rx="2.5" ry="2.5" style="stroke:#333333;stroke-width:0.5;" width="180.3498" x="957.5" y="276"/><rect fill="#D7E9FF" height="10" style="stroke:#333333;stroke-width:0.5;" width="15" x="1117.8498" y="281"/><rect fill="#D7E9FF" height="2" style="stroke:#333333;stroke-width:0.5;" width="4" x="1115.8498" y="283"/><rect fill="#D7E9FF" height="2" style="stroke:#333333;stroke-width:0.5;" width="4" x="1115.8498" y="287"/><text fill="#111111" font-family="Serif" font-size="13" lengthAdjust="spacing" textLength="93.6651" x="972.5" y="309.897">Modul Fuziune</text><text fill="#111111" font-family="Serif" font-size="10" lengthAdjust="spacing" textLength="140.3498" x="972.5" y="324.396">result merger + logic&#259; alarme</text></g><!--entity ICadru--><g class="entity" data-entity="ICadru" data-source-line="50" data-uid="ent0016" id="entity_ICadru"><ellipse cx="184.5" cy="31" fill="#FFFFFF" rx="8" ry="8" style="stroke:#333333;stroke-width:0.5;"/><text fill="#000000" font-family="Serif" font-size="13" lengthAdjust="spacing" textLength="37.661" x="165.6695" y="61.897">Cadru</text></g><!--entity IDetector--><g class="entity" data-entity="IDetector" data-source-line="51" data-uid="ent0017" id="entity_IDetector"><ellipse cx="970.5" cy="184.5" fill="#FFFFFF" rx="8" ry="8" style="stroke:#333333;stroke-width:0.5;"/><text fill="#000000" font-family="Serif" font-size="13" lengthAdjust="spacing" textLength="52.533" x="944.2335" y="215.397">Detector</text></g><!--link Captura to ICadru--><g class="link" data-entity-1="Captura" data-entity-2="ICadru" data-source-line="54" data-uid="lnk18" id="link_Captura_ICadru"><path d="M140.27,31 C151.91,31 163.54,31 175.17,31" fill="none" id="Captura-ICadru" style="stroke:#555555;stroke-width:1;"/></g><!--reverse link ICadru to AI--><g class="link" data-entity-1="ICadru" data-entity-2="AI" data-source-line="55" data-uid="lnk19" id="link_ICadru_AI"><path d="M184.5,50.15 C184.5,57.8925 184.5,60.5056 184.5,75.1233 C184.5,82.4321 184.5,90.2421 184.5,98.1949 C184.5,100.1831 184.5,102.1802 184.5,104.1807 C184.5,105.181 184.5,106.182 184.5,107.1832 C184.5,107.6838 184.5,108.1845 184.5,108.685 C184.5,108.9353 184.5,109.1856 184.5,109.4359" fill="none" id="ICadru-backto-AI" style="stroke:#555555;stroke-width:1;"/><path d="M176.0428,43.2282 A9,9 0 0 0 192.9572 43.2282" fill="none" style="stroke:#555555;stroke-width:1.5;"/></g><!--link AI to IDetector--><g class="link" data-entity-1="AI" data-entity-2="IDetector" data-source-line="58" data-uid="lnk20" id="link_AI_IDetector"><path d="M191.4839,109.8886 C191.5488,109.7087 191.6141,109.5291 191.68,109.3497 C191.9434,108.6322 192.2148,107.919 192.4945,107.2104 C193.6133,104.3762 194.8645,101.6174 196.2623,98.9672 C201.8538,88.3663 209.7925,79.5025 221,74.5 C255.85,58.95 873.15,58.95 908,74.5 C949.12,92.85 964.46,152.35 968.94,175.33" fill="none" id="AI-IDetector" style="stroke:#555555;stroke-width:1;"/></g><!--reverse link IDetector to Fuziune--><g class="link" data-entity-1="IDetector" data-entity-2="Fuziune" data-source-line="59" data-uid="lnk21" id="link_IDetector_Fuziune"><path d="M981.1902,202.1666 C991.8602,218.7966 1011.01,248.64 1028.41,275.75" fill="none" id="IDetector-backto-Fuziune" style="stroke:#555555;stroke-width:1;"/><path d="M970.3342,200.9078 A9,9 0 0 0 984.5703 191.7737" fill="none" style="stroke:#555555;stroke-width:1.5;"/></g><!--link Face to FAISS--><g class="link" data-entity-1="Face" data-entity-2="FAISS" data-source-line="62" data-uid="lnk22" id="link_Face_FAISS"><path d="M612.96,215 C621.95,238.94 632.5,273.8 632.5,305.5 C632.5,305.5 632.5,305.5 632.5,649.5 C632.5,770.69 808.1346,794.2243 907.8246,798.1443" fill="none" id="Face-to-FAISS" style="stroke:#555555;stroke-width:1;stroke-dasharray:7,7;"/><polygon fill="#555555" points="913.82,798.38,904.9841,794.0295,908.8239,798.1835,904.6698,802.0233,913.82,798.38" style="stroke:#555555;stroke-width:1;"/><text fill="#000000" font-family="Serif" font-size="13" lengthAdjust="spacing" textLength="46.943" x="647.8" y="476.397">c&#259;utare</text><text fill="#000000" font-family="Serif" font-size="13" lengthAdjust="spacing" textLength="75.5431" x="633.5" y="494.103">embeddings</text></g><!--link Fuziune to WS--><g class="link" data-entity-1="Fuziune" data-entity-2="WS" data-source-line="63" data-uid="lnk23" id="link_Fuziune_WS"><path d="M1009.18,337.37 C965.97,371.06 901.3519,421.4309 862.0119,452.1009" fill="none" id="Fuziune-to-WS" style="stroke:#555555;stroke-width:1;stroke-dasharray:7,7;"/><polygon fill="#555555" points="857.28,455.79,866.8372,453.411,861.2233,452.7158,861.9185,447.1018,857.28,455.79" style="stroke:#555555;stroke-width:1;"/><text fill="#000000" font-family="Serif" font-size="13" lengthAdjust="spacing" textLength="92.7681" x="944.5" y="399.897">cadre adnotate</text></g><!--link Fuziune to PG--><g class="link" data-entity-1="Fuziune" data-entity-2="PG" data-source-line="64" data-uid="lnk24" id="link_Fuziune_PG"><path d="M1058.78,337.18 C1076.14,387.77 1104.1,493.02 1070.5,573 C1061.77,593.78 1048.7651,607.9068 1032.6551,620.9368" fill="none" id="Fuziune-to-PG" style="stroke:#555555;stroke-width:1;stroke-dasharray:7,7;"/><polygon fill="#555555" points="1027.99,624.71,1037.5031,622.1603,1031.8776,621.5657,1032.4722,615.9402,1027.99,624.71" style="stroke:#555555;stroke-width:1;"/><text fill="#000000" font-family="Serif" font-size="13" lengthAdjust="spacing" textLength="99.502" x="1086.5" y="485.397">alarme / jurnale</text></g><!--link REST to PG--><g class="link" data-entity-1="REST" data-entity-2="PG" data-source-line="65" data-uid="lnk25" id="link_REST_PG"><path d="M994.5,504.15 C994.5,536.05 994.5,587.16 994.5,618.81" fill="none" id="REST-to-PG" style="stroke:#555555;stroke-width:1;stroke-dasharray:7,7;"/><polygon fill="#555555" points="994.5,624.81,998.5,615.81,994.5,619.81,990.5,615.81,994.5,624.81" style="stroke:#555555;stroke-width:1;"/><text fill="#000000" font-family="Serif" font-size="13" lengthAdjust="spacing" textLength="35.282" x="1011.022" y="550.897">CRUD</text><text fill="#000000" font-family="Serif" font-size="13" lengthAdjust="spacing" textLength="66.3261" x="995.5" y="568.603">(psycopg2)</text></g><!--link PG to FAISS--><g class="link" data-entity-1="PG" data-entity-2="FAISS" data-source-line="66" data-uid="lnk26" id="link_PG_FAISS"><path d="M991.92,672.13 C988.96,698.02 984.8005,734.5387 981.5505,763.0087" fill="none" id="PG-to-FAISS" style="stroke:#555555;stroke-width:1;stroke-dasharray:7,7;"/><polygon fill="#555555" points="980.87,768.97,985.865,760.4817,981.4371,764.0023,977.9166,759.5744,980.87,768.97" style="stroke:#555555;stroke-width:1;"/><text fill="#000000" font-family="Serif" font-size="13" lengthAdjust="spacing" textLength="68.9131" x="988.5" y="716.897">reconstruit</text><text fill="#000000" font-family="Serif" font-size="13" lengthAdjust="spacing" textLength="61.958" x="991.9775" y="734.603">la pornire</text></g><!--SRC=[VLNDRjiu4BxhAGR9eGcsJcDxZRH5Du1hMwa1T-ErjWWMpIAWfR723KKA9DNKNVIKnyWxz2KsXppM3Yd9eLkZzC7Ip3VV3ETFps3CMQvPmI13I5LHAedI8dnuFuCE66ui5fLmIbELcdt2_1er0YUCu3b1uI3vzQX_r3kC8dF3PSc8x8aeiMk1K1MY5sZDDSlKBPSvh9Wm66YMBBt9jQfaDb92QR2QIKCgOWfG6QvO9MoifFsT5GW9QhxQhK_u5uHkFr0EjLQtDVl-m9z0EQLhwHLByUrtWUp7_ko4AfsXRc1zVtQc0lwD07Q1IVgzjyamxiPlIUFkqCYw_aHV0-wIx5YEFpAV-DFOrpLOAf5j6MVCiYKpEwnxavDnlxSphfVnOFAAQA9dy9ixC7fg6I-8FhvN6JNCY9MsqWztVmCppGiZ-sFtYw8syBqQF9pkETXmwlFSdnpxc3vITZaJLnfJbKjkkP9NPkqQybA-CLJOrztZqwaqFB-sCHK2Ve5uidZpmgbElLylRKj7X8AdA0rUbO9P_3dlN-UpyqylYNB2pFfyj4KxT-OXxufhlChGOhgRB5MI80NrCP2YL9g9XxkjG8aW9Bn5Hbdz6MKTNn6IN7YZaEQQwHyj4w5kOsPiPp4u3itV3HSRMofmKyUu-i8hYO6zHaF31GNg73KbIAYSfmztm0JJ1MxTghQ5_V79v1MnFfLzcAPe03_J2Ccwz5wmJxKVn8Ew-iFv51QJv4zFvHx2cvsXiPxx0fU9Ic_GrYb8mYjitCtOcaATe_RxJ3xUFznvhusaxMllTpCMUtDbRAun-MDMWy-SuwdCy3F4mscI13aPT7kTx3dyzqrINWgb-NOU73eCh1sUUeVWuprI5eNWfIhXW9g5rbvgyR2Pg8D3s1knJ5S-ZAb_zCAnRm-bQtdxvkYtPn3K2jrVIfRud3QID5NXMfYsUZk0KJkZdTP3_GU7dOvJRqXfI1iwNc_0nti6hM-WHh2wPMtg7v599uXly-IvMz0cAJFCYQJI75QLJ1_lgVsPQBUBd-YZezCcfw-TmyhIO5rAB9QOPVHLCL7RU0vuuL7kvi0ogIpTUqi_FoDztRlm0lwfjFCM-NxRg4UB3-DBUL2QTQhAd3vr90s3S9j46gihRY-bO40JBccYe_y1]--></g></svg>