<svg xmlns="http://www.w3.org/2000/svg" xmlns:xlink="http://www.w3.org/1999/xlink" contentStyleType="text/css" data-diagram-type="DESCRIPTION" height="413px" preserveAspectRatio="none" style="width:1499px;height:413px;" version="1.1" viewBox="0 0 1499 413" width="1499px" zoomAndPan="magnify"><defs/><g><!--cluster Client--><g class="cluster" data-entity="Client" data-source-line="36" data-uid="ent0002" id="cluster_Client"><polygon fill="#EAF1FB" points="16,16,26,6,282,6,282,137,272,147,16,147,16,16" style="stroke:#333333;stroke-width:1;"/><line style="stroke:#333333;stroke-width:1;" x1="272" x2="282" y1="16" y2="6"/><line style="stroke:#333333;stroke-width:1;" x1="16" x2="272" y1="16" y2="16"/><line style="stroke:#333333;stroke-width:1;" x1="272" x2="272" y1="16" y2="147"/><text fill="#111111" font-family="Serif" font-size="13" font-weight="bold" lengthAdjust="spacing" textLength="108.1731" x="90.9134" y="32.897">Client (Browser)</text><text fill="#111111" font-family="Serif" font-size="10" font-weight="bold" lengthAdjust="spacing" textLength="30.17" x="129.915" y="47.396">{1..m}</text></g><!--cluster Cam--><g class="cluster" data-entity="Cam" data-source-line="40" data-uid="ent0004" id="cluster_Cam"><polygon fill="#EAF1FB" points="1210,16,1220,6,1482,6,1482,137,1472,147,1210,147,1210,16" style="stroke:#333333;stroke-width:1;"/><line style="stroke:#333333;stroke-width:1;" x1="1472" x2="1482" y1="16" y2="6"/><line style="stroke:#333333;stroke-width:1;" x1="1210" x2="1472" y1="16" y2="16"/><line style="stroke:#333333;stroke-width:1;" x1="1472" x2="1472" y1="16" y2="147"/><text fill="#111111" font-family="Serif" font-size="13" font-weight="bold" lengthAdjust="spacing" textLength="67.821" x="1308.0895" y="32.897">Camere IP</text><text fill="#111111" font-family="Serif" font-size="10" font-weight="bold" lengthAdjust="spacing" textLength="117.3699" x="1283.3151" y="47.396">CAM-01 .. CAM-n   {1..n}</text></g><!--cluster Server--><g class="cluster" data-entity="Server" data-source-line="45" data-uid="ent0006" id="cluster_Server"><polygon fill="#EAF1FB" points="314,17,324,7,1178,7,1178,386,1168,396,314,396,314,17" style="stroke:#333333;stroke-width:1;"/><line style="stroke:#333333;stroke-width:1;" x1="1168" x2="1178" y1="17" y2="7"/><line style="stroke:#333333;stroke-width:1;" x1="314" x2="1168" y1="17" y2="17"/><line style="stroke:#333333;stroke-width:1;" x1="1168" x2="1168" y1="17" y2="396"/><text fill="#111111" font-family="Serif" font-size="13" font-weight="bold" lengthAdjust="spacing" textLength="75.3221" x="704.339" y="33.897">Server GPU</text><text fill="#111111" font-family="Serif" font-size="10" font-weight="bold" lengthAdjust="spacing" textLength="252.2798" x="615.8601" y="48.396">Linux + CUDA, &gt;= 8 GB VRAM, CPU multi-core, SSD</text></g><!--entity React--><g class="entity" data-entity="React" data-source-line="37" data-uid="ent0003" id="entity_React"><rect fill="#FFF3E0" height="54.326" rx="2.5" ry="2.5" style="stroke:#B0792C;stroke-width:0.5;" width="122.9199" x="134.5" y="69"/><polygon fill="#FFF3E0" points="240.4199,74,240.4199,88,252.4199,88,252.4199,80,246.4199,74,240.4199,74" style="stroke:#B0792C;stroke-width:0.5;"/><line style="stroke:#B0792C;stroke-width:0.5;" x1="246.4199" x2="246.4199" y1="74" y2="80"/><line style="stroke:#B0792C;stroke-width:0.5;" x1="252.4199" x2="246.4199" y1="80" y2="80"/><text fill="#111111" font-family="Serif" font-size="13" lengthAdjust="spacing" textLength="91.8971" x="144.5" y="95.897">Aplica&#539;ie React</text><text fill="#111111" font-family="Serif" font-size="10" lengthAdjust="spacing" textLength="92.9199" x="144.5" y="110.396">artefact static (SPA)</text></g><!--entity Stream--><g class="entity" data-entity="Stream" data-source-line="41" data-uid="ent0005" id="entity_Stream"><rect fill="#FFF3E0" height="54.326" rx="2.5" ry="2.5" style="stroke:#B0792C;stroke-width:0.5;" width="128.9199" x="1328.5" y="69"/><polygon fill="#FFF3E0" points="1440.4199,74,1440.4199,88,1452.4199,88,1452.4199,80,1446.4199,74,1440.4199,74" style="stroke:#B0792C;stroke-width:0.5;"/><line style="stroke:#B0792C;stroke-width:0.5;" x1="1446.4199" x2="1446.4199" y1="74" y2="80"/><line style="stroke:#B0792C;stroke-width:0.5;" x1="1452.4199" x2="1446.4199" y1="80" y2="80"/><text fill="#111111" font-family="Serif" font-size="13" lengthAdjust="spacing" textLength="64.9741" x="1338.5" y="95.897">Flux video</text><text fill="#111111" font-family="Serif" font-size="10" lengthAdjust="spacing" textLength="98.9199" x="1338.5" y="110.396">RTSP / MJPEG / HTTP</text></g><!--entity App--><g class="entity" data-entity="App" data-source-line="47" data-uid="ent0007" id="entity_App"><rect fill="#FFF3E0" height="67.946" rx="2.5" ry="2.5" style="stroke:#B0792C;stroke-width:0.5;" width="149.8599" x="775" y="62"/><polygon fill="#FFF3E0" points="907.8599,67,907.8599,81,919.8599,81,919.8599,73,913.8599,67,907.8599,67" style="stroke:#B0792C;stroke-width:0.5;"/><line style="stroke:#B0792C;stroke-width:0.5;" x1="913.8599" x2="913.8599" y1="67" y2="73"/><line style="stroke:#B0792C;stroke-width:0.5;" x1="919.8599" x2="913.8599" y1="73" y2="73"/><text fill="#111111" font-family="Serif" font-size="13" lengthAdjust="spacing" textLength="41.86" x="785" y="88.897">app.py</text><text fill="#111111" font-family="Serif" font-size="10" lengthAdjust="spacing" textLength="119.8599" x="785" y="103.396">FastAPI + Uvicorn (:8000)</text><text fill="#111111" font-family="Serif" font-size="10" lengthAdjust="spacing" textLength="87.2399" x="785" y="117.016">~7 fire de execu&#539;ie</text></g><!--entity Models--><g class="entity" data-entity="Models" data-source-line="49" data-uid="ent0008" id="entity_Models"><rect fill="#FFFFFF" height="64.946" rx="2.5" ry="2.5" style="stroke:#5A6B8C;stroke-width:0.5;" width="201.6398" x="330" y="190"/><text fill="#111111" font-family="Serif" font-size="13" lengthAdjust="spacing" textLength="113.9711" x="340" y="213.897">Modele AI (VRAM)</text><text fill="#111111" font-family="Serif" font-size="10" lengthAdjust="spacing" textLength="181.6398" x="340" y="228.396">InsightFace, YOLOv8 (pl&#259;cu&#539;e + arme),</text><text fill="#111111" font-family="Serif" font-size="10" lengthAdjust="spacing" textLength="137.5899" x="340" y="242.016">SlowFast-R50, model foc/fum</text></g><!--entity ORT--><g class="entity" data-entity="ORT" data-source-line="51" data-uid="ent0009" id="entity_ORT"><rect fill="#FFFFFF" height="64.946" rx="2.5" ry="2.5" style="stroke:#5A6B8C;stroke-width:0.5;" width="136.9099" x="362.5" y="315"/><text fill="#111111" font-family="Serif" font-size="13" lengthAdjust="spacing" textLength="109.7851" x="372.5" y="338.897">onnxruntime-gpu</text><text fill="#111111" font-family="Serif" font-size="10" lengthAdjust="spacing" textLength="116.9099" x="372.5" y="353.396">CUDAExecutionProvider</text><text fill="#111111" font-family="Serif" font-size="10" lengthAdjust="spacing" textLength="66.9299" x="372.5" y="367.016">(fallback CPU)</text></g><!--entity FER--><g class="entity" data-entity="FER" data-source-line="53" data-uid="ent0010" id="entity_FER"><rect fill="#FFFFFF" height="51.326" rx="2.5" ry="2.5" style="stroke:#5A6B8C;stroke-width:0.5;" width="140.4899" x="910" y="197"/><text fill="#111111" font-family="Serif" font-size="13" lengthAdjust="spacing" textLength="115.1411" x="920" y="220.897">FER Mini-Xception</text><text fill="#111111" font-family="Serif" font-size="10" lengthAdjust="spacing" textLength="120.4899" x="920" y="235.396">TensorFlow, &#539;inut pe CPU</text></g><!--entity FAISS--><g class="entity" data-entity="FAISS" data-source-line="55" data-uid="ent0011" id="entity_FAISS"><rect fill="#FFFFFF" height="64.946" rx="2.5" ry="2.5" style="stroke:#5A6B8C;stroke-width:0.5;" width="158.0698" x="642" y="190"/><text fill="#111111" font-family="Serif" font-size="13" lengthAdjust="spacing" textLength="74.7371" x="652" y="213.897">Index FAISS</text><text fill="#111111" font-family="Serif" font-size="10" lengthAdjust="spacing" textLength="68.8499" x="652" y="228.396">512-d, &#238;n RAM,</text><text fill="#111111" font-family="Serif" font-size="10" lengthAdjust="spacing" textLength="138.0698" x="652" y="242.016">reconstruit din DB la pornire</text></g><!--entity PGlocal--><g class="entity" data-entity="PGlocal" data-source-line="57" data-uid="ent0012" id="entity_PGlocal"><path d="M872.5,334 C872.5,324 917.8405,324 917.8405,324 C917.8405,324 963.1811,324 963.1811,334 L963.1811,360.706 C963.1811,370.706 917.8405,370.706 917.8405,370.706 C917.8405,370.706 872.5,370.706 872.5,360.706 L872.5,334" fill="#E8F5E9" style="stroke:#2E7D32;stroke-width:0.5;"/><path d="M872.5,334 C872.5,344 917.8405,344 917.8405,344 C917.8405,344 963.1811,344 963.1811,334" fill="none" style="stroke:#2E7D32;stroke-width:0.5;"/><text fill="#111111" font-family="Serif" font-size="13" lengthAdjust="spacing" textLength="70.6811" x="882.5" y="361.897">PostgreSQL</text></g><!--link Client to App--><g class="link" data-entity-1="Client" data-entity-2="App" data-source-line="61" data-uid="lnk13" id="link_Client_App"><path d="M285.5702,66 C288.0329,66 290.5039,66 292.9828,66 C302.8985,66 312.9408,66 323.0825,66 C485.35,66 667.07,66 768.88,66" fill="none" id="Client-to-App" style="stroke:#555555;stroke-width:1;"/><polygon fill="#555555" points="774.88,66,765.88,62,769.88,66,765.88,70,774.88,66" style="stroke:#555555;stroke-width:1;"/><text fill="#333333" font-family="Serif" font-size="13" lengthAdjust="spacing" textLength="158.4182" x="225.81" y="61.897">HTTP / WebSocket (:8000)</text></g><!--link Cam to App--><g class="link" data-entity-1="Cam" data-entity-2="App" data-source-line="62" data-uid="lnk14" id="link_Cam_App"><path d="M1209.9989,96 C1208.7368,96 1207.3355,96 1205.802,96 C1199.6682,96 1191.4212,96 1181.5242,96 C1161.7303,96 1135.3369,96 1106.0513,96 C1047.48,96 983.34,96 931.29,96" fill="none" id="Cam-to-App" style="stroke:#555555;stroke-width:1;"/><polygon fill="#555555" points="925.29,96,934.29,100,930.29,96,934.29,92,925.29,96" style="stroke:#555555;stroke-width:1;"/><text fill="#333333" font-family="Serif" font-size="13" lengthAdjust="spacing" textLength="128.5961" x="942.35" y="91.897">RTSP / MJPEG / HTTP</text></g><!--link App to Models--><g class="link" data-entity-1="App" data-entity-2="Models" data-source-line="65" data-uid="lnk15" id="link_App_Models"><path d="M774.61,127 C653.97,127 431,127 431,127 C431,127 431,156.24 431,183.9" fill="none" id="App-to-Models" style="stroke:#555555;stroke-width:1;"/><polygon fill="#555555" points="431,189.9,435,180.9,431,184.9,427,180.9,431,189.9" style="stroke:#555555;stroke-width:1;"/></g><!--link App to FER--><g class="link" data-entity-1="App" data-entity-2="FER" data-source-line="66" data-uid="lnk16" id="link_App_FER"><path d="M917.5,130.23 C917.5,151.16 917.5,171.5 917.5,190.67" fill="none" id="App-to-FER" style="stroke:#555555;stroke-width:1;"/><polygon fill="#555555" points="917.5,196.67,921.5,187.67,917.5,191.67,913.5,187.67,917.5,196.67" style="stroke:#555555;stroke-width:1;"/></g><!--link App to FAISS--><g class="link" data-entity-1="App" data-entity-2="FAISS" data-source-line="67" data-uid="lnk17" id="link_App_FAISS"><path d="M787.5,130.23 C787.5,148.82 787.5,165.67 787.5,183.98" fill="none" id="App-to-FAISS" style="stroke:#555555;stroke-width:1;"/><polygon fill="#555555" points="787.5,189.98,791.5,180.98,787.5,184.98,783.5,180.98,787.5,189.98" style="stroke:#555555;stroke-width:1;"/></g><!--link App to PGlocal--><g class="link" data-entity-1="App" data-entity-2="PGlocal" data-source-line="68" data-uid="lnk18" id="link_App_PGlocal"><path d="M897.5,130.18 C897.5,182.02 897.5,273.22 897.5,317.91" fill="none" id="App-to-PGlocal" style="stroke:#555555;stroke-width:1;"/><polygon fill="#555555" points="897.5,323.91,901.5,314.91,897.5,318.91,893.5,314.91,897.5,323.91" style="stroke:#555555;stroke-width:1;"/><text fill="#333333" font-family="Serif" font-size="13" lengthAdjust="spacing" textLength="104.2861" x="792.5" y="222.947">TCP / SQL (:5432)</text></g><!--link Models to ORT--><g class="link" data-entity-1="Models" data-entity-2="ORT" data-source-line="69" data-uid="lnk19" id="link_Models_ORT"><path d="M431,255.02 C431,273.39 431,290.29 431,308.71" fill="none" id="Models-to-ORT" style="stroke:#555555;stroke-width:1;stroke-dasharray:7,7;"/><polygon fill="#555555" points="431,314.71,435,305.71,431,309.71,427,305.71,431,314.71" style="stroke:#555555;stroke-width:1;"/><text fill="#333333" font-family="Serif" font-size="13" lengthAdjust="spacing" textLength="87.4901" x="343" y="280.757">inferen&#539;&#259; GPU</text></g><!--reverse link FAISS to PGlocal--><g class="link" data-entity-1="FAISS" data-entity-2="PGlocal" data-source-line="70" data-uid="lnk21" id="link_FAISS_PGlocal"><path d="M806.12,252 C848.06,252 885,252 885,252 C885,252 885,295.61 885,323.89" fill="none" id="FAISS-backto-PGlocal" style="stroke:#555555;stroke-width:1;stroke-dasharray:7,7;"/><polygon fill="#555555" points="800.12,252,809.12,256,805.12,252,809.12,248,800.12,252" style="stroke:#555555;stroke-width:1;"/><text fill="#333333" font-family="Serif" font-size="13" lengthAdjust="spacing" textLength="68.9131" x="809.51" y="266.897">reconstruit</text><text fill="#333333" font-family="Serif" font-size="13" lengthAdjust="spacing" textLength="61.958" x="812.9875" y="284.603">la pornire</text></g><!--SRC=[XLNBSXev5DttLzmYYq0DO1uX9gw4gkRH7gOWPcWyZwfivEuBLbajTQdL18yhsUGpyW_vYSaYdpLN3TW2anfjGBgNSyvzyXA6dAqqInZ423n91IOe3TC8vHXJeUxjjGBNqmdK8EEPmIGNrZVBKytMkBf5ykNIeE0hSeLo-AhUhhShdfVTSPaomeRibiNg8vShM3AHeMEvOT7TIgjSnWCbb0QZcSp8H4YELunBbWiJA6dUimGXHCsNf-qX_mUXsNQCWaiqzoc2qkPMEGQfOimmXMQpuRoIW3lx-jfzzBLM7xSANtIASsoqt3k7Td6y8oPuy03wIiUe3_tezIW9BqP-q0pwP75GcyNPlONcNY3SA15xdnmUfWrViiWyv-etpj-q1gUuWY1eZnedkLpec1bsmx8JORH6vyDswsGOtQ0pUlE_q1eZm-HAdC3k-A_xtP_9flCJREyblBC7_CWepG4t1hNaKCui4QjihLvHbj90yA9l-rJ537NbWtoRKHDTD1kzXsQzddnwUsRllHAm37RELkXZiaj-AdZ4Vdpb27Ea5mU1dB1m8cR38vgEcLzn0OiVMCaxCTJUD4_ZcOCnyAUrHXFgTR3V901ONV9G5-NnK5GWyWsiUOpAWPelmXcSmVItsUYIFdzTB6OkIcWqiiHDu7iLqxXJMjQe8ShXSdODvOXIeFF3B8PR5x8xT1CkISGlCBWU-bNelOCkNFRXZxa_hSA0a6YL65wBbCOgXE7mGCeMxy4x28gbQJszTnW2bXb_DYQEwpKd80dbYswZqTZds77zV0vBJhabjRZ1ABVrSXdzDBLaJzrOcb9azEcFeMmrkvqnbXbVtPg0HIJzxwl9rReBvLHy_s9naUGmdM2b-bn5A6XNaEZQlDEeGc8POAcYisMUk68Awkn8Zv9oetDfU8ArLPgxBK897jcW35ToffMjktvENgRrA-pAjTa_QCEh-UA8B1ZDOSebh_qLOMfX7Pm5oapfW4Af0gLHvWPelnAc2qa0Hv1Z6UC60dySXWvOfzcgnLNuzvi4snZFLHE2aXbr73SGSmd3FWW6AHMRodd0Q94jv-EoAirKPbOQmzydXSViKgY82RV39xXY9gSbGVzXr1tKpVQoRUtTjDUqhNMjPri4BegfeU7v4sz25TsXsRUSPuVmoFV4m3rHpr7GKYYOQJsXpQ5qvsqhmWBL273N4lkhJU_ZzoBm_MqN9B4l1fQSWYU9dLVjLiNRWj0kwTcIamkNIreuyiVNxr_iy7hx7zVpjBu39Y-d11_aK_Az_m00]--></g></svg>