<svg xmlns="http://www.w3.org/2000/svg" xmlns:xlink="http://www.w3.org/1999/xlink" contentStyleType="text/css" height="878px" preserveAspectRatio="none" style="width:767px;height:878px;" version="1.1" viewBox="0 0 767 878" width="767px" zoomAndPan="magnify"><defs/><g><ellipse cx="331.9954" cy="20" fill="#5A6B8C" rx="10" ry="10" style="stroke:#222222;stroke-width:1.0;"/><rect fill="#EAF1FB" height="37.706" rx="12.5" ry="12.5" style="stroke:#333333;stroke-width:0.5;" width="100.0411" x="281.9749" y="50"/><text fill="#111111" font-family="Serif" font-size="13" font-weight="bold" lengthAdjust="spacing" textLength="80.0411" x="291.9749" y="73.897">Cadru video</text><path d="M498.9502,97.706 L498.9502,136.1607 L478.9502,140.1607 L498.9502,144.1607 L498.9502,182.6155 A0,0 0 0 0 498.9502,182.6155 L739.6626,182.6155 A0,0 0 0 0 739.6626,182.6155 L739.6626,107.706 L729.6626,97.706 L498.9502,97.706 A0,0 0 0 0 498.9502,97.706 " fill="#FFF3E0" style="stroke:#B0792C;stroke-width:0.5;"/><path d="M729.6626,97.706 L729.6626,107.706 L739.6626,107.706 L729.6626,97.706 " fill="#FFF3E0" style="stroke:#B0792C;stroke-width:0.5;"/><text fill="#111111" font-family="Serif" font-size="11" lengthAdjust="spacing" textLength="35.6617" x="504.9502" y="114.4649">Pentru</text><text fill="#111111" font-family="Serif" font-size="11" font-weight="bold" lengthAdjust="spacing" textLength="64.0195" x="543.4719" y="114.4649">fiecare fa&#539;&#259;</text><text fill="#111111" font-family="Serif" font-size="11" lengthAdjust="spacing" textLength="94.1153" x="610.3514" y="114.4649">detectat&#259; produce</text><text fill="#111111" font-family="Serif" font-size="11" lengthAdjust="spacing" textLength="219.7124" x="504.9502" y="129.4468">simultan, &#238;ntr-o singur&#259; inferen&#539;&#259; pe GPU:</text><text fill="#111111" font-family="Serif" font-size="11" lengthAdjust="spacing" textLength="171.2577" x="504.9502" y="144.4287">&#8226; bounding box + 5 landmark-uri</text><text fill="#111111" font-family="Serif" font-size="11" lengthAdjust="spacing" textLength="213.6294" x="504.9502" y="159.4106">&#8226; embedding facial 512-d (L2-normalizat)</text><text fill="#111111" font-family="Serif" font-size="11" lengthAdjust="spacing" textLength="123.6611" x="504.9502" y="174.3925">&#8226; v&#226;rst&#259; &#537;i gen (modulul</text><text fill="#111111" font-family="monospace" font-size="11" lengthAdjust="spacing" textLength="59.603" x="631.4713" y="175.0212">genderage</text><text fill="#111111" font-family="Serif" font-size="11" lengthAdjust="spacing" textLength="3.806" x="691.0743" y="174.3925">)</text><rect fill="#EAF1FB" height="55.412" rx="12.5" ry="12.5" style="stroke:#333333;stroke-width:0.5;" width="293.9096" x="185.0406" y="112.4547"/><text fill="#111111" font-family="Serif" font-size="13" font-weight="bold" lengthAdjust="spacing" textLength="76.1541" x="195.0406" y="136.3517">InsightFace</text><text fill="#111111" font-family="Serif" font-size="13" lengthAdjust="spacing" textLength="45.981" x="274.5747" y="136.3517">(pachet</text><text fill="#111111" font-family="monospace" font-size="13" lengthAdjust="spacing" textLength="70.4399" x="323.9357" y="137.0948">buffalo_s</text><text fill="#111111" font-family="Serif" font-size="13" lengthAdjust="spacing" textLength="4.498" x="394.3756" y="136.3517">)</text><text fill="#111111" font-family="Serif" font-size="13" lengthAdjust="spacing" textLength="121.8231" x="195.0406" y="154.0577">o singur&#259; trecere &#8212;</text><text fill="#111111" font-family="monospace" font-size="13" lengthAdjust="spacing" textLength="148.7065" x="320.2437" y="154.8008">face_app.get(frame)</text><rect fill="none" height="557.4574" style="stroke:#000000;stroke-width:1.5;" width="745.497" x="11" y="192.6155"/><path d="M196.7861,192.6155 L196.7861,203.3215 L186.7861,213.3215 L11,213.3215 " fill="none" style="stroke:#000000;stroke-width:1.5;"/><text fill="#000000" font-family="Serif" font-size="13" lengthAdjust="spacing" textLength="175.7861" x="14" y="207.5125">pentru fiecare fa&#539;&#259; detectat&#259;</text><path d="M511.4276,230.5547 L511.4276,254.0275 L491.4276,258.0275 L511.4276,262.0275 L511.4276,285.5003 A0,0 0 0 0 511.4276,285.5003 L746.497,285.5003 A0,0 0 0 0 746.497,285.5003 L746.497,240.5547 L736.497,230.5547 L511.4276,230.5547 A0,0 0 0 0 511.4276,230.5547 " fill="#FFF3E0" style="stroke:#B0792C;stroke-width:0.5;"/><path d="M736.497,230.5547 L736.497,240.5547 L746.497,240.5547 L736.497,230.5547 " fill="#FFF3E0" style="stroke:#B0792C;stroke-width:0.5;"/><text fill="#111111" font-family="Serif" font-size="11" lengthAdjust="spacing" textLength="214.0694" x="517.4276" y="247.3136">Indexul este reconstruit din baza de date</text><text fill="#111111" font-family="Serif" font-size="11" lengthAdjust="spacing" textLength="185.5026" x="517.4276" y="262.2955">(PostgreSQL) la pornire &#537;i la fiecare</text><text fill="#111111" font-family="Serif" font-size="11" lengthAdjust="spacing" textLength="182.9506" x="517.4276" y="277.2773">&#238;nregistrare / modificare / &#537;tergere.</text><rect fill="#EAF1FB" height="55.412" rx="12.5" ry="12.5" style="stroke:#333333;stroke-width:0.5;" width="318.8645" x="172.5632" y="230.3215"/><text fill="#111111" font-family="Serif" font-size="13" font-weight="bold" lengthAdjust="spacing" textLength="164.8661" x="182.5632" y="254.2185">C&#259;utare &#238;n indexul FAISS</text><text fill="#111111" font-family="Serif" font-size="13" lengthAdjust="spacing" textLength="4.498" x="350.8093" y="254.2185">(</text><text fill="#111111" font-family="monospace" font-size="13" lengthAdjust="spacing" textLength="86.0933" x="355.3073" y="254.9616">IndexFlatL2</text><text fill="#111111" font-family="Serif" font-size="13" lengthAdjust="spacing" textLength="40.0271" x="441.4006" y="254.2185">, k = 1)</text><text fill="#111111" font-family="Serif" font-size="13" lengthAdjust="spacing" textLength="224.2488" x="182.5632" y="271.9245">cel mai apropiat vecin &#8594; distan&#539;&#259; L2</text><polygon fill="#FFF3E0" points="261.2298,305.7335,402.761,305.7335,414.761,323.4395,402.761,341.1455,261.2298,341.1455,249.2298,323.4395,261.2298,305.7335" style="stroke:#5A6B8C;stroke-width:0.5;"/><text fill="#111111" font-family="Serif" font-size="13" lengthAdjust="spacing" textLength="141.5311" x="261.2298" y="319.6305">distan&#539;&#259; L2 &lt; prag (1,0)</text><text fill="#111111" font-family="Serif" font-size="13" font-weight="bold" lengthAdjust="spacing" textLength="10.92" x="261.2298" y="337.3365">&#537;i</text><text fill="#111111" font-family="Serif" font-size="13" lengthAdjust="spacing" textLength="109.2651" x="275.5298" y="337.3365">confidence &gt; 0,4 ?</text><text fill="#333333" font-family="Serif" font-size="13" lengthAdjust="spacing" textLength="125.3981" x="123.8317" y="319.6305">da &#8212; fa&#539;&#259; cunoscut&#259;</text><text fill="#333333" font-family="Serif" font-size="13" lengthAdjust="spacing" textLength="142.0771" x="414.761" y="319.6305">nu &#8212; fa&#539;&#259; necunoscut&#259;</text><rect fill="#E8F5E9" height="55.412" rx="12.5" ry="12.5" style="stroke:#333333;stroke-width:0.5;" width="292.7388" x="23" y="351.1455"/><text fill="#111111" font-family="Serif" font-size="13" lengthAdjust="spacing" textLength="272.7388" x="33" y="375.0426">Conversie distan&#539;&#259; L2 &#8594; similaritate cosinus</text><text fill="#111111" font-family="Serif" font-size="13" lengthAdjust="spacing" textLength="141.5702" x="33" y="392.7486">confidence = 1 &#8722; L2&#178; / 2</text><rect fill="#E8F5E9" height="52.8388" rx="12.5" ry="12.5" style="stroke:#333333;stroke-width:0.5;" width="257.2762" x="40.7313" y="426.5576"/><text fill="#111111" font-family="Serif" font-size="13" lengthAdjust="spacing" textLength="237.2762" x="50.7313" y="450.4546">Identitatea persoanei din baza de date</text><text fill="#111111" font-family="monospace" font-size="13" lengthAdjust="spacing" textLength="140.8799" x="50.7313" y="466.3305">get_person_by_id()</text><rect fill="#E8F5E9" height="55.412" rx="12.5" ry="12.5" style="stroke:#333333;stroke-width:0.5;" width="218.5361" x="60.1013" y="501.9696"/><text fill="#111111" font-family="Serif" font-size="13" lengthAdjust="spacing" textLength="198.5361" x="70.1013" y="525.8666">&#206;nregistrare eveniment de acces</text><text fill="#111111" font-family="monospace" font-size="13" lengthAdjust="spacing" textLength="93.9199" x="70.1013" y="544.3157">log_access()</text><text fill="#111111" font-family="Serif" font-size="13" lengthAdjust="spacing" textLength="92.0646" x="167.4013" y="543.5726">&#8594; baz&#259; de date</text><rect fill="#E8F5E9" height="37.706" rx="12.5" ry="12.5" style="stroke:#333333;stroke-width:0.5;" width="236.5542" x="51.0923" y="579.9548"/><text fill="#111111" font-family="Serif" font-size="13" lengthAdjust="spacing" textLength="45.019" x="61.0923" y="603.8519">Chenar</text><text fill="#111111" font-family="Serif" font-size="13" font-weight="bold" lengthAdjust="spacing" textLength="37.96" x="109.4913" y="603.8519">verde</text><text fill="#111111" font-family="Serif" font-size="13" lengthAdjust="spacing" textLength="126.8151" x="150.8314" y="603.8519">+ nume (confidence)</text><rect fill="#E8F5E9" height="55.412" rx="12.5" ry="12.5" style="stroke:#333333;stroke-width:0.5;" width="212.6861" x="63.0263" y="652.6609"/><text fill="#111111" font-family="Serif" font-size="13" lengthAdjust="spacing" textLength="136.3961" x="73.0263" y="676.5579">V&#226;rst&#259; / gen / emo&#539;ie =</text><text fill="#111111" font-family="monospace" font-size="13" lengthAdjust="spacing" textLength="31.3066" x="212.8024" y="677.301">None</text><text fill="#111111" font-family="Serif" font-size="13" lengthAdjust="spacing" textLength="192.6861" x="73.0263" y="694.2639">(omise deliberat &#8212; optimizare)</text><rect fill="#FFF3E0" height="55.412" rx="12.5" ry="12.5" style="stroke:#333333;stroke-width:0.5;" width="206.8492" x="391.1968" y="351.1455"/><text fill="#111111" font-family="Serif" font-size="13" lengthAdjust="spacing" textLength="150.0071" x="401.1968" y="375.0426">Se expun v&#226;rsta &#537;i genul</text><text fill="#111111" font-family="Serif" font-size="13" lengthAdjust="spacing" textLength="186.8492" x="401.1968" y="392.7486">(deja calculate de InsightFace)</text><rect fill="#FFF3E0" height="55.412" rx="12.5" ry="12.5" style="stroke:#333333;stroke-width:0.5;" width="317.7652" x="335.7388" y="426.5576"/><text fill="#111111" font-family="Serif" font-size="13" lengthAdjust="spacing" textLength="193.7247" x="345.7388" y="450.4546">Decupare bbox &#8594; preprocesare</text><text fill="#111111" font-family="Serif" font-size="13" lengthAdjust="spacing" textLength="297.7652" x="345.7388" y="468.1606">(grayscale, redimensionare, normalizare [&#8722;1, 1])</text><rect fill="#FFF3E0" height="55.412" rx="12.5" ry="12.5" style="stroke:#333333;stroke-width:0.5;" width="256.7677" x="366.2375" y="504.5428"/><text fill="#111111" font-family="Serif" font-size="13" font-weight="bold" lengthAdjust="spacing" textLength="92.8851" x="376.2375" y="528.4398">Mini-Xception</text><text fill="#111111" font-family="Serif" font-size="13" lengthAdjust="spacing" textLength="52.468" x="472.5026" y="528.4398">(pe CPU)</text><text fill="#111111" font-family="Serif" font-size="13" lengthAdjust="spacing" textLength="236.7677" x="376.2375" y="546.1458">clasificare emo&#539;ie (softmax &#8594; argmax)</text><rect fill="#FFF3E0" height="55.412" rx="12.5" ry="12.5" style="stroke:#333333;stroke-width:0.5;" width="195.4137" x="396.9145" y="582.528"/><text fill="#111111" font-family="Serif" font-size="13" lengthAdjust="spacing" textLength="45.019" x="406.9145" y="606.4251">Chenar</text><text fill="#111111" font-family="Serif" font-size="13" font-weight="bold" lengthAdjust="spacing" textLength="68.8481" x="455.3136" y="606.4251">portocaliu</text><text fill="#111111" font-family="Serif" font-size="13" lengthAdjust="spacing" textLength="3.38" x="524.1616" y="606.4251">&#160;</text><text fill="#111111" font-family="monospace" font-size="13" lengthAdjust="spacing" textLength="54.7866" x="527.5416" y="607.1681">Unknown</text><text fill="#111111" font-family="Serif" font-size="13" lengthAdjust="spacing" textLength="135.1481" x="406.9145" y="624.1311">+ v&#226;rst&#259; / gen / emo&#539;ie</text><polygon fill="#FFF3E0" points="331.9954,714.0729,343.9954,726.0729,331.9954,738.0729,319.9954,726.0729,331.9954,714.0729" style="stroke:#5A6B8C;stroke-width:0.5;"/><rect fill="#EAF1FB" height="55.412" rx="12.5" ry="12.5" style="stroke:#333333;stroke-width:0.5;" width="224.2951" x="219.8478" y="770.0729"/><text fill="#111111" font-family="Serif" font-size="13" lengthAdjust="spacing" textLength="161.9281" x="229.8478" y="793.9699">Rezultatele tuturor fe&#539;elor</text><text fill="#111111" font-family="Serif" font-size="13" lengthAdjust="spacing" textLength="204.2951" x="229.8478" y="811.6759">sunt transmise firului de fuziune</text><ellipse cx="331.9954" cy="856.4849" fill="none" rx="11" ry="11" style="stroke:#222222;stroke-width:1.0;"/><ellipse cx="331.9954" cy="856.4849" fill="#222222" rx="6" ry="6" style="stroke:#222222;stroke-width:1.0;"/><line style="stroke:#555555;stroke-width:1.0;" x1="331.9954" x2="331.9954" y1="30" y2="50"/><polygon fill="#555555" points="327.9954,40,331.9954,50,335.9954,40,331.9954,44" style="stroke:#555555;stroke-width:1.0;"/><line style="stroke:#555555;stroke-width:1.0;" x1="331.9954" x2="331.9954" y1="87.706" y2="112.4547"/><polygon fill="#555555" points="327.9954,102.4547,331.9954,112.4547,335.9954,102.4547,331.9954,106.4547" style="stroke:#555555;stroke-width:1.0;"/><line style="stroke:#555555;stroke-width:1.0;" x1="169.3694" x2="169.3694" y1="406.5576" y2="426.5576"/><polygon fill="#555555" points="165.3694,416.5576,169.3694,426.5576,173.3694,416.5576,169.3694,420.5576" style="stroke:#555555;stroke-width:1.0;"/><line style="stroke:#555555;stroke-width:1.0;" x1="169.3694" x2="169.3694" y1="479.3964" y2="501.9696"/><polygon fill="#555555" points="165.3694,491.9696,169.3694,501.9696,173.3694,491.9696,169.3694,495.9696" style="stroke:#555555;stroke-width:1.0;"/><line style="stroke:#555555;stroke-width:1.0;" x1="169.3694" x2="169.3694" y1="557.3816" y2="579.9548"/><polygon fill="#555555" points="165.3694,569.9548,169.3694,579.9548,173.3694,569.9548,169.3694,573.9548" style="stroke:#555555;stroke-width:1.0;"/><line style="stroke:#555555;stroke-width:1.0;" x1="169.3694" x2="169.3694" y1="617.6609" y2="652.6609"/><polygon fill="#555555" points="165.3694,642.6609,169.3694,652.6609,173.3694,642.6609,169.3694,646.6609" style="stroke:#555555;stroke-width:1.0;"/><line style="stroke:#555555;stroke-width:1.0;" x1="494.6214" x2="494.6214" y1="406.5576" y2="426.5576"/><polygon fill="#555555" points="490.6214,416.5576,494.6214,426.5576,498.6214,416.5576,494.6214,420.5576" style="stroke:#555555;stroke-width:1.0;"/><line style="stroke:#555555;stroke-width:1.0;" x1="494.6214" x2="494.6214" y1="481.9696" y2="504.5428"/><polygon fill="#555555" points="490.6214,494.5428,494.6214,504.5428,498.6214,494.5428,494.6214,498.5428" style="stroke:#555555;stroke-width:1.0;"/><line style="stroke:#555555;stroke-width:1.0;" x1="494.6214" x2="494.6214" y1="559.9548" y2="582.528"/><polygon fill="#555555" points="490.6214,572.528,494.6214,582.528,498.6214,572.528,494.6214,576.528" style="stroke:#555555;stroke-width:1.0;"/><line style="stroke:#555555;stroke-width:1.0;" x1="249.2298" x2="169.3694" y1="323.4395" y2="323.4395"/><line style="stroke:#555555;stroke-width:1.0;" x1="169.3694" x2="169.3694" y1="323.4395" y2="351.1455"/><polygon fill="#555555" points="165.3694,341.1455,169.3694,351.1455,173.3694,341.1455,169.3694,345.1455" style="stroke:#555555;stroke-width:1.0;"/><line style="stroke:#555555;stroke-width:1.0;" x1="414.761" x2="494.6214" y1="323.4395" y2="323.4395"/><line style="stroke:#555555;stroke-width:1.0;" x1="494.6214" x2="494.6214" y1="323.4395" y2="351.1455"/><polygon fill="#555555" points="490.6214,341.1455,494.6214,351.1455,498.6214,341.1455,494.6214,345.1455" style="stroke:#555555;stroke-width:1.0;"/><line style="stroke:#555555;stroke-width:1.0;" x1="169.3694" x2="169.3694" y1="708.0729" y2="726.0729"/><line style="stroke:#555555;stroke-width:1.0;" x1="169.3694" x2="319.9954" y1="726.0729" y2="726.0729"/><polygon fill="#555555" points="309.9954,722.0729,319.9954,726.0729,309.9954,730.0729,313.9954,726.0729" style="stroke:#555555;stroke-width:1.0;"/><line style="stroke:#555555;stroke-width:1.0;" x1="494.6214" x2="494.6214" y1="637.9401" y2="726.0729"/><line style="stroke:#555555;stroke-width:1.0;" x1="494.6214" x2="343.9954" y1="726.0729" y2="726.0729"/><polygon fill="#555555" points="353.9954,722.0729,343.9954,726.0729,353.9954,730.0729,349.9954,726.0729" style="stroke:#555555;stroke-width:1.0;"/><line style="stroke:#555555;stroke-width:1.0;" x1="331.9954" x2="331.9954" y1="285.7335" y2="305.7335"/><polygon fill="#555555" points="327.9954,295.7335,331.9954,305.7335,335.9954,295.7335,331.9954,299.7335" style="stroke:#555555;stroke-width:1.0;"/><line style="stroke:#555555;stroke-width:1.0;" x1="331.9954" x2="331.9954" y1="167.8668" y2="230.3215"/><polygon fill="#555555" points="327.9954,220.3215,331.9954,230.3215,335.9954,220.3215,331.9954,224.3215" style="stroke:#555555;stroke-width:1.0;"/><line style="stroke:#555555;stroke-width:1.0;" x1="331.9954" x2="331.9954" y1="738.0729" y2="770.0729"/><polygon fill="#555555" points="327.9954,760.0729,331.9954,770.0729,335.9954,760.0729,331.9954,764.0729" style="stroke:#555555;stroke-width:1.0;"/><line style="stroke:#555555;stroke-width:1.0;" x1="331.9954" x2="331.9954" y1="825.4849" y2="845.4849"/><polygon fill="#555555" points="327.9954,835.4849,331.9954,845.4849,335.9954,835.4849,331.9954,839.4849" style="stroke:#555555;stroke-width:1.0;"/><!--SRC=[RLRBJYD75DtxAwwQnRIDUHX2CcFo47XmX4H691PHf11PvUxRJOLsLQkgcbSKQIIaAAiiHjcCsCq7P95F22pu3huafye6jmtjJNVLhNFlEVTHVaNzehge2Xhhj2hmavGo6KugfSNzHyU6AHE95CNTDIsJKAAGLtXDUQnp8pAPt5sluVt-HchbZHglAEw9SfMskcGvwGRSuGIY7LOc668uWn3DHiEUIbKA8yPaJqIgpwNAuRYmNDiPYUGqDxfIQKyNsf0pGbbiiN8rgvGpKHMkhvLx9yPC0pOoUtb_8A-OEfkrpHrZzFa4VMahF8kR_jpKO3CyzTX5ukIPT9VqMuDeLvkKpRmjLXT8BEtjz3lzNUpKa3lXmTfRASPQfNDGMpkVxxxkrJON4Vlz_kRU-ipW9U214yOj0kuzGJmjxOe5jx_N-Ihj-3dNtVKltcpqNkBw5DbB8SqoqWbUV8IDRglL4wcfw4och5kjxOPVsbTMvYUkBn9kjIWkHNB2Zg9eL6Ke6ZsqKTGyLfeiogWog5U7alQr_F3-RvYX77aeod8rPnTd8CBDADfk13R60oEQGrGLtBPQcUH4X3QulxcxXhkK7ITEEC2M1kMTCCoj7AEeX6hJxJyuk5BpBLK6rygVffBfsyEZBWuylFz48o-Dh_IHla1tRL4XL3eMvdIbCd9gm-CHf-ca7NmJqLPdOoMb-61ZHMap3htacbFZizjFnlh0xZzAobbHFErhaCOdKYHoXZODl8VaDHf8f9CEtKjHEQ4yJxX6DqAguSYdvEwwSju6PC4lPJz2-ZlxWu5FHnJj-wL-8Tp1HXIrwPI-eWuIaZ06ZP0ae5ifXQCpJgIYXpy-K2gHxub61nlRy3AN3ABzgHEsBimdhInYbGu75GR3bV1pAnMEWtLygAtB3G- -FsX2L2grKHBXUbdmEMKOJC70S0xlnlDPyuDG-faKFi84p96zLTZED2EI6SLp8TENA0QHKznfhuDfgmLNq09nPYXSCAUlQRtz6NtJ97VY4vEAK8nJaVsyjKa5aPkD4DRItkl-rjwRRa-hCpPMyhn2GJFKd2o4aKWEmnCAhh8GUUOIgjF3dnzW_z-_O1DqdK7lmyY5mn08FhHGB9_fUQnywRXXi533qULGfd5ebphMxLzr5VcCbHm3tOE8967hKGgT3yE7zUS30pWA5HOypIFse98mw3_GJtsNBvEgCCxZ6R_c_8aV7uj_BPJ-6atk9Iz35BtJ2eL_h68zbXR-k90ZT8CBIT2bWvHN21sGFjEuToXMLJr3Yf_dQ3BEkWCmlYWhDMq_yTXzLG5_AVygA155KXK-JU1Q6rwF3AP0R-73tsSqyWF12rGQHgz0Cwm23FVbfGKOjz43gPVO-dlNuFjf6E3upqXwfqsTNnRmMwtlf98hFoLS-euFevEfTtZaUxCGzh7m7uMBhSxSM4n24IR7wmBYKvRGOKuZCba1DOgErAdIvyehlZoRIWk9cMYD2PZvUT_zWQ_y27LSCBdALGQtGyRtDunhubZP2kKKRloGm4oQntyhMNKbAmKqwtJP-1y0]--></g></svg>