<svg xmlns="http://www.w3.org/2000/svg" xmlns:xlink="http://www.w3.org/1999/xlink" contentStyleType="text/css" height="575px" preserveAspectRatio="none" style="width:1098px;height:575px;" version="1.1" viewBox="0 0 1098 575" width="1098px" zoomAndPan="magnify"><defs/><g><ellipse cx="549.3117" cy="20" fill="#5A6B8C" rx="10" ry="10" style="stroke:#222222;stroke-width:1.0;"/><path d="M661.8553,59.0862 L661.8553,82.559 L641.8553,86.559 L661.8553,90.559 L661.8553,114.0319 A0,0 0 0 0 661.8553,114.0319 L839.6481,114.0319 A0,0 0 0 0 839.6481,114.0319 L839.6481,69.0862 L829.6481,59.0862 L661.8553,59.0862 A0,0 0 0 0 661.8553,59.0862 " fill="#FFF3E0" style="stroke:#B0792C;stroke-width:0.5;"/><path d="M829.6481,59.0862 L829.6481,69.0862 L839.6481,69.0862 L829.6481,59.0862 " fill="#FFF3E0" style="stroke:#B0792C;stroke-width:0.5;"/><text fill="#111111" font-family="Serif" font-size="11" lengthAdjust="spacing" textLength="156.7928" x="667.8553" y="75.8451">Volatil&#259;: exist&#259; doar pe cadrul</text><text fill="#111111" font-family="Serif" font-size="11" lengthAdjust="spacing" textLength="124.0021" x="667.8553" y="90.827">adnotat &#537;i &#238;n fluxul live.</text><text fill="#111111" font-family="Serif" font-size="11" lengthAdjust="spacing" textLength="124.5961" x="667.8553" y="105.8089">Nu este, &#238;n sine, stocat&#259;.</text><rect fill="#EAF1FB" height="73.118" rx="12.5" ry="12.5" style="stroke:#333333;stroke-width:0.5;" width="185.0871" x="456.7682" y="50"/><text fill="#111111" font-family="Serif" font-size="13" font-weight="bold" lengthAdjust="spacing" textLength="54.197" x="466.7682" y="73.897">Detec&#539;ie</text><text fill="#111111" font-family="Serif" font-size="13" lengthAdjust="spacing" textLength="143.3381" x="466.7682" y="91.603">rezultat brut per-cadru</text><text fill="#111111" font-family="Serif" font-size="13" lengthAdjust="spacing" textLength="165.0871" x="466.7682" y="109.309">(clas&#259;, scor, bounding box)</text><polygon fill="#FFF3E0" points="489.9342,143.118,608.6893,143.118,620.6893,155.118,608.6893,167.118,489.9342,167.118,477.9342,155.118,489.9342,143.118" style="stroke:#5A6B8C;stroke-width:0.5;"/><text fill="#333333" font-family="Serif" font-size="13" lengthAdjust="spacing" textLength="15.301" x="553.3117" y="181.0151">da</text><text fill="#111111" font-family="Serif" font-size="13" lengthAdjust="spacing" textLength="118.7551" x="489.9342" y="160.1621">Detec&#539;ie relevant&#259;?</text><text fill="#333333" font-family="Serif" font-size="13" lengthAdjust="spacing" textLength="16.64" x="620.6893" y="151.309">nu</text><ellipse cx="659.3293" cy="155.118" fill="none" rx="11" ry="11" style="stroke:#222222;stroke-width:1.0;"/><ellipse cx="659.3293" cy="155.118" fill="#222222" rx="6" ry="6" style="stroke:#222222;stroke-width:1.0;"/><rect fill="#5A6B8C" height="6" rx="2.5" ry="2.5" style="stroke:#5A6B8C;stroke-width:1.0;" width="1076.6235" x="11" y="202.5151"/><path d="M238.6692,351.8073 L238.6692,375.2801 L218.6692,379.2801 L238.6692,383.2801 L238.6692,406.753 A0,0 0 0 0 238.6692,406.753 L459.4826,406.753 A0,0 0 0 0 459.4826,406.753 L459.4826,361.8073 L449.4826,351.8073 L238.6692,351.8073 A0,0 0 0 0 238.6692,351.8073 " fill="#FFF3E0" style="stroke:#B0792C;stroke-width:0.5;"/><path d="M449.4826,351.8073 L449.4826,361.8073 L459.4826,361.8073 L449.4826,351.8073 " fill="#FFF3E0" style="stroke:#B0792C;stroke-width:0.5;"/><text fill="#111111" font-family="Serif" font-size="11" lengthAdjust="spacing" textLength="199.8134" x="244.6692" y="368.5662">&#206;nregistrare permanent&#259;, interogabil&#259;</text><text fill="#111111" font-family="Serif" font-size="11" lengthAdjust="spacing" textLength="185.9316" x="244.6692" y="383.5481">&#537;i exportabil&#259; (CSV). Documenteaz&#259;</text><text fill="#111111" font-family="Serif" font-size="11" font-style="italic" lengthAdjust="spacing" textLength="81.6964" x="244.6692" y="398.53">ce s-a &#238;nt&#226;mplat</text><text fill="#111111" font-family="Serif" font-size="11" lengthAdjust="spacing" textLength="89.8803" x="326.3656" y="398.53">; nu cere ac&#539;iune.</text><rect fill="#EAF1FB" height="73.118" rx="12.5" ry="12.5" style="stroke:#333333;stroke-width:0.5;" width="195.6692" x="23" y="342.7211"/><text fill="#111111" font-family="Serif" font-size="13" font-weight="bold" lengthAdjust="spacing" textLength="41.665" x="33" y="366.6181">Jurnal</text><text fill="#111111" font-family="Serif" font-size="13" lengthAdjust="spacing" textLength="38.181" x="33" y="384.3241">tabela</text><text fill="#111111" font-family="monospace" font-size="13" lengthAdjust="spacing" textLength="109.5732" x="74.561" y="385.0672">detection_logs</text><text fill="#111111" font-family="Serif" font-size="13" lengthAdjust="spacing" textLength="175.6692" x="33" y="402.0301">istoric pasiv, deduplicare 5 s</text><polygon fill="#FFF3E0" points="685.4365,228.5151,794.1166,228.5151,806.1166,240.5151,794.1166,252.5151,685.4365,252.5151,673.4365,240.5151,685.4365,228.5151" style="stroke:#5A6B8C;stroke-width:0.5;"/><text fill="#333333" font-family="Serif" font-size="13" lengthAdjust="spacing" textLength="15.301" x="743.7766" y="266.4121">da</text><text fill="#111111" font-family="Serif" font-size="13" lengthAdjust="spacing" textLength="108.6801" x="685.4365" y="245.5591">Eveniment critic?</text><text fill="#333333" font-family="Serif" font-size="13" lengthAdjust="spacing" textLength="16.64" x="806.1166" y="236.7061">nu</text><ellipse cx="844.7566" cy="240.5151" fill="none" rx="11" ry="11" style="stroke:#222222;stroke-width:1.0;"/><ellipse cx="844.7566" cy="240.5151" fill="#222222" rx="6" ry="6" style="stroke:#222222;stroke-width:1.0;"/><path d="M889.1297,304.4892 L889.1297,320.4711 L869.1297,324.4711 L889.1297,328.4711 L889.1297,344.453 A0,0 0 0 0 889.1297,344.453 L1075.6235,344.453 A0,0 0 0 0 1075.6235,344.453 L1075.6235,314.4892 L1065.6235,304.4892 L889.1297,304.4892 A0,0 0 0 0 889.1297,304.4892 " fill="#FFF3E0" style="stroke:#B0792C;stroke-width:0.5;"/><path d="M1065.6235,304.4892 L1065.6235,314.4892 L1075.6235,314.4892 L1065.6235,304.4892 " fill="#FFF3E0" style="stroke:#B0792C;stroke-width:0.5;"/><text fill="#111111" font-family="Serif" font-size="11" lengthAdjust="spacing" textLength="125.3661" x="895.1297" y="321.2481">Subsetul critic care cere</text><text fill="#111111" font-family="Serif" font-size="11" font-style="italic" lengthAdjust="spacing" textLength="84.1714" x="895.1297" y="336.23">aten&#539;ia imediat&#259;</text><text fill="#111111" font-family="Serif" font-size="11" lengthAdjust="spacing" textLength="78.4624" x="982.1611" y="336.23">a operatorului.</text><rect fill="#EAF1FB" height="73.118" rx="12.5" ry="12.5" style="stroke:#333333;stroke-width:0.5;" width="258.7062" x="610.4235" y="287.9121"/><text fill="#111111" font-family="Serif" font-size="13" font-weight="bold" lengthAdjust="spacing" textLength="49.556" x="620.4235" y="311.8091">Alarm&#259;</text><text fill="#111111" font-family="Serif" font-size="13" lengthAdjust="spacing" textLength="38.181" x="620.4235" y="329.5151">tabela</text><text fill="#111111" font-family="monospace" font-size="13" lengthAdjust="spacing" textLength="46.96" x="661.9845" y="330.2582">alarms</text><text fill="#111111" font-family="Serif" font-size="13" lengthAdjust="spacing" textLength="53.729" x="708.9444" y="329.5151">, status =</text><text fill="#111111" font-family="monospace" font-size="13" lengthAdjust="spacing" textLength="78.2666" x="766.0535" y="330.2582">unresolved</text><text fill="#111111" font-family="Serif" font-size="13" lengthAdjust="spacing" textLength="238.7062" x="620.4235" y="347.2211">severitate + snapshot, deduplicare 30 s</text><rect fill="#EAF1FB" height="37.706" rx="12.5" ry="12.5" style="stroke:#333333;stroke-width:0.5;" width="183.1241" x="648.2145" y="396.0301"/><text fill="#111111" font-family="Serif" font-size="13" lengthAdjust="spacing" textLength="163.1241" x="658.2145" y="419.9271">Operatorul o triaz&#259; (UC11)</text><line style="stroke:#555555;stroke-width:1.5;" x1="572.6281" x2="798.8394" y1="453.7361" y2="453.7361"/><rect fill="#EAF1FB" height="55.412" rx="12.5" ry="12.5" style="stroke:#333333;stroke-width:0.5;" width="142.2911" x="501.4826" y="492.9422"/><text fill="#111111" font-family="Serif" font-size="13" lengthAdjust="spacing" textLength="47.099" x="511.4826" y="516.8392">status =</text><text fill="#111111" font-family="monospace" font-size="13" lengthAdjust="spacing" textLength="62.6133" x="561.9616" y="517.5823">resolved</text><text fill="#111111" font-family="Serif" font-size="13" lengthAdjust="spacing" textLength="4.498" x="511.4826" y="534.5452">(</text><text fill="#111111" font-family="Serif" font-size="13" font-weight="bold" lengthAdjust="spacing" textLength="113.2951" x="515.9806" y="534.5452">alarm&#259; rezolvat&#259;</text><text fill="#111111" font-family="Serif" font-size="13" lengthAdjust="spacing" textLength="4.498" x="629.2757" y="534.5452">)</text><rect fill="#EAF1FB" height="55.412" rx="12.5" ry="12.5" style="stroke:#333333;stroke-width:0.5;" width="156.5723" x="720.5532" y="492.9422"/><text fill="#111111" font-family="Serif" font-size="13" lengthAdjust="spacing" textLength="47.099" x="730.5532" y="516.8392">status =</text><text fill="#111111" font-family="monospace" font-size="13" lengthAdjust="spacing" textLength="86.0933" x="781.0323" y="517.5823">false_alarm</text><text fill="#111111" font-family="Serif" font-size="13" lengthAdjust="spacing" textLength="4.498" x="730.5532" y="534.5452">(</text><text fill="#111111" font-family="Serif" font-size="13" font-weight="bold" lengthAdjust="spacing" textLength="82.7191" x="735.0512" y="534.5452">alarm&#259; fals&#259;</text><text fill="#111111" font-family="Serif" font-size="13" lengthAdjust="spacing" textLength="4.498" x="817.7703" y="534.5452">)</text><rect fill="#5A6B8C" height="6" rx="2.5" ry="2.5" style="stroke:#5A6B8C;stroke-width:1.0;" width="1076.6235" x="11" y="558.3542"/><line style="stroke:#555555;stroke-width:1.0;" x1="549.3117" x2="549.3117" y1="30" y2="50"/><polygon fill="#555555" points="545.3117,40,549.3117,50,553.3117,40,549.3117,44" style="stroke:#555555;stroke-width:1.0;"/><line style="stroke:#555555;stroke-width:1.0;" x1="549.3117" x2="549.3117" y1="167.118" y2="202.5151"/><polygon fill="#555555" points="545.3117,192.5151,549.3117,202.5151,553.3117,192.5151,549.3117,196.5151" style="stroke:#555555;stroke-width:1.0;"/><line style="stroke:#555555;stroke-width:1.0;" x1="620.6893" x2="648.3293" y1="155.118" y2="155.118"/><polygon fill="#555555" points="638.3293,151.118,648.3293,155.118,638.3293,159.118,642.3293,155.118" style="stroke:#555555;stroke-width:1.0;"/><line style="stroke:#555555;stroke-width:1.0;" x1="549.3117" x2="549.3117" y1="123.118" y2="143.118"/><polygon fill="#555555" points="545.3117,133.118,549.3117,143.118,553.3117,133.118,549.3117,137.118" style="stroke:#555555;stroke-width:1.0;"/><line style="stroke:#555555;stroke-width:1.0;" x1="739.7766" x2="739.7766" y1="252.5151" y2="287.9121"/><polygon fill="#555555" points="735.7766,277.9121,739.7766,287.9121,743.7766,277.9121,739.7766,281.9121" style="stroke:#555555;stroke-width:1.0;"/><line style="stroke:#555555;stroke-width:1.0;" x1="806.1166" x2="833.7566" y1="240.5151" y2="240.5151"/><polygon fill="#555555" points="823.7566,236.5151,833.7566,240.5151,823.7566,244.5151,827.7566,240.5151" style="stroke:#555555;stroke-width:1.0;"/><line style="stroke:#555555;stroke-width:1.0;" x1="739.7766" x2="739.7766" y1="361.0301" y2="396.0301"/><polygon fill="#555555" points="735.7766,386.0301,739.7766,396.0301,743.7766,386.0301,739.7766,390.0301" style="stroke:#555555;stroke-width:1.0;"/><line style="stroke:#555555;stroke-width:1.0;" x1="572.6281" x2="572.6281" y1="455.2361" y2="492.9422"/><polygon fill="#555555" points="568.6281,482.9422,572.6281,492.9422,576.6281,482.9422,572.6281,486.9422" style="stroke:#555555;stroke-width:1.0;"/><text fill="#333333" font-family="Serif" font-size="13" lengthAdjust="spacing" textLength="119.9251" x="576.6281" y="479.1332">incident real, tratat</text><line style="stroke:#555555;stroke-width:1.0;" x1="798.8394" x2="798.8394" y1="455.2361" y2="492.9422"/><polygon fill="#555555" points="794.8394,482.9422,798.8394,492.9422,802.8394,482.9422,798.8394,486.9422" style="stroke:#555555;stroke-width:1.0;"/><text fill="#333333" font-family="Serif" font-size="13" lengthAdjust="spacing" textLength="179.2312" x="802.8394" y="479.1332">nu corespunde unui incident</text><line style="stroke:#555555;stroke-width:1.0;" x1="739.7766" x2="739.7766" y1="433.7361" y2="453.7361"/><polygon fill="#555555" points="735.7766,443.7361,739.7766,453.7361,743.7766,443.7361,739.7766,447.7361" style="stroke:#555555;stroke-width:1.0;"/><line style="stroke:#555555;stroke-width:1.0;" x1="120.8346" x2="120.8346" y1="208.5151" y2="342.7211"/><polygon fill="#555555" points="116.8346,332.7211,120.8346,342.7211,124.8346,332.7211,120.8346,336.7211" style="stroke:#555555;stroke-width:1.0;"/><line style="stroke:#555555;stroke-width:1.0;" x1="739.7766" x2="739.7766" y1="208.5151" y2="228.5151"/><polygon fill="#555555" points="735.7766,218.5151,739.7766,228.5151,743.7766,218.5151,739.7766,222.5151" style="stroke:#555555;stroke-width:1.0;"/><!--SRC=[RPJDJXj13CVl-nGM74ZIG4Wf_GXgAnB8eLBf8Ied9EJCEicKoSngFa9ArHFttglU-W1z2JZmMFLCmh89MUKGZJr_sx-nlGEVJKugA1162ofyG0NyenbfEINjIHdRWPmy2Iy9TZ_0js0rUxJO3UqKuv6b6wDcQ2dRWThWrTwy2Ov4Hvcn57YP_AYUPUvAwW8jJi5DC3VNKezXXCfHnJ94SJMs9kYyPpWqU8lQiObJgNZbDCAWVDzeVuPJWW5PETfi7yWRWlP1nNXihRbUg6yVfc_T6Eyj7GxILyqT6SHC-k_m8mFe6fkJNVNbqxKYja-F- -r-boqLvNRw-En4ujJeV4NgyFXrzsslObnNxFVx1wVxJmwRX0SUhLyNF2qbogCkheNzMQrN6q_FQ-tkltdtihUfrZApJIazlKWxHOaPPfr6uoGssCCVIOt6XUPsuiT33qCRF1HaTmNcDbpecb3exc-vkuInJHZ6gB69XcPUFyfIebQE9vu3dHk5NghxsmxGN3f_VmkvGSjgaCGK-s3ELpZCmsy9T_yqZ5IOyoGeEQCzDfy58EUfcMnEQlxdl178MdiPwJoHoJ8vWbgPFe-2eXbgzlbO1pyX3JKTwgp6LukCkDcXbcCztkUEpKR6Nh6H2NnAOnNBzpWaXR2rjPmweozvajpMreNcGeoL0WfqSjRaDiz3eNZ6BC4Xk2DMMe40SFUBQOxvceq-Z7AAcc9sJP0ytDQCSHWf9UV8WUQ5iNvn2BNUuBo-1oT6XBGBy6RfsMe90hUB4Os_-pij67QhTGGwW20EX156q0bZIGhY6a4nIKK3Zb5gFeluJX-t3GWhlHHhw9RmMAh4bsGPO49t71VC_UqAkxHqc5byC_J1mNi-30p3yQQYFC9qlEGu73Am5-0q5cvY_2hKW_sDL0TXwCZ7fPdIXUGR2r_2OKdD012ug5p6XcdnkWJ3_94VCAWWryXqlfGsCBpqP4GDjQ-zThiU4t2SqI8shrkfXSmZBKkecd55SX57oTgfL5kjjTPeu8BIuxBs4LXzSMlvBiimvTEaOF593KiLF6i4GGTPndyUCctpnS9VYnejco961elYuhyq3ly1]--></g></svg>