<svg xmlns="http://www.w3.org/2000/svg" xmlns:xlink="http://www.w3.org/1999/xlink" contentStyleType="text/css" height="645px" preserveAspectRatio="none" style="width:780px;height:645px;" version="1.1" viewBox="0 0 780 645" width="780px" zoomAndPan="magnify"><defs/><g><!--cluster Modules--><g id="cluster_Modules"><path d="M10,193 L456.2924,193 A6,6 0 0 1 460.2924,197 L467.2924,216.706 L769,216.706 A4,4 0 0 1 773,220.706 L773,310 A4,4 0 0 1 769,314 L10,314 A4,4 0 0 1 6,310 L6,197 A4,4 0 0 1 10,193 " fill="#FFF3E0" style="stroke:#777777;stroke-width:1.5;"/><line style="stroke:#777777;stroke-width:1.5;" x1="6" x2="467.2924" y1="216.706" y2="216.706"/><text fill="#000000" font-family="Serif" font-size="13" font-weight="bold" lengthAdjust="spacing" textLength="448.2924" x="10" y="208.897">Module de inteligen&#539;&#259; artificial&#259;  (execu&#539;ie concurent&#259;, acela&#537;i GPU)</text></g><!--entity Face--><g id="elem_Face"><rect fill="#FFFFFF" height="69.032" rx="4" ry="4" style="stroke:#333333;stroke-width:0.5;" width="157.8521" x="599" y="229"/><text fill="#111111" font-family="Serif" font-size="13" font-weight="bold" lengthAdjust="spacing" textLength="137.8521" x="609" y="252.897">Recunoa&#537;tere facial&#259;</text><text fill="#111111" font-family="Serif" font-size="13" font-weight="bold" lengthAdjust="spacing" textLength="90.1031" x="609" y="270.603">&#537;i demografie</text><text fill="#111111" font-family="Serif" font-size="10" lengthAdjust="spacing" textLength="54.8799" x="609" y="285.102">InsightFace</text></g><!--entity Plate--><g id="elem_Plate"><rect fill="#FFFFFF" height="69.032" rx="4" ry="4" style="stroke:#333333;stroke-width:0.5;" width="162.1551" x="402" y="229"/><text fill="#111111" font-family="Serif" font-size="13" font-weight="bold" lengthAdjust="spacing" textLength="142.1551" x="412" y="252.897">Recunoa&#537;tere pl&#259;cu&#539;e</text><text fill="#111111" font-family="Serif" font-size="13" font-weight="bold" lengthAdjust="spacing" textLength="111.8391" x="412" y="270.603">de &#238;nmatriculare</text><text fill="#111111" font-family="Serif" font-size="10" lengthAdjust="spacing" textLength="91.6299" x="412" y="285.102">YOLOv8 + EasyOCR</text></g><!--entity Fire--><g id="elem_Fire"><rect fill="#FFFFFF" height="69.032" rx="4" ry="4" style="stroke:#333333;stroke-width:0.5;" width="84.5711" x="281.5" y="229"/><text fill="#111111" font-family="Serif" font-size="13" font-weight="bold" lengthAdjust="spacing" textLength="54.197" x="291.5" y="252.897">Detec&#539;ie</text><text fill="#111111" font-family="Serif" font-size="13" font-weight="bold" lengthAdjust="spacing" textLength="64.5711" x="291.5" y="270.603">foc &#537;i fum</text><text fill="#111111" font-family="Serif" font-size="10" lengthAdjust="spacing" textLength="27.32" x="291.5" y="285.102">YOLO</text></g><!--entity HAR--><g id="elem_HAR"><rect fill="#FFFFFF" height="69.032" rx="4" ry="4" style="stroke:#333333;stroke-width:0.5;" width="115.1471" x="131.5" y="229"/><text fill="#111111" font-family="Serif" font-size="13" font-weight="bold" lengthAdjust="spacing" textLength="89.8171" x="141.5" y="252.897">Recunoa&#537;tere</text><text fill="#111111" font-family="Serif" font-size="13" font-weight="bold" lengthAdjust="spacing" textLength="95.1471" x="141.5" y="270.603">ac&#539;iuni umane</text><text fill="#111111" font-family="Serif" font-size="10" lengthAdjust="spacing" textLength="63.3299" x="141.5" y="285.102">SlowFast-R50</text></g><!--entity Weapon--><g id="elem_Weapon"><rect fill="#FFFFFF" height="69.032" rx="4" ry="4" style="stroke:#333333;stroke-width:0.5;" width="74.197" x="22" y="229"/><text fill="#111111" font-family="Serif" font-size="13" font-weight="bold" lengthAdjust="spacing" textLength="54.197" x="32" y="252.897">Detec&#539;ie</text><text fill="#111111" font-family="Serif" font-size="13" font-weight="bold" lengthAdjust="spacing" textLength="34.827" x="32" y="270.603">arme</text><text fill="#111111" font-family="Serif" font-size="10" lengthAdjust="spacing" textLength="48.15" x="32" y="285.102">YOLOv8m</text></g><!--entity Video--><g id="elem_Video"><rect fill="#E0E0E0" height="51.326" rx="4" ry="4" style="stroke:#333333;stroke-width:0.5;" width="127.1799" x="260.5" y="7"/><text fill="#111111" font-family="Serif" font-size="13" font-weight="bold" lengthAdjust="spacing" textLength="69.3811" x="270.5" y="30.897">Flux video</text><text fill="#111111" font-family="Serif" font-size="10" lengthAdjust="spacing" textLength="107.1799" x="270.5" y="45.396">camere &#537;i fi&#537;iere video</text></g><!--entity Capture--><g id="elem_Capture"><rect fill="#D7E9FF" height="51.326" rx="4" ry="4" style="stroke:#333333;stroke-width:0.5;" width="268.1097" x="190" y="118"/><text fill="#111111" font-family="Serif" font-size="13" font-weight="bold" lengthAdjust="spacing" textLength="94.0551" x="200" y="141.897">Captur&#259; cadre</text><text fill="#111111" font-family="Serif" font-size="10" lengthAdjust="spacing" textLength="248.1097" x="200" y="156.396">fiecare cadru este transmis, &#238;n paralel, c&#259;tre module</text></g><!--entity Fusion--><g id="elem_Fusion"><rect fill="#D7E9FF" height="51.326" rx="4" ry="4" style="stroke:#333333;stroke-width:0.5;" width="197.7598" x="225" y="358"/><text fill="#111111" font-family="Serif" font-size="13" font-weight="bold" lengthAdjust="spacing" textLength="116.4281" x="235" y="381.897">Fuziune rezultate</text><text fill="#111111" font-family="Serif" font-size="10" lengthAdjust="spacing" textLength="177.7598" x="235" y="396.396">recombin&#259; detec&#539;iile pe fiecare cadru</text></g><!--entity Alarms--><g id="elem_Alarms"><rect fill="#FCE4EC" height="51.326" rx="4" ry="4" style="stroke:#333333;stroke-width:0.5;" width="198.9841" x="112.5" y="469"/><text fill="#111111" font-family="Serif" font-size="13" font-weight="bold" lengthAdjust="spacing" textLength="178.9841" x="122.5" y="492.897">Generare alarme &#537;i jurnale</text><text fill="#111111" font-family="Serif" font-size="10" lengthAdjust="spacing" textLength="111.4699" x="122.5" y="507.396">evenimente persistente</text></g><!--entity WS--><g id="elem_WS"><rect fill="#D7E9FF" height="51.326" rx="4" ry="4" style="stroke:#333333;stroke-width:0.5;" width="181.2521" x="346.5" y="469"/><text fill="#111111" font-family="Serif" font-size="13" font-weight="bold" lengthAdjust="spacing" textLength="161.2521" x="356.5" y="492.897">Difuzare c&#259;tre operatori</text><text fill="#111111" font-family="Serif" font-size="10" lengthAdjust="spacing" textLength="149.3598" x="356.5" y="507.396">flux video adnotat (WebSocket)</text></g><!--entity DB--><g id="elem_DB"><path d="M163,592 C163,582 212.156,582 212.156,582 C212.156,582 261.3121,582 261.3121,592 L261.3121,618.706 C261.3121,628.706 212.156,628.706 212.156,628.706 C212.156,628.706 163,628.706 163,618.706 L163,592 " fill="#E8F5E9" style="stroke:#2E7D32;stroke-width:0.5;"/><path d="M163,592 C163,602 212.156,602 212.156,602 C212.156,602 261.3121,602 261.3121,592 " fill="none" style="stroke:#2E7D32;stroke-width:0.5;"/><text fill="#111111" font-family="Serif" font-size="13" lengthAdjust="spacing" textLength="78.3121" x="173" y="619.897">Baz&#259; de date</text></g><!--entity Ops--><g id="elem_Ops"><rect fill="#E0E0E0" height="51.326" rx="4" ry="4" style="stroke:#333333;stroke-width:0.5;" width="85.2341" x="394.5" y="580"/><text fill="#111111" font-family="Serif" font-size="13" font-weight="bold" lengthAdjust="spacing" textLength="65.2341" x="404.5" y="603.897">Operatori</text><text fill="#111111" font-family="Serif" font-size="10" lengthAdjust="spacing" textLength="64.4099" x="404.5" y="618.396">interfa&#539;&#259; web</text></g><!--link Video to Capture--><g id="link_Video_Capture"><path d="M324,58.23 C324,76.07 324,94.05 324,111.86 " fill="none" id="Video-to-Capture" style="stroke:#555555;stroke-width:1.0;"/><polygon fill="#555555" points="324,117.86,328,108.86,324,112.86,320,108.86,324,117.86" style="stroke:#555555;stroke-width:1.0;"/></g><!--link Capture to Face--><g id="link_Capture_Face"><path d="M458.04,152.1 C499.11,157.94 543.56,167.95 582,185 C605.5,195.42 623.6314,209.0519 640.9714,224.9019 " fill="none" id="Capture-to-Face" style="stroke:#555555;stroke-width:1.0;"/><polygon fill="#555555" points="645.4,228.95,641.4558,219.9254,641.7095,225.5766,636.0583,225.8303,645.4,228.95" style="stroke:#555555;stroke-width:1.0;"/></g><!--link Capture to Plate--><g id="link_Capture_Plate"><path d="M361.41,169.16 C368.96,174.3 376.78,179.75 384,185 C403.06,198.87 418.9564,211.1049 436.4064,224.9249 " fill="none" id="Capture-to-Plate" style="stroke:#555555;stroke-width:1.0;"/><polygon fill="#555555" points="441.11,228.65,436.5381,219.9266,437.1904,225.5457,431.5712,226.198,441.11,228.65" style="stroke:#555555;stroke-width:1.0;"/></g><!--link Capture to Fire--><g id="link_Capture_Fire"><path d="M324,169.24 C324,186.54 324,203.85 324,222.84 " fill="none" id="Capture-to-Fire" style="stroke:#555555;stroke-width:1.0;"/><polygon fill="#555555" points="324,228.84,328,219.84,324,223.84,320,219.84,324,228.84" style="stroke:#555555;stroke-width:1.0;"/></g><!--link Capture to HAR--><g id="link_Capture_HAR"><path d="M285.05,169.06 C277.85,174.08 270.55,179.51 264,185 C248.07,198.35 235.9504,210.3104 222.6904,224.5404 " fill="none" id="Capture-to-HAR" style="stroke:#555555;stroke-width:1.0;"/><polygon fill="#555555" points="218.6,228.93,227.662,225.0725,222.0087,225.272,221.8092,219.6187,218.6,228.93" style="stroke:#555555;stroke-width:1.0;"/></g><!--link Capture to Weapon--><g id="link_Capture_Weapon"><path d="M189.88,154.63 C163.29,160.86 136.63,170.43 114,185 C97.49,195.63 87.4962,207.9508 78.2562,223.6308 " fill="none" id="Capture-to-Weapon" style="stroke:#555555;stroke-width:1.0;"/><polygon fill="#555555" points="75.21,228.8,83.2254,223.0769,77.7485,224.4923,76.3331,219.0154,75.21,228.8" style="stroke:#555555;stroke-width:1.0;"/></g><!--link Face to Fusion--><g id="link_Face_Fusion"><path d="M628.21,298.29 C613.77,306.98 597.66,315.65 582,322 C531.37,342.52 478.0764,355.8581 429.1864,365.5081 " fill="none" id="Face-to-Fusion" style="stroke:#555555;stroke-width:1.0;"/><polygon fill="#555555" points="423.3,366.67,432.9042,368.8515,428.2054,365.7018,431.3551,361.0029,423.3,366.67" style="stroke:#555555;stroke-width:1.0;"/></g><!--link Plate to Fusion--><g id="link_Plate_Fusion"><path d="M437.44,298.31 C411.83,317.31 385.2683,337.0346 362.0083,354.2946 " fill="none" id="Plate-to-Fusion" style="stroke:#555555;stroke-width:1.0;"/><polygon fill="#555555" points="357.19,357.87,366.8011,355.7191,361.2053,354.8905,362.0339,349.2946,357.19,357.87" style="stroke:#555555;stroke-width:1.0;"/></g><!--link Fire to Fusion--><g id="link_Fire_Fusion"><path d="M324,298.31 C324,317.25 324,334.44 324,351.68 " fill="none" id="Fire-to-Fusion" style="stroke:#555555;stroke-width:1.0;"/><polygon fill="#555555" points="324,357.68,328,348.68,324,352.68,320,348.68,324,357.68" style="stroke:#555555;stroke-width:1.0;"/></g><!--link HAR to Fusion--><g id="link_HAR_Fusion"><path d="M227.69,298.31 C249.35,317.25 271.3618,336.4921 291.0918,353.7321 " fill="none" id="HAR-to-Fusion" style="stroke:#555555;stroke-width:1.0;"/><polygon fill="#555555" points="295.61,357.68,291.4647,348.746,291.8449,354.39,286.2008,354.7702,295.61,357.68" style="stroke:#555555;stroke-width:1.0;"/></g><!--link Weapon to Fusion--><g id="link_Weapon_Fusion"><path d="M85.53,298.16 C93.85,306.95 103.6,315.71 114,322 C147.6,342.33 182.5407,354.6484 219.1707,363.8484 " fill="none" id="Weapon-to-Fusion" style="stroke:#555555;stroke-width:1.0;"/><polygon fill="#555555" points="224.99,365.31,217.2355,359.2381,220.1406,364.092,215.2867,366.9972,224.99,365.31" style="stroke:#555555;stroke-width:1.0;"/></g><!--link Fusion to Alarms--><g id="link_Fusion_Alarms"><path d="M298.59,409.23 C280.26,427.07 259.921,446.8665 241.611,464.6765 " fill="none" id="Fusion-to-Alarms" style="stroke:#555555;stroke-width:1.0;"/><polygon fill="#555555" points="237.31,468.86,246.5504,465.452,240.8941,465.3737,240.9724,459.7174,237.31,468.86" style="stroke:#555555;stroke-width:1.0;"/></g><!--link Fusion to WS--><g id="link_Fusion_WS"><path d="M349.64,409.23 C368.13,427.07 388.6709,446.8852 407.1409,464.6952 " fill="none" id="Fusion-to-WS" style="stroke:#555555;stroke-width:1.0;"/><polygon fill="#555555" points="411.46,468.86,407.7579,459.7334,407.8607,465.3894,402.2048,465.4922,411.46,468.86" style="stroke:#555555;stroke-width:1.0;"/></g><!--link Alarms to DB--><g id="link_Alarms_DB"><path d="M212,520.23 C212,538.7 212,557.74 212,575.72 " fill="none" id="Alarms-to-DB" style="stroke:#555555;stroke-width:1.0;"/><polygon fill="#555555" points="212,581.72,216,572.72,212,576.72,208,572.72,212,581.72" style="stroke:#555555;stroke-width:1.0;"/></g><!--link WS to Ops--><g id="link_WS_Ops"><path d="M437,520.23 C437,538.07 437,556.05 437,573.86 " fill="none" id="WS-to-Ops" style="stroke:#555555;stroke-width:1.0;"/><polygon fill="#555555" points="437,579.86,441,570.86,437,574.86,433,570.86,437,579.86" style="stroke:#555555;stroke-width:1.0;"/></g><!--SRC=[ZLNTJYCt5BwVfpY2YqrIqi9I18ksI25ajaXjWuXQLAbITJ9p9dZns95_O3TLhtYAQj-XBr4kUAmUUmRmfDbg7IcAxUFlEt_VoIkuCE9M68AI09N5UYuzzAx5udeewPPa7uPGIV_1os2nDBeWYsm-EizUGM-Cow_Xu1Wi5SVllNMY4WNV_bxhaYJriypU2BL4WpNOQoprdL0Bg51QIcxcMDmiZFQg76kf3JZ3Zl0LAPTObLIXboxNols4DS6CZAWsty_4Yc1lFxbiqOqY0qV9-SWOVTUmRX_4jNuPy5g3_RZIc0mL3jL24loH0PngKvBf6lFfMdJRar6-bv_oJGAz5rVsPuAzv7Uus81y65VxVkO-CljSot8JLPxd-vFT3co93kTeD-2-dXoUxR_UwF5HVZ1vyncFkGs-2mlE5HUEEoFkifVKR0q6EJSGt8gIz63mctfhkJx7Uxid1TUH7pp-9Q0I_1qsqUhjDy7aP0lGmY_XW7tO3P-iYyljvxnvk8S2IqCTx4fGwCHuuu6iewQlQc5tu9-_5OHqI98xK3pSEpRablMIKkO6dM3xx73o9izV8lqnch84e6Vzt0adlH7WbQYqgUaOOlStWfdZwk6-t-RagQHRBG3V2-L8YWMfnqyS1fge886IDz2Z3rJunq-2ez2gy44G3_SxW0L934bxT_5pFthQuDbOqqw2BXb0QJPs8RSLDj0XKOD1G2YfrWk3dAnEyiwLvG7WScPA4nBsiQbu_J_Jabc2wzHGSQ2SyXgT4OMNk5QgNwS_J6-Fu2kOeFqu7L-cb1SItMSvpyXH4VBJi5IwQ7h9r__1xuGHnjsNXD70Og3WueAlKNKzdqaU46ZTyF9WDsNuVdJvXJuZDyo6PDGfsXNXKgjdm4HokL-nPus21F4tj-4c-RLcXbOy8JcX7KOsrVLSA6wvidLEyBibzqkgeKu6lHN1eoTXTDZU4K_Py0nbY2uwzzuRnMhhyFA_Yn8rztJWCbQmHFbtIZCA09O37q- -dOpNQCv4vLVHkqQ_ca7GQIEwO-1vyW2MIdFmqBkY-KmND-JwdIpFNk9v7f9Rfq6_GQXyHD7kxBJhntGZRz2rgJ2g-excAT5qQL_6sNCbWvyjJLl2Pl0DXoTFWoXx6aZXB6YnSn2LqZKHQs-uBJlxfh6oBEewleXrpHhH9GTHCSa-z7UoRHiqESdQ3Wb7JHNJawjPrfOsx3YXdFlmYpEJ_Gi0]--></g></svg>