<svg xmlns="http://www.w3.org/2000/svg" xmlns:xlink="http://www.w3.org/1999/xlink" contentStyleType="text/css" height="1773px" preserveAspectRatio="none" style="width:542px;height:1773px;" version="1.1" viewBox="0 0 542 1773" width="542px" zoomAndPan="magnify"><defs/><g><ellipse cx="187.1346" cy="20" fill="#5A6B8C" rx="10" ry="10" style="stroke:#222222;stroke-width:1.0;"/><rect fill="#EAF1FB" height="37.706" rx="12.5" ry="12.5" style="stroke:#333333;stroke-width:0.5;" width="100.0411" x="137.114" y="50"/><text fill="#111111" font-family="Serif" font-size="13" font-weight="bold" lengthAdjust="spacing" textLength="80.0411" x="147.114" y="73.897">Cadru video</text><rect fill="#EAF1FB" height="73.118" rx="12.5" ry="12.5" style="stroke:#333333;stroke-width:0.5;" width="219.2497" x="77.5097" y="107.706"/><text fill="#111111" font-family="Serif" font-size="13" font-weight="bold" lengthAdjust="spacing" textLength="179.4131" x="87.5097" y="131.603">Detec&#539;ie pl&#259;cu&#539;e &#8212; YOLOv8</text><text fill="#111111" font-family="Serif" font-size="13" lengthAdjust="spacing" textLength="181.1408" x="87.5097" y="149.309">imgsz = 640, &#238;ncredere &#8805; 0,25</text><text fill="#111111" font-family="Serif" font-size="13" lengthAdjust="spacing" textLength="199.2497" x="87.5097" y="167.0151">&#8594; casete de &#238;ncadrare candidate</text><rect fill="none" height="1454.2771" style="stroke:#000000;stroke-width:1.5;" width="520.6984" x="11" y="190.8241"/><path d="M218.6521,190.8241 L218.6521,201.5301 L208.6521,211.5301 L11,211.5301 " fill="none" style="stroke:#000000;stroke-width:1.5;"/><text fill="#000000" font-family="Serif" font-size="13" lengthAdjust="spacing" textLength="197.6521" x="14" y="205.7211">pentru fiecare pl&#259;cu&#539;&#259; detectat&#259;</text><rect fill="#EAF1FB" height="55.412" rx="12.5" ry="12.5" style="stroke:#333333;stroke-width:0.5;" width="293.2472" x="40.511" y="228.5301"/><text fill="#111111" font-family="Serif" font-size="13" font-weight="bold" lengthAdjust="spacing" textLength="117.0131" x="50.511" y="252.4271">Expandare caset&#259;</text><text fill="#111111" font-family="Serif" font-size="13" lengthAdjust="spacing" textLength="44.2131" x="170.9041" y="252.4271">cu 20%</text><text fill="#111111" font-family="Serif" font-size="13" lengthAdjust="spacing" textLength="273.2472" x="50.511" y="270.1331">(include marginile pl&#259;cu&#539;ei + context vizual)</text><rect fill="#EAF1FB" height="55.412" rx="12.5" ry="12.5" style="stroke:#333333;stroke-width:0.5;" width="235.3914" x="69.4389" y="354.7951"/><text fill="#111111" font-family="Serif" font-size="13" font-weight="bold" lengthAdjust="spacing" textLength="68.2111" x="79.4389" y="378.6921">Up-scaling</text><text fill="#111111" font-family="Serif" font-size="13" lengthAdjust="spacing" textLength="53.2091" x="151.03" y="378.6921">bicubic (</text><text fill="#111111" font-family="monospace" font-size="13" lengthAdjust="spacing" textLength="86.0933" x="204.239" y="379.4352">INTER_CUBIC</text><text fill="#111111" font-family="Serif" font-size="13" lengthAdjust="spacing" textLength="4.498" x="290.3323" y="378.6921">)</text><text fill="#111111" font-family="Serif" font-size="13" lengthAdjust="spacing" textLength="202.7482" x="79.4389" y="396.3982">factor = 250 / l&#259;&#539;ime, limitat la &#215;3</text><polygon fill="#FFF3E0" points="135.349,303.9421,238.9201,303.9421,250.9201,315.9421,238.9201,327.9421,135.349,327.9421,123.349,315.9421,135.349,303.9421" style="stroke:#5A6B8C;stroke-width:0.5;"/><text fill="#333333" font-family="Serif" font-size="13" lengthAdjust="spacing" textLength="15.301" x="191.1346" y="341.8391">da</text><text fill="#111111" font-family="Serif" font-size="13" lengthAdjust="spacing" textLength="103.5711" x="135.349" y="320.9861">l&#259;&#539;ime &lt; 250 px ?</text><text fill="#333333" font-family="Serif" font-size="13" lengthAdjust="spacing" textLength="174.0311" x="250.9201" y="312.1331">nu &#8212; dimensiune suficient&#259;</text><polygon fill="#FFF3E0" points="187.1346,430.2072,199.1346,442.2072,187.1346,454.2072,175.1346,442.2072,187.1346,430.2072" style="stroke:#5A6B8C;stroke-width:0.5;"/><rect fill="#EAF1FB" height="37.706" rx="12.5" ry="12.5" style="stroke:#333333;stroke-width:0.5;" width="120.9191" x="126.675" y="474.2072"/><text fill="#111111" font-family="Serif" font-size="13" font-weight="bold" lengthAdjust="spacing" textLength="100.9191" x="136.675" y="498.1042">1. Tonuri de gri</text><rect fill="#EAF1FB" height="55.412" rx="12.5" ry="12.5" style="stroke:#333333;stroke-width:0.5;" width="248.4361" x="62.9165" y="531.9132"/><text fill="#111111" font-family="Serif" font-size="13" font-weight="bold" lengthAdjust="spacing" textLength="113.0351" x="72.9165" y="555.8102">2. Filtru bilateral</text><text fill="#111111" font-family="Serif" font-size="13" lengthAdjust="spacing" textLength="228.4361" x="72.9165" y="573.5162">reduce zgomotul, p&#259;streaz&#259; muchiile</text><rect fill="#EAF1FB" height="55.412" rx="12.5" ry="12.5" style="stroke:#333333;stroke-width:0.5;" width="328.2692" x="23" y="607.3252"/><text fill="#111111" font-family="Serif" font-size="13" font-weight="bold" lengthAdjust="spacing" textLength="60.5801" x="33" y="631.2222">3. CLAHE</text><text fill="#111111" font-family="Serif" font-size="13" lengthAdjust="spacing" textLength="308.2692" x="33" y="648.9282">egalizare local&#259; a contrastului (umbre, iluminare)</text><path d="M323.9296,675.4795 L323.9296,706.4433 L303.9296,710.4433 L323.9296,714.4433 L323.9296,745.407 A0,0 0 0 0 323.9296,745.407 L521.6984,745.407 A0,0 0 0 0 521.6984,745.407 L521.6984,685.4795 L511.6984,675.4795 L323.9296,675.4795 A0,0 0 0 0 323.9296,675.4795 " fill="#FFF3E0" style="stroke:#B0792C;stroke-width:0.5;"/><path d="M511.6984,675.4795 L511.6984,685.4795 L521.6984,685.4795 L511.6984,675.4795 " fill="#FFF3E0" style="stroke:#B0792C;stroke-width:0.5;"/><text fill="#111111" font-family="Serif" font-size="11" lengthAdjust="spacing" textLength="69.5084" x="329.9296" y="692.2384">Preprocesare</text><text fill="#111111" font-family="Serif" font-size="11" font-weight="bold" lengthAdjust="spacing" textLength="85.2714" x="402.2981" y="692.2384">f&#259;r&#259; binarizare</text><text fill="#111111" font-family="Serif" font-size="11" lengthAdjust="spacing" textLength="3.146" x="487.5694" y="692.2384">:</text><text fill="#111111" font-family="Serif" font-size="11" lengthAdjust="spacing" textLength="176.7687" x="329.9296" y="707.2203">modelul CRNN din EasyOCR ofer&#259;</text><text fill="#111111" font-family="Serif" font-size="11" lengthAdjust="spacing" textLength="171.4447" x="329.9296" y="722.2022">rezultate mai bune pe imagini &#238;n</text><text fill="#111111" font-family="Serif" font-size="11" lengthAdjust="spacing" textLength="117.7981" x="329.9296" y="737.1841">tonuri de gri continue.</text><rect fill="#EAF1FB" height="55.412" rx="12.5" ry="12.5" style="stroke:#333333;stroke-width:0.5;" width="233.5901" x="70.3395" y="682.7372"/><text fill="#111111" font-family="Serif" font-size="13" font-weight="bold" lengthAdjust="spacing" textLength="109.4341" x="80.3395" y="706.6343">4. Unsharp mask</text><text fill="#111111" font-family="Serif" font-size="13" lengthAdjust="spacing" textLength="213.5901" x="80.3395" y="724.3403">accentueaz&#259; muchiile caracterelor</text><rect fill="#EAF1FB" height="55.412" rx="12.5" ry="12.5" style="stroke:#333333;stroke-width:0.5;" width="242.0012" x="66.134" y="765.407"/><text fill="#111111" font-family="Serif" font-size="13" font-weight="bold" lengthAdjust="spacing" textLength="58.2531" x="76.134" y="789.304">EasyOCR</text><text fill="#111111" font-family="Serif" font-size="13" lengthAdjust="spacing" textLength="160.3681" x="137.7671" y="789.304">pe imaginea preprocesat&#259;</text><text fill="#111111" font-family="Serif" font-size="13" lengthAdjust="spacing" textLength="221.3888" x="76.134" y="807.0101">allowlist A-Z / 0-9 &#8594; text + &#238;ncredere</text><rect fill="#EAF1FB" height="37.706" rx="12.5" ry="12.5" style="stroke:#333333;stroke-width:0.5;" width="295.6392" x="39.315" y="891.6721"/><text fill="#111111" font-family="Serif" font-size="13" font-weight="bold" lengthAdjust="spacing" textLength="174.1482" x="49.315" y="915.5691">Re-OCR pe decupajul color</text><text fill="#111111" font-family="Serif" font-size="13" lengthAdjust="spacing" textLength="98.1111" x="226.8431" y="915.5691">(nepreprocesat)</text><rect fill="#EAF1FB" height="37.706" rx="12.5" ry="12.5" style="stroke:#333333;stroke-width:0.5;" width="292.5452" x="40.862" y="964.3781"/><text fill="#111111" font-family="Serif" font-size="13" lengthAdjust="spacing" textLength="272.5452" x="50.862" y="988.2751">Se p&#259;streaz&#259; citirea cu &#238;ncrederea mai mare</text><polygon fill="#FFF3E0" points="99.5795,840.8191,274.6897,840.8191,286.6897,852.8191,274.6897,864.8191,99.5795,864.8191,87.5795,852.8191,99.5795,840.8191" style="stroke:#5A6B8C;stroke-width:0.5;"/><text fill="#333333" font-family="Serif" font-size="13" lengthAdjust="spacing" textLength="84.5391" x="191.1346" y="878.7161">da &#8212; fallback</text><text fill="#111111" font-family="Serif" font-size="13" lengthAdjust="spacing" textLength="175.1102" x="99.5795" y="857.8631">text gol sau &#238;ncredere &lt; 0,4 ?</text><text fill="#333333" font-family="Serif" font-size="13" lengthAdjust="spacing" textLength="16.64" x="286.6897" y="849.0101">nu</text><polygon fill="#FFF3E0" points="187.1346,1022.0841,199.1346,1034.0841,187.1346,1046.0841,175.1346,1034.0841,187.1346,1022.0841" style="stroke:#5A6B8C;stroke-width:0.5;"/><rect fill="#EAF1FB" height="55.412" rx="12.5" ry="12.5" style="stroke:#333333;stroke-width:0.5;" width="304.1008" x="35.0842" y="1066.0841"/><text fill="#111111" font-family="Serif" font-size="13" font-weight="bold" lengthAdjust="spacing" textLength="161.5382" x="45.0842" y="1089.9811">Asociere cu o traiectorie</text><text fill="#111111" font-family="Serif" font-size="13" lengthAdjust="spacing" textLength="13" x="210.0023" y="1089.9811">&#8212;</text><text fill="#111111" font-family="monospace" font-size="13" lengthAdjust="spacing" textLength="93.9199" x="226.3824" y="1090.7242">PlateTracker</text><text fill="#111111" font-family="Serif" font-size="13" lengthAdjust="spacing" textLength="284.1008" x="45.0842" y="1107.6871">IoU &#8805; 0,3 cu un track existent, altfel track nou</text><rect fill="#EAF1FB" height="55.412" rx="12.5" ry="12.5" style="stroke:#333333;stroke-width:0.5;" width="168.1871" x="103.041" y="1203.7612"/><text fill="#111111" font-family="Serif" font-size="13" lengthAdjust="spacing" textLength="148.1871" x="113.041" y="1227.6582">Adaug&#259; citirea &#238;n istoric</text><text fill="#111111" font-family="Serif" font-size="13" lengthAdjust="spacing" textLength="111.1111" x="113.041" y="1245.3642">(ultimele 10 citiri)</text><polygon fill="#FFF3E0" points="69.6802,1141.4961,304.589,1141.4961,316.589,1159.2022,304.589,1176.9082,69.6802,1176.9082,57.6802,1159.2022,69.6802,1141.4961" style="stroke:#5A6B8C;stroke-width:0.5;"/><text fill="#333333" font-family="Serif" font-size="13" lengthAdjust="spacing" textLength="15.301" x="191.1346" y="1190.8052">da</text><text fill="#111111" font-family="Serif" font-size="13" lengthAdjust="spacing" textLength="77.8051" x="69.6802" y="1155.3932">citire valid&#259;:</text><text fill="#111111" font-family="Serif" font-size="13" lengthAdjust="spacing" textLength="234.9088" x="69.6802" y="1173.0992">nevid&#259;, &#238;ncredere &#8805; 0,4 &#537;i format RO ?</text><text fill="#333333" font-family="Serif" font-size="13" lengthAdjust="spacing" textLength="124.8001" x="316.589" y="1155.3932">nu &#8212; citire respins&#259;</text><polygon fill="#FFF3E0" points="187.1346,1279.1732,199.1346,1291.1732,187.1346,1303.1732,175.1346,1291.1732,187.1346,1279.1732" style="stroke:#5A6B8C;stroke-width:0.5;"/><rect fill="#EAF1FB" height="52.8388" rx="12.5" ry="12.5" style="stroke:#333333;stroke-width:0.5;" width="200.0132" x="87.128" y="1385.4383"/><text fill="#111111" font-family="Serif" font-size="13" font-weight="bold" lengthAdjust="spacing" textLength="154.8431" x="97.128" y="1409.3353">C&#259;utare &#238;n baza de date</text><text fill="#111111" font-family="monospace" font-size="13" lengthAdjust="spacing" textLength="180.0132" x="97.128" y="1425.2112">lookup_owner_by_plate()</text><polygon fill="#FFF3E0" points="120.4055,1458.2771,253.8636,1458.2771,265.8636,1475.9831,253.8636,1493.6891,120.4055,1493.6891,108.4055,1475.9831,120.4055,1458.2771" style="stroke:#5A6B8C;stroke-width:0.5;"/><text fill="#111111" font-family="Serif" font-size="13" lengthAdjust="spacing" textLength="133.4581" x="120.4055" y="1472.1741">proprietar &#238;nregistrat</text><text fill="#111111" font-family="Serif" font-size="13" lengthAdjust="spacing" textLength="79.4171" x="120.4055" y="1489.8801">&#537;i autorizat ?</text><text fill="#333333" font-family="Serif" font-size="13" lengthAdjust="spacing" textLength="15.301" x="93.1045" y="1472.1741">da</text><text fill="#333333" font-family="Serif" font-size="13" lengthAdjust="spacing" textLength="16.64" x="265.8636" y="1472.1741">nu</text><rect fill="#E8F5E9" height="55.412" rx="12.5" ry="12.5" style="stroke:#333333;stroke-width:0.5;" width="125.4301" x="27.3847" y="1503.6891"/><text fill="#111111" font-family="Serif" font-size="13" lengthAdjust="spacing" textLength="40.014" x="37.3847" y="1527.5861">Caset&#259;</text><text fill="#111111" font-family="Serif" font-size="13" font-weight="bold" lengthAdjust="spacing" textLength="37.96" x="80.7788" y="1527.5861">verde</text><text fill="#111111" font-family="Serif" font-size="13" lengthAdjust="spacing" textLength="105.4301" x="37.3847" y="1545.2921">vehicul autorizat</text><rect fill="#FDE0E0" height="55.412" rx="12.5" ry="12.5" style="stroke:#333333;stroke-width:0.5;" width="222.7092" x="172.8148" y="1503.6891"/><text fill="#111111" font-family="Serif" font-size="13" lengthAdjust="spacing" textLength="40.014" x="182.8148" y="1527.5861">Caset&#259;</text><text fill="#111111" font-family="Serif" font-size="13" font-weight="bold" lengthAdjust="spacing" textLength="33.111" x="226.2088" y="1527.5861">ro&#537;ie</text><text fill="#111111" font-family="Serif" font-size="13" lengthAdjust="spacing" textLength="202.7092" x="182.8148" y="1545.2921">UNKNOWN / vehicul neautorizat</text><polygon fill="#FFF3E0" points="187.1346,1565.1012,199.1346,1577.1012,187.1346,1589.1012,175.1346,1577.1012,187.1346,1565.1012" style="stroke:#5A6B8C;stroke-width:0.5;"/><polygon fill="#FFF3E0" points="128.7588,1323.1732,245.5104,1323.1732,257.5104,1340.8792,245.5104,1358.5852,128.7588,1358.5852,116.7588,1340.8792,128.7588,1323.1732" style="stroke:#5A6B8C;stroke-width:0.5;"/><text fill="#333333" font-family="Serif" font-size="13" lengthAdjust="spacing" textLength="143.5461" x="191.1346" y="1372.4823">da &#8212; rezultat stabilizat</text><text fill="#111111" font-family="Serif" font-size="13" lengthAdjust="spacing" textLength="111.0707" x="128.7588" y="1337.0702">&#8805; 3 citiri valide &#536;I</text><text fill="#111111" font-family="Serif" font-size="13" lengthAdjust="spacing" textLength="116.7517" x="128.7588" y="1354.7762">vot majoritar &#8805; 3 ?</text><text fill="#333333" font-family="Serif" font-size="13" lengthAdjust="spacing" textLength="136.4481" x="257.5104" y="1337.0702">nu &#8212; &#238;nc&#259; &#238;n evaluare</text><polygon fill="#FFF3E0" points="187.1346,1609.1012,199.1346,1621.1012,187.1346,1633.1012,175.1346,1621.1012,187.1346,1609.1012" style="stroke:#5A6B8C;stroke-width:0.5;"/><rect fill="#EAF1FB" height="55.412" rx="12.5" ry="12.5" style="stroke:#333333;stroke-width:0.5;" width="184.1901" x="95.0395" y="1665.1012"/><text fill="#111111" font-family="Serif" font-size="13" lengthAdjust="spacing" textLength="164.1901" x="105.0395" y="1688.9982">Rezultatele sunt transmise</text><text fill="#111111" font-family="Serif" font-size="13" lengthAdjust="spacing" textLength="108.9271" x="105.0395" y="1706.7042">firului de fuziune</text><ellipse cx="187.1346" cy="1751.5132" fill="none" rx="11" ry="11" style="stroke:#222222;stroke-width:1.0;"/><ellipse cx="187.1346" cy="1751.5132" fill="#222222" rx="6" ry="6" style="stroke:#222222;stroke-width:1.0;"/><line style="stroke:#555555;stroke-width:1.0;" x1="187.1346" x2="187.1346" y1="30" y2="50"/><polygon fill="#555555" points="183.1346,40,187.1346,50,191.1346,40,187.1346,44" style="stroke:#555555;stroke-width:1.0;"/><line style="stroke:#555555;stroke-width:1.0;" x1="187.1346" x2="187.1346" y1="87.706" y2="107.706"/><polygon fill="#555555" points="183.1346,97.706,187.1346,107.706,191.1346,97.706,187.1346,101.706" style="stroke:#555555;stroke-width:1.0;"/><line style="stroke:#555555;stroke-width:1.0;" x1="187.1346" x2="187.1346" y1="327.9421" y2="354.7951"/><polygon fill="#555555" points="183.1346,344.7951,187.1346,354.7951,191.1346,344.7951,187.1346,348.7951" style="stroke:#555555;stroke-width:1.0;"/><line style="stroke:#555555;stroke-width:1.0;" x1="250.9201" x2="314.8303" y1="315.9421" y2="315.9421"/><polygon fill="#555555" points="310.8303,372.5011,314.8303,382.5011,318.8303,372.5011,314.8303,376.5011" style="stroke:#555555;stroke-width:1.0;"/><line style="stroke:#555555;stroke-width:1.0;" x1="314.8303" x2="314.8303" y1="315.9421" y2="442.2072"/><line style="stroke:#555555;stroke-width:1.0;" x1="314.8303" x2="199.1346" y1="442.2072" y2="442.2072"/><polygon fill="#555555" points="209.1346,438.2072,199.1346,442.2072,209.1346,446.2072,205.1346,442.2072" style="stroke:#555555;stroke-width:1.0;"/><line style="stroke:#555555;stroke-width:1.0;" x1="187.1346" x2="187.1346" y1="410.2072" y2="430.2072"/><polygon fill="#555555" points="183.1346,420.2072,187.1346,430.2072,191.1346,420.2072,187.1346,424.2072" style="stroke:#555555;stroke-width:1.0;"/><line style="stroke:#555555;stroke-width:1.0;" x1="187.1346" x2="187.1346" y1="283.9421" y2="303.9421"/><polygon fill="#555555" points="183.1346,293.9421,187.1346,303.9421,191.1346,293.9421,187.1346,297.9421" style="stroke:#555555;stroke-width:1.0;"/><line style="stroke:#555555;stroke-width:1.0;" x1="187.1346" x2="187.1346" y1="454.2072" y2="474.2072"/><polygon fill="#555555" points="183.1346,464.2072,187.1346,474.2072,191.1346,464.2072,187.1346,468.2072" style="stroke:#555555;stroke-width:1.0;"/><line style="stroke:#555555;stroke-width:1.0;" x1="187.1346" x2="187.1346" y1="511.9132" y2="531.9132"/><polygon fill="#555555" points="183.1346,521.9132,187.1346,531.9132,191.1346,521.9132,187.1346,525.9132" style="stroke:#555555;stroke-width:1.0;"/><line style="stroke:#555555;stroke-width:1.0;" x1="187.1346" x2="187.1346" y1="587.3252" y2="607.3252"/><polygon fill="#555555" points="183.1346,597.3252,187.1346,607.3252,191.1346,597.3252,187.1346,601.3252" style="stroke:#555555;stroke-width:1.0;"/><line style="stroke:#555555;stroke-width:1.0;" x1="187.1346" x2="187.1346" y1="662.7372" y2="682.7372"/><polygon fill="#555555" points="183.1346,672.7372,187.1346,682.7372,191.1346,672.7372,187.1346,676.7372" style="stroke:#555555;stroke-width:1.0;"/><line style="stroke:#555555;stroke-width:1.0;" x1="187.1346" x2="187.1346" y1="738.1493" y2="765.407"/><polygon fill="#555555" points="183.1346,755.407,187.1346,765.407,191.1346,755.407,187.1346,759.407" style="stroke:#555555;stroke-width:1.0;"/><line style="stroke:#555555;stroke-width:1.0;" x1="187.1346" x2="187.1346" y1="929.3781" y2="964.3781"/><polygon fill="#555555" points="183.1346,954.3781,187.1346,964.3781,191.1346,954.3781,187.1346,958.3781" style="stroke:#555555;stroke-width:1.0;"/><line style="stroke:#555555;stroke-width:1.0;" x1="187.1346" x2="187.1346" y1="864.8191" y2="891.6721"/><polygon fill="#555555" points="183.1346,881.6721,187.1346,891.6721,191.1346,881.6721,187.1346,885.6721" style="stroke:#555555;stroke-width:1.0;"/><line style="stroke:#555555;stroke-width:1.0;" x1="286.6897" x2="344.9542" y1="852.8191" y2="852.8191"/><polygon fill="#555555" points="340.9542,936.8781,344.9542,946.8781,348.9542,936.8781,344.9542,940.8781" style="stroke:#555555;stroke-width:1.0;"/><line style="stroke:#555555;stroke-width:1.0;" x1="344.9542" x2="344.9542" y1="852.8191" y2="1034.0841"/><line style="stroke:#555555;stroke-width:1.0;" x1="344.9542" x2="199.1346" y1="1034.0841" y2="1034.0841"/><polygon fill="#555555" points="209.1346,1030.0841,199.1346,1034.0841,209.1346,1038.0841,205.1346,1034.0841" style="stroke:#555555;stroke-width:1.0;"/><line style="stroke:#555555;stroke-width:1.0;" x1="187.1346" x2="187.1346" y1="1002.0841" y2="1022.0841"/><polygon fill="#555555" points="183.1346,1012.0841,187.1346,1022.0841,191.1346,1012.0841,187.1346,1016.0841" style="stroke:#555555;stroke-width:1.0;"/><line style="stroke:#555555;stroke-width:1.0;" x1="187.1346" x2="187.1346" y1="820.8191" y2="840.8191"/><polygon fill="#555555" points="183.1346,830.8191,187.1346,840.8191,191.1346,830.8191,187.1346,834.8191" style="stroke:#555555;stroke-width:1.0;"/><line style="stroke:#555555;stroke-width:1.0;" x1="187.1346" x2="187.1346" y1="1046.0841" y2="1066.0841"/><polygon fill="#555555" points="183.1346,1056.0841,187.1346,1066.0841,191.1346,1056.0841,187.1346,1060.0841" style="stroke:#555555;stroke-width:1.0;"/><line style="stroke:#555555;stroke-width:1.0;" x1="187.1346" x2="187.1346" y1="1176.9082" y2="1203.7612"/><polygon fill="#555555" points="183.1346,1193.7612,187.1346,1203.7612,191.1346,1193.7612,187.1346,1197.7612" style="stroke:#555555;stroke-width:1.0;"/><line style="stroke:#555555;stroke-width:1.0;" x1="316.589" x2="328.589" y1="1159.2022" y2="1159.2022"/><polygon fill="#555555" points="324.589,1218.6142,328.589,1228.6142,332.589,1218.6142,328.589,1222.6142" style="stroke:#555555;stroke-width:1.0;"/><line style="stroke:#555555;stroke-width:1.0;" x1="328.589" x2="328.589" y1="1159.2022" y2="1291.1732"/><line style="stroke:#555555;stroke-width:1.0;" x1="328.589" x2="199.1346" y1="1291.1732" y2="1291.1732"/><polygon fill="#555555" points="209.1346,1287.1732,199.1346,1291.1732,209.1346,1295.1732,205.1346,1291.1732" style="stroke:#555555;stroke-width:1.0;"/><line style="stroke:#555555;stroke-width:1.0;" x1="187.1346" x2="187.1346" y1="1259.1732" y2="1279.1732"/><polygon fill="#555555" points="183.1346,1269.1732,187.1346,1279.1732,191.1346,1269.1732,187.1346,1273.1732" style="stroke:#555555;stroke-width:1.0;"/><line style="stroke:#555555;stroke-width:1.0;" x1="187.1346" x2="187.1346" y1="1121.4961" y2="1141.4961"/><polygon fill="#555555" points="183.1346,1131.4961,187.1346,1141.4961,191.1346,1131.4961,187.1346,1135.4961" style="stroke:#555555;stroke-width:1.0;"/><line style="stroke:#555555;stroke-width:1.0;" x1="108.4055" x2="90.0998" y1="1475.9831" y2="1475.9831"/><line style="stroke:#555555;stroke-width:1.0;" x1="90.0998" x2="90.0998" y1="1475.9831" y2="1503.6891"/><polygon fill="#555555" points="86.0998,1493.6891,90.0998,1503.6891,94.0998,1493.6891,90.0998,1497.6891" style="stroke:#555555;stroke-width:1.0;"/><line style="stroke:#555555;stroke-width:1.0;" x1="265.8636" x2="284.1694" y1="1475.9831" y2="1475.9831"/><line style="stroke:#555555;stroke-width:1.0;" x1="284.1694" x2="284.1694" y1="1475.9831" y2="1503.6891"/><polygon fill="#555555" points="280.1694,1493.6891,284.1694,1503.6891,288.1694,1493.6891,284.1694,1497.6891" style="stroke:#555555;stroke-width:1.0;"/><line style="stroke:#555555;stroke-width:1.0;" x1="90.0998" x2="90.0998" y1="1559.1012" y2="1577.1012"/><line style="stroke:#555555;stroke-width:1.0;" x1="90.0998" x2="175.1346" y1="1577.1012" y2="1577.1012"/><polygon fill="#555555" points="165.1346,1573.1012,175.1346,1577.1012,165.1346,1581.1012,169.1346,1577.1012" style="stroke:#555555;stroke-width:1.0;"/><line style="stroke:#555555;stroke-width:1.0;" x1="284.1694" x2="284.1694" y1="1559.1012" y2="1577.1012"/><line style="stroke:#555555;stroke-width:1.0;" x1="284.1694" x2="199.1346" y1="1577.1012" y2="1577.1012"/><polygon fill="#555555" points="209.1346,1573.1012,199.1346,1577.1012,209.1346,1581.1012,205.1346,1577.1012" style="stroke:#555555;stroke-width:1.0;"/><line style="stroke:#555555;stroke-width:1.0;" x1="187.1346" x2="187.1346" y1="1438.2771" y2="1458.2771"/><polygon fill="#555555" points="183.1346,1448.2771,187.1346,1458.2771,191.1346,1448.2771,187.1346,1452.2771" style="stroke:#555555;stroke-width:1.0;"/><line style="stroke:#555555;stroke-width:1.0;" x1="187.1346" x2="187.1346" y1="1358.5852" y2="1385.4383"/><polygon fill="#555555" points="183.1346,1375.4383,187.1346,1385.4383,191.1346,1375.4383,187.1346,1379.4383" style="stroke:#555555;stroke-width:1.0;"/><line style="stroke:#555555;stroke-width:1.0;" x1="257.5104" x2="415.524" y1="1340.8792" y2="1340.8792"/><polygon fill="#555555" points="411.524,1466.9167,415.524,1476.9167,419.524,1466.9167,415.524,1470.9167" style="stroke:#555555;stroke-width:1.0;"/><line style="stroke:#555555;stroke-width:1.0;" x1="415.524" x2="415.524" y1="1340.8792" y2="1621.1012"/><line style="stroke:#555555;stroke-width:1.0;" x1="415.524" x2="199.1346" y1="1621.1012" y2="1621.1012"/><polygon fill="#555555" points="209.1346,1617.1012,199.1346,1621.1012,209.1346,1625.1012,205.1346,1621.1012" style="stroke:#555555;stroke-width:1.0;"/><line style="stroke:#555555;stroke-width:1.0;" x1="187.1346" x2="187.1346" y1="1589.1012" y2="1609.1012"/><polygon fill="#555555" points="183.1346,1599.1012,187.1346,1609.1012,191.1346,1599.1012,187.1346,1603.1012" style="stroke:#555555;stroke-width:1.0;"/><line style="stroke:#555555;stroke-width:1.0;" x1="187.1346" x2="187.1346" y1="1303.1732" y2="1323.1732"/><polygon fill="#555555" points="183.1346,1313.1732,187.1346,1323.1732,191.1346,1313.1732,187.1346,1317.1732" style="stroke:#555555;stroke-width:1.0;"/><line style="stroke:#555555;stroke-width:1.0;" x1="187.1346" x2="187.1346" y1="180.8241" y2="228.5301"/><polygon fill="#555555" points="183.1346,218.5301,187.1346,228.5301,191.1346,218.5301,187.1346,222.5301" style="stroke:#555555;stroke-width:1.0;"/><line style="stroke:#555555;stroke-width:1.0;" x1="187.1346" x2="187.1346" y1="1633.1012" y2="1665.1012"/><polygon fill="#555555" points="183.1346,1655.1012,187.1346,1665.1012,191.1346,1655.1012,187.1346,1659.1012" style="stroke:#555555;stroke-width:1.0;"/><line style="stroke:#555555;stroke-width:1.0;" x1="187.1346" x2="187.1346" y1="1720.5132" y2="1740.5132"/><polygon fill="#555555" points="183.1346,1730.5132,187.1346,1740.5132,191.1346,1730.5132,187.1346,1734.5132" style="stroke:#555555;stroke-width:1.0;"/><!--SRC=[RLPTQnj757tthxXiA94KsvKjEqtaX28h4Z4DSf1ZIel0Z6P7yiIpCyliZEoe50g2GbzBeGrvxcl_HFJWtv5VqZEZ3wyLhp68dNlFlVVSS-_iO-egV-CLPIRr2d-IKa5MSAyDk_teX1N4A5Vp6VUtduGoDfn__azdp5d9lM8mgBHwR_lLhSTKQRDybmwRL0ZUZ8WNkMBSEr7TsYgkfCwPPHaLbomrrrAFQSHK8KedGyQlnjPudRPDYEKiqmMEX7ObgrICc5UkQxJhiKpGcR1ozF3vcPmAsckK3blMcki5-gF3-6mU1h-bGIC-vTmPTt8YtGVwPOlesDXKsFksUBjHnADEgxlNFSP92NalFdZtIhBCwFGUr67hwV6pTkbm4x7RxJOwzJk3Xu3F7BDk4x2pXbY_EcORONyjrwkD4r_NUbp_xlb- -w5QrvazbD9TH_PYb93XLhDMQxFKUfh8L9XQxMWhl7ebdE2tdwIu4nzz-Uql-kdqpUdaMQqsq38R5rDwIKyFwjj1aToADCZron__Kdrx_t2Wl_p-9t5M06afMeuuGR2SwLIcp0d4GfbEEcaq9JbaXZn6Kl1WjGeydy4TsJZcvhC4PA0IPDYvoG6pW4EC-QnM8-vfl_xDG5UavieZQCRiM6gfIcL8Ua8SH8WRXvAddgdgKO2K8wh01ZL3qYze_x1E-GrzNoLtAJHLKbQ5KOnydkyKd2aC448ECONufqgIdFJUTVeNxVFZatQIL0Tw1B62_vSHwrjQWM-Jafb4DQGOVVwxSGHSWJcaYlQHunH6kf1U2ohyI789NkQp45w0jz6o_hrTUcUqjt5ZZAqCdOi7-xlKbIemEPGA95kcGh_G7iy5JSScCywhRShdiy9PmQOWEFFyKeAc9KHZbzflMgyxmK-CKUeqyAmCgeOnY_nPLhYui2e-6rfK9PNFf8PXTOboi4ld6il6vkX3SHN06ESenjyFYWPQK0NnGAx1DuhUol6bYvI_jIAtXeiY956hZUOp2-zXY1KJgzMQqGuRJs27KhlVwu54JHrMV3XjzycC13oYZHLJh2QmWfGa3GF7kI2PiI2JeD5evSh4ncgbzc9tqO6Otag4YmZGmHf5O5-l4qRVKBHIvbh9mb5hvsS8eRxpdC9iH0a-AStEMeVnP6mK5SoNP-i59kkWhCce5snn5JRtMg1ziHFApiFSSP-pzo25Xrs0F2jQbDABhOBFcRWd1uw9nCymJtVHMQGC4oNAYjsKPQim46oOIaycN22OPao1H9TYiadoDeZo7Jf-9MoI3FI9ELykZKPmyZfuyIiIDw0CQjacfjn8gELhRVoQfqMUD852q_ciET1QJCAl1nRI0Tr-b3Go5ZSdzKyV6EnMolouL3mW21aWTuwD0jLWB27MlVh2GbQ_6jnbEbOKkTJ5niY6V4CgZQNx8cj1j_-S3FJ4E33x7h6masbXjjdcbNG9UnkJ3UcxTSVRyvbtOJn2qaCsPK6xOSE6eKiIPSoLpo_CjHRsOlWXV1KuKQacoQBz8JKe8aUNGdXWM356wPQvWGwqCHzeGC2lQIFShy-wXvtdpVPY3MD29m9tLOWy4PVX8-NEVn6lh9s8q7tLgNVg9GHh43P2dFT-w9t-sCFOhC0mOHjmaUADNWG102hm8S2q3tjftGvSVit-QXEei6QrMtpiPB8GsDpIhhx5HduQDl4HRakJR_qF]--></g></svg>