<svg xmlns="http://www.w3.org/2000/svg" xmlns:xlink="http://www.w3.org/1999/xlink" contentStyleType="text/css" data-diagram-type="DESCRIPTION" height="1227px" preserveAspectRatio="none" style="width:930px;height:1227px;background:#FFFFFF;" version="1.1" viewBox="0 0 930 1227" width="930px" zoomAndPan="magnify"><defs/><g><!--cluster Sistem de Supraveghere Inteligent?--><g class="cluster" data-entity="Sistem de Supraveghere Inteligent." data-source-line="8" data-uid="ent0004" id="cluster_Sistem de Supraveghere Inteligent."><rect fill="none" height="1120" rx="2.5" ry="2.5" style="stroke:#181818;stroke-width:1;" width="811" x="113" y="7"/><text fill="#000000" font-family="sans-serif" font-size="14" font-weight="bold" lengthAdjust="spacing" textLength="251.2851" x="392.8575" y="23.9659">Sistem de Supraveghere Inteligent&#259;</text></g><!--cluster Administrare (doar Administrator)--><g class="cluster" data-entity="Administrare .doar Administrator." data-source-line="21" data-uid="ent0011" id="cluster_Administrare .doar Administrator."><rect fill="none" height="627" rx="2.5" ry="2.5" style="stroke:#181818;stroke-width:1;" width="259" x="379" y="476"/><text fill="#000000" font-family="sans-serif" font-size="14" font-weight="bold" lengthAdjust="spacing" textLength="240.5471" x="388.2265" y="492.9659">Administrare (doar Administrator)</text></g><!--entity UC1--><g class="entity" data-entity="UC1" data-source-line="11" data-uid="ent0005" id="entity_UC1"><ellipse cx="825.3027" cy="590.0032" fill="#F1F1F1" rx="82.3027" ry="27.5032" style="stroke:#181818;stroke-width:0.5;"/><text fill="#000000" font-family="sans-serif" font-size="14" lengthAdjust="spacing" textLength="123.4235" x="763.591" y="590.1821">UC1 - Autentificare</text><text fill="#000000" font-family="sans-serif" font-size="14" lengthAdjust="spacing" textLength="58.9678" x="795.8188" y="609.25">&#238;n sistem</text></g><!--entity UC2--><g class="entity" data-entity="UC2" data-source-line="14" data-uid="ent0006" id="entity_UC2"><ellipse cx="508.7341" cy="251.9431" fill="#F1F1F1" rx="106.7341" ry="28.4431" style="stroke:#181818;stroke-width:0.5;"/><text fill="#000000" font-family="sans-serif" font-size="14" lengthAdjust="spacing" textLength="155.4834" x="430.9924" y="250.6656">UC2 - Vizualizare fluxuri</text><text fill="#000000" font-family="sans-serif" font-size="14" lengthAdjust="spacing" textLength="113.5956" x="451.9363" y="269.7336">live multi-camer&#259;</text></g><!--entity UC3--><g class="entity" data-entity="UC3" data-source-line="15" data-uid="ent0007" id="entity_UC3"><ellipse cx="508.487" cy="343.164" fill="#F1F1F1" rx="102.987" ry="27.664" style="stroke:#181818;stroke-width:0.5;"/><text fill="#000000" font-family="sans-serif" font-size="14" lengthAdjust="spacing" textLength="154.6014" x="431.1863" y="343.0882">UC3 - Schimbare parol&#259;</text><text fill="#000000" font-family="sans-serif" font-size="14" lengthAdjust="spacing" textLength="82.0537" x="467.4601" y="362.1561">cont propriu</text></g><!--entity UC10--><g class="entity" data-entity="UC10" data-source-line="16" data-uid="ent0008" id="entity_UC10"><ellipse cx="508.3207" cy="161.1916" fill="#F1F1F1" rx="86.3207" ry="27.1916" style="stroke:#181818;stroke-width:0.5;"/><text fill="#000000" font-family="sans-serif" font-size="14" lengthAdjust="spacing" textLength="131.3475" x="442.647" y="161.8717">UC10 - Monitorizare</text><text fill="#000000" font-family="sans-serif" font-size="14" lengthAdjust="spacing" textLength="46.0878" x="485.2768" y="180.9396">alarme</text></g><!--entity UC11--><g class="entity" data-entity="UC11" data-source-line="17" data-uid="ent0009" id="entity_UC11"><ellipse cx="202.7083" cy="97.8378" fill="#F1F1F1" rx="73.7083" ry="27.3378" style="stroke:#181818;stroke-width:0.5;"/><text fill="#000000" font-family="sans-serif" font-size="14" lengthAdjust="spacing" textLength="110.7955" x="147.3106" y="98.2815">UC11 - Rezolvare</text><text fill="#000000" font-family="sans-serif" font-size="14" lengthAdjust="spacing" textLength="46.0458" x="179.6854" y="117.3494">alarm&#259;</text></g><!--entity UC12a--><g class="entity" data-entity="UC12a" data-source-line="18" data-uid="ent0010" id="entity_UC12a"><ellipse cx="508.6937" cy="433.2208" fill="#F1F1F1" rx="83.1937" ry="27.2208" style="stroke:#181818;stroke-width:0.5;"/><text fill="#000000" font-family="sans-serif" font-size="14" lengthAdjust="spacing" textLength="126.2655" x="445.5609" y="433.8535">UC12a - Consultare</text><text fill="#000000" font-family="sans-serif" font-size="14" lengthAdjust="spacing" textLength="46.0598" x="485.6638" y="452.9214">jurnale</text></g><!--entity UC4--><g class="entity" data-entity="UC4" data-source-line="22" data-uid="ent0012" id="entity_UC4"><ellipse cx="508.5014" cy="907.0208" fill="#F1F1F1" rx="83.0014" ry="29.0208" style="stroke:#181818;stroke-width:0.5;"/><text fill="#000000" font-family="sans-serif" font-size="14" lengthAdjust="spacing" textLength="117.2496" x="449.8767" y="904.8829">UC4 - &#206;nregistrare</text><text fill="#000000" font-family="sans-serif" font-size="14" lengthAdjust="spacing" textLength="99.0916" x="458.9556" y="923.9508">persoan&#259; nou&#259;</text></g><!--entity UC5--><g class="entity" data-entity="UC5" data-source-line="23" data-uid="ent0013" id="entity_UC5"><ellipse cx="508.7297" cy="990.8459" fill="#F1F1F1" rx="84.7297" ry="19.3459" style="stroke:#181818;stroke-width:0.5;"/><text fill="#000000" font-family="sans-serif" font-size="14" lengthAdjust="spacing" textLength="132.7755" x="442.3419" y="996.8799">UC5 - Gestiune zone</text></g><!--entity UC6--><g class="entity" data-entity="UC6" data-source-line="24" data-uid="ent0014" id="entity_UC6"><ellipse cx="508.6883" cy="1066.2377" fill="#F1F1F1" rx="91.6883" ry="20.7377" style="stroke:#181818;stroke-width:0.5;"/><text fill="#000000" font-family="sans-serif" font-size="14" lengthAdjust="spacing" textLength="149.5754" x="433.9006" y="1072.2716">UC6 - Gestiune pl&#259;cu&#539;e</text></g><!--entity UC7--><g class="entity" data-entity="UC7" data-source-line="25" data-uid="ent0015" id="entity_UC7"><ellipse cx="508.5099" cy="541.0757" fill="#F1F1F1" rx="110.5099" ry="27.0757" style="stroke:#181818;stroke-width:0.5;"/><text fill="#000000" font-family="sans-serif" font-size="14" lengthAdjust="spacing" textLength="170.2953" x="423.3622" y="541.9448">UC7 - Ad&#259;ugare/eliminare</text><text fill="#000000" font-family="sans-serif" font-size="14" lengthAdjust="spacing" textLength="49.1958" x="483.912" y="561.0128">camer&#259;</text></g><!--entity UC8--><g class="entity" data-entity="UC8" data-source-line="26" data-uid="ent0016" id="entity_UC8"><ellipse cx="508.6357" cy="631.0556" fill="#F1F1F1" rx="113.6357" ry="27.5556" style="stroke:#181818;stroke-width:0.5;"/><text fill="#000000" font-family="sans-serif" font-size="14" lengthAdjust="spacing" textLength="171.8213" x="422.725" y="631.1512">UC8 - Configurare module</text><text fill="#000000" font-family="sans-serif" font-size="14" lengthAdjust="spacing" textLength="85.1757" x="466.0479" y="650.2191">AI la runtime</text></g><!--entity UC9--><g class="entity" data-entity="UC9" data-source-line="27" data-uid="ent0017" id="entity_UC9"><ellipse cx="508.5272" cy="722.0338" fill="#F1F1F1" rx="67.0272" ry="28.0338" style="stroke:#181818;stroke-width:0.5;"/><text fill="#000000" font-family="sans-serif" font-size="14" lengthAdjust="spacing" textLength="97.5376" x="459.7584" y="721.3812">UC9 - Gestiune</text><text fill="#000000" font-family="sans-serif" font-size="14" lengthAdjust="spacing" textLength="61.8938" x="477.5804" y="740.4491">utilizatori</text></g><!--entity UC12b--><g class="entity" data-entity="UC12b" data-source-line="28" data-uid="ent0018" id="entity_UC12b"><ellipse cx="508.6697" cy="814.2299" fill="#F1F1F1" rx="101.1697" ry="29.2299" style="stroke:#181818;stroke-width:0.5;"/><text fill="#000000" font-family="sans-serif" font-size="14" lengthAdjust="spacing" textLength="125.9295" x="445.705" y="809.6738">UC12b - Vizualizare</text><text fill="#000000" font-family="sans-serif" font-size="14" lengthAdjust="spacing" textLength="142.7295" x="437.305" y="828.7417">statistici &#537;i dashboard</text></g><!--entity OP--><g class="entity" data-entity="OP" data-source-line="5" data-uid="ent0002" id="entity_OP"><ellipse cx="36.1909" cy="237.5" fill="#F1F1F1" rx="16" ry="16" style="stroke:#181818;stroke-width:0.5;"/><path d="M36.1909,257.5 C40.1909,257.5 43.1909,257.5 47.1909,253.5 C55.1909,253.5 63.1909,261.5 63.1909,269.5 L63.1909,273.5 C63.1909,277.5 59.1909,281.5 55.1909,281.5 L17.1909,281.5 C13.1909,281.5 9.1909,277.5 9.1909,273.5 L9.1909,269.5 C9.1909,261.5 17.1909,253.5 25.1909,253.5 C29.1909,257.5 32.1909,257.5 36.1909,257.5" fill="#F1F1F1" style="stroke:#181818;stroke-width:0.5;"/><text fill="#000000" font-family="sans-serif" font-size="14" lengthAdjust="spacing" textLength="60.3818" x="6" y="296.9659">Operator</text></g><!--entity AD--><g class="entity" data-entity="AD" data-source-line="6" data-uid="ent0003" id="entity_AD"><ellipse cx="202.6118" cy="1159.5" fill="#F1F1F1" rx="16" ry="16" style="stroke:#181818;stroke-width:0.5;"/><path d="M202.6118,1179.5 C206.6118,1179.5 209.6118,1179.5 213.6118,1175.5 C221.6118,1175.5 229.6118,1183.5 229.6118,1191.5 L229.6118,1195.5 C229.6118,1199.5 225.6118,1203.5 221.6118,1203.5 L183.6118,1203.5 C179.6118,1203.5 175.6118,1199.5 175.6118,1195.5 L175.6118,1191.5 C175.6118,1183.5 183.6118,1175.5 191.6118,1175.5 C195.6118,1179.5 198.6118,1179.5 202.6118,1179.5" fill="#F1F1F1" style="stroke:#181818;stroke-width:0.5;"/><text fill="#000000" font-family="sans-serif" font-size="14" lengthAdjust="spacing" textLength="91.2237" x="157" y="1218.9659">Administrator</text></g><!--link OP to UC2--><g class="link" data-entity-1="OP" data-entity-2="UC2" data-source-line="33" data-uid="lnk19" id="link_OP_UC2"><path d="M66.08,260.44 C131.59,259.19 287.4811,256.2045 395.9111,254.1345" fill="none" id="OP-to-UC2" style="stroke:#181818;stroke-width:1;"/><polygon fill="#181818" points="401.91,254.02,392.8353,250.1925,396.9109,254.1154,392.988,258.1911,401.91,254.02" style="stroke:#181818;stroke-width:1;"/></g><!--link OP to UC3--><g class="link" data-entity-1="OP" data-entity-2="UC3" data-source-line="34" data-uid="lnk20" id="link_OP_UC3"><path d="M66.08,266.07 C135.7,278.2 308.2492,308.2694 415.7292,327.0094" fill="none" id="OP-to-UC3" style="stroke:#181818;stroke-width:1;"/><polygon fill="#181818" points="421.64,328.04,413.4608,322.5535,416.7143,327.1812,412.0867,330.4347,421.64,328.04" style="stroke:#181818;stroke-width:1;"/></g><!--link OP to UC10--><g class="link" data-entity-1="OP" data-entity-2="UC10" data-source-line="35" data-uid="lnk21" id="link_OP_UC10"><path d="M66.13,245.9 C75.48,241.54 86,237.12 96,234 C207.69,199.16 335.9817,179.9565 420.0617,169.9865" fill="none" id="OP-to-UC10" style="stroke:#181818;stroke-width:1;"/><polygon fill="#181818" points="426.02,169.28,416.6116,166.3676,421.0548,169.8688,417.5536,174.3119,426.02,169.28" style="stroke:#181818;stroke-width:1;"/></g><!--link OP to UC11--><g class="link" data-entity-1="OP" data-entity-2="UC11" data-source-line="36" data-uid="lnk22" id="link_OP_UC11"><path d="M52.09,220.84 C61.96,198.73 76.63,172 96,153 C111.26,138.03 126.0081,128.7496 144.6181,119.9296" fill="none" id="OP-to-UC11" style="stroke:#181818;stroke-width:1;"/><polygon fill="#181818" points="150.04,117.36,140.1941,117.5999,145.5218,119.5014,143.6203,124.8291,150.04,117.36" style="stroke:#181818;stroke-width:1;"/></g><!--link OP to UC12a--><g class="link" data-entity-1="OP" data-entity-2="UC12a" data-source-line="37" data-uid="lnk23" id="link_OP_UC12a"><path d="M66.11,285.2 C77.68,293.93 91.44,303.27 105,310 C215.3,364.71 348.911,399.3968 431.371,417.5968" fill="none" id="OP-to-UC12a" style="stroke:#181818;stroke-width:1;"/><polygon fill="#181818" points="437.23,418.89,429.3036,413.0443,432.3475,417.8124,427.5794,420.8563,437.23,418.89" style="stroke:#181818;stroke-width:1;"/></g><!--link AD to UC2--><g class="link" data-entity-1="AD" data-entity-2="UC2" data-source-line="40" data-uid="lnk24" id="link_AD_UC2"><path d="M248.24,1158.07 C259.21,1149.68 269.63,1139.28 276,1127 C310.88,1059.77 288.81,519.76 306,446 C322.3,376.03 318,346.5 371,298 C385.39,284.83 398.0419,277.4722 416.5319,270.7422" fill="none" id="AD-to-UC2" style="stroke:#181818;stroke-width:1;"/><polygon fill="#181818" points="422.17,268.69,412.3447,268.0095,417.4716,270.4001,415.0809,275.527,422.17,268.69" style="stroke:#181818;stroke-width:1;"/></g><!--link AD to UC3--><g class="link" data-entity-1="AD" data-entity-2="UC3" data-source-line="41" data-uid="lnk25" id="link_AD_UC3"><path d="M248.18,1158.03 C259.15,1149.65 269.58,1139.26 276,1127 C336.07,1012.27 277.48,671.33 306,545 C322.63,471.33 315.66,439.39 371,388 C385.54,374.5 398.5493,367.0391 417.3893,360.4191" fill="none" id="AD-to-UC3" style="stroke:#181818;stroke-width:1;"/><polygon fill="#181818" points="423.05,358.43,413.2329,357.6398,418.3327,360.0876,415.885,365.1874,423.05,358.43" style="stroke:#181818;stroke-width:1;"/></g><!--link AD to UC10--><g class="link" data-entity-1="AD" data-entity-2="UC10" data-source-line="42" data-uid="lnk26" id="link_AD_UC10"><path d="M248.28,1158.09 C259.26,1149.71 269.66,1139.3 276,1127 C315.53,1050.3 286.33,435.01 306,351 C322.1,282.24 318.56,253.3 371,206 C388.05,190.62 404.7349,182.253 426.4649,175.573" fill="none" id="AD-to-UC10" style="stroke:#181818;stroke-width:1;"/><polygon fill="#181818" points="432.2,173.81,422.422,172.6311,427.4207,175.2792,424.7727,180.278,432.2,173.81" style="stroke:#181818;stroke-width:1;"/></g><!--link AD to UC11--><g class="link" data-entity-1="AD" data-entity-2="UC11" data-source-line="43" data-uid="lnk27" id="link_AD_UC11"><path d="M202.5,1142.74 C202.5,803.67 202.5,470.61 202.5,131.55" fill="none" id="AD-to-UC11" style="stroke:#181818;stroke-width:1;"/><polygon fill="#181818" points="202.5,125.55,198.5,134.55,202.5,130.55,206.5,134.55,202.5,125.55" style="stroke:#181818;stroke-width:1;"/></g><!--link AD to UC12a--><g class="link" data-entity-1="AD" data-entity-2="UC12a" data-source-line="44" data-uid="lnk28" id="link_AD_UC12a"><path d="M248.11,1158 C259.08,1149.61 269.53,1139.23 276,1127 C327.55,1029.6 278.09,738.61 306,632 C322.77,567.97 324.03,544.64 371,498 C392.14,477.01 415.7975,464.0843 441.7775,453.7143" fill="none" id="AD-to-UC12a" style="stroke:#181818;stroke-width:1;"/><polygon fill="#181818" points="447.35,451.49,437.5084,451.1114,442.7063,453.3436,440.4741,458.5414,447.35,451.49" style="stroke:#181818;stroke-width:1;"/></g><!--link AD to UC4--><g class="link" data-entity-1="AD" data-entity-2="UC4" data-source-line="47" data-uid="lnk29" id="link_AD_UC4"><path d="M248.34,1154.98 C258.52,1146.95 268.52,1137.49 276,1127 C300.22,1093.01 286.29,1074.79 306,1038 C328.29,996.39 332.63,981.5 371,954 C390.76,939.84 409.42,931.4716 432.09,924.2916" fill="none" id="AD-to-UC4" style="stroke:#181818;stroke-width:1;"/><polygon fill="#181818" points="437.81,922.48,428.0223,921.3841,433.0434,923.9897,430.4378,929.0107,437.81,922.48" style="stroke:#181818;stroke-width:1;"/></g><!--link AD to UC5--><g class="link" data-entity-1="AD" data-entity-2="UC5" data-source-line="48" data-uid="lnk30" id="link_AD_UC5"><path d="M248.05,1150.26 C257.49,1142.86 267.24,1134.86 276,1127 C321.37,1086.25 318.55,1059.11 371,1028 C391.48,1015.85 410.2142,1009.0352 432.8242,1003.4652" fill="none" id="AD-to-UC5" style="stroke:#181818;stroke-width:1;"/><polygon fill="#181818" points="438.65,1002.03,428.9545,1000.2989,433.7951,1003.226,430.8681,1008.0667,438.65,1002.03" style="stroke:#181818;stroke-width:1;"/></g><!--link AD to UC6--><g class="link" data-entity-1="AD" data-entity-2="UC6" data-source-line="49" data-uid="lnk31" id="link_AD_UC6"><path d="M248.03,1165.86 C305.17,1143.87 398.2106,1108.0655 456.0106,1085.8155" fill="none" id="AD-to-UC6" style="stroke:#181818;stroke-width:1;"/><polygon fill="#181818" points="461.61,1083.66,451.7738,1083.1603,456.9438,1085.4562,454.6478,1090.6262,461.61,1083.66" style="stroke:#181818;stroke-width:1;"/></g><!--link AD to UC7--><g class="link" data-entity-1="AD" data-entity-2="UC7" data-source-line="50" data-uid="lnk32" id="link_AD_UC7"><path d="M248,1157.94 C258.97,1149.56 269.45,1139.19 276,1127 C318.85,1047.32 282.63,808.4 306,721 C323.2,656.67 320.95,629.92 371,586 C385.35,573.41 397.667,566.3687 415.797,559.8187" fill="none" id="AD-to-UC7" style="stroke:#181818;stroke-width:1;"/><polygon fill="#181818" points="421.44,557.78,411.6163,557.076,416.7375,559.4789,414.3346,564.6001,421.44,557.78" style="stroke:#181818;stroke-width:1;"/></g><!--link AD to UC8--><g class="link" data-entity-1="AD" data-entity-2="UC8" data-source-line="51" data-uid="lnk33" id="link_AD_UC8"><path d="M248.22,1157.56 C259.05,1149.23 269.4,1138.98 276,1127 C344.31,1003.06 267.84,946.28 306,810 C323.85,746.26 321.18,719.59 371,676 C384.99,663.76 396.7697,656.9035 414.4197,650.4035" fill="none" id="AD-to-UC8" style="stroke:#181818;stroke-width:1;"/><polygon fill="#181818" points="420.05,648.33,410.2222,647.6867,415.3581,650.0579,412.9868,655.1938,420.05,648.33" style="stroke:#181818;stroke-width:1;"/></g><!--link AD to UC9--><g class="link" data-entity-1="AD" data-entity-2="UC9" data-source-line="52" data-uid="lnk34" id="link_AD_UC9"><path d="M248.32,1157.11 C259.02,1148.84 269.27,1138.72 276,1127 C327.54,1037.21 275.61,994.97 306,896 C324.85,834.63 322.37,808.91 371,767 C391.89,749 414.3583,739.6512 439.7683,733.1312" fill="none" id="AD-to-UC9" style="stroke:#181818;stroke-width:1;"/><polygon fill="#181818" points="445.58,731.64,435.8682,730.0024,440.7369,732.8827,437.8566,737.7513,445.58,731.64" style="stroke:#181818;stroke-width:1;"/></g><!--link AD to UC12b--><g class="link" data-entity-1="AD" data-entity-2="UC12b" data-source-line="53" data-uid="lnk35" id="link_AD_UC12b"><path d="M248.2,1156.52 C258.76,1148.3 268.98,1138.37 276,1127 C312.42,1068.05 281.85,1038.95 306,974 C326.32,919.33 325.97,897.07 371,860 C386.83,846.97 400.8522,839.5289 420.3122,832.7689" fill="none" id="AD-to-UC12b" style="stroke:#181818;stroke-width:1;"/><polygon fill="#181818" points="425.98,830.8,416.1658,829.9748,421.2569,832.4407,418.7909,837.5318,425.98,830.8" style="stroke:#181818;stroke-width:1;"/></g><!--link UC2 to UC1--><g class="link" data-entity-1="UC2" data-entity-2="UC1" data-source-line="56" data-uid="lnk36" id="link_UC2_UC1"><path d="M588.01,271.09 C607.84,277.84 628.46,286.68 646,298 C745.34,362.12 796.3138,497.272 814.8838,556.822" fill="none" id="UC2-to-UC1" style="stroke:#181818;stroke-width:1;stroke-dasharray:7,7;"/><polygon fill="#181818" points="816.67,562.55,817.8093,552.7673,815.1815,557.7767,810.1721,555.1489,816.67,562.55" style="stroke:#181818;stroke-width:1;"/><text fill="#000000" font-family="sans-serif" font-size="13" lengthAdjust="spacing" textLength="57.5771" x="655" y="304.897">&#171;include&#187;</text></g><!--link UC3 to UC1--><g class="link" data-entity-1="UC3" data-entity-2="UC1" data-source-line="57" data-uid="lnk37" id="link_UC3_UC1"><path d="M587.14,360.79 C607.29,367.45 628.29,376.33 646,388 C718.29,435.65 776.0265,514.9047 804.3165,557.9847" fill="none" id="UC3-to-UC1" style="stroke:#181818;stroke-width:1;stroke-dasharray:7,7;"/><polygon fill="#181818" points="807.61,563,806.0133,553.2814,804.8654,558.8206,799.3263,557.6727,807.61,563" style="stroke:#181818;stroke-width:1;"/><text fill="#000000" font-family="sans-serif" font-size="13" lengthAdjust="spacing" textLength="57.5771" x="655" y="392.897">&#171;include&#187;</text></g><!--link UC4 to UC1--><g class="link" data-entity-1="UC4" data-entity-2="UC1" data-source-line="58" data-uid="lnk38" id="link_UC4_UC1"><path d="M577.83,890.77 C600.63,883.5 625.45,873.46 646,860 C738.13,799.65 791.7044,679.0547 812.7444,623.2147" fill="none" id="UC4-to-UC1" style="stroke:#181818;stroke-width:1;stroke-dasharray:7,7;"/><polygon fill="#181818" points="814.86,617.6,807.9436,624.6116,813.097,622.2789,815.4298,627.4324,814.86,617.6" style="stroke:#181818;stroke-width:1;"/><text fill="#000000" font-family="sans-serif" font-size="13" lengthAdjust="spacing" textLength="57.5771" x="655" y="797.897">&#171;include&#187;</text></g><!--link UC5 to UC1--><g class="link" data-entity-1="UC5" data-entity-2="UC1" data-source-line="59" data-uid="lnk39" id="link_UC5_UC1"><path d="M578.26,979.91 C600.98,974.2 625.64,965.67 646,953 C683.95,929.39 689.67,916.12 713,878 C767.02,789.74 801.3892,676.6607 815.8092,623.5007" fill="none" id="UC5-to-UC1" style="stroke:#181818;stroke-width:1;stroke-dasharray:7,7;"/><polygon fill="#181818" points="817.38,617.71,811.1633,625.3489,816.071,622.5356,818.8843,627.4433,817.38,617.71" style="stroke:#181818;stroke-width:1;"/><text fill="#000000" font-family="sans-serif" font-size="13" lengthAdjust="spacing" textLength="57.5771" x="655" y="873.897">&#171;include&#187;</text></g><!--link UC6 to UC1--><g class="link" data-entity-1="UC6" data-entity-2="UC1" data-source-line="60" data-uid="lnk40" id="link_UC6_UC1"><path d="M581.87,1053.69 C627.63,1041.81 683.53,1018.85 713,975 C791.79,857.76 815.156,690.3415 821.686,623.5715" fill="none" id="UC6-to-UC1" style="stroke:#181818;stroke-width:1;stroke-dasharray:7,7;"/><polygon fill="#181818" points="822.27,617.6,817.413,626.1679,821.7833,622.5763,825.375,626.9466,822.27,617.6" style="stroke:#181818;stroke-width:1;"/><text fill="#000000" font-family="sans-serif" font-size="13" lengthAdjust="spacing" textLength="57.5771" x="655" y="970.897">&#171;include&#187;</text></g><!--link UC7 to UC1--><g class="link" data-entity-1="UC7" data-entity-2="UC1" data-source-line="61" data-uid="lnk41" id="link_UC7_UC1"><path d="M602.31,555.44 C649.58,562.79 700.3413,570.6875 744.6213,577.5775" fill="none" id="UC7-to-UC1" style="stroke:#181818;stroke-width:1;stroke-dasharray:7,7;"/><polygon fill="#181818" points="750.55,578.5,742.272,573.1638,745.6095,577.7312,741.042,581.0687,750.55,578.5" style="stroke:#181818;stroke-width:1;"/><text fill="#000000" font-family="sans-serif" font-size="13" lengthAdjust="spacing" textLength="57.5771" x="655" y="560.897">&#171;include&#187;</text></g><!--link UC8 to UC1--><g class="link" data-entity-1="UC8" data-entity-2="UC1" data-source-line="62" data-uid="lnk42" id="link_UC8_UC1"><path d="M621.33,627.53 C651.23,625.6 683.44,622.62 713,618 C729.17,615.47 740.597,613.1366 756.577,609.1666" fill="none" id="UC8-to-UC1" style="stroke:#181818;stroke-width:1;stroke-dasharray:7,7;"/><polygon fill="#181818" points="762.4,607.72,752.7011,606.008,757.5475,608.9255,754.6299,613.772,762.4,607.72" style="stroke:#181818;stroke-width:1;"/><text fill="#000000" font-family="sans-serif" font-size="13" lengthAdjust="spacing" textLength="57.5771" x="655" y="613.897">&#171;include&#187;</text></g><!--link UC9 to UC1--><g class="link" data-entity-1="UC9" data-entity-2="UC1" data-source-line="63" data-uid="lnk43" id="link_UC9_UC1"><path d="M564.14,706.29 C605.74,693.59 664,674.22 713,652 C737.61,640.84 758.9071,629.2628 779.8771,617.0328" fill="none" id="UC9-to-UC1" style="stroke:#181818;stroke-width:1;stroke-dasharray:7,7;"/><polygon fill="#181818" points="785.06,614.01,775.2704,615.0889,780.7409,616.529,779.3008,621.9994,785.06,614.01" style="stroke:#181818;stroke-width:1;"/><text fill="#000000" font-family="sans-serif" font-size="13" lengthAdjust="spacing" textLength="57.5771" x="655" y="647.897">&#171;include&#187;</text></g><!--link UC10 to UC1--><g class="link" data-entity-1="UC10" data-entity-2="UC1" data-source-line="64" data-uid="lnk44" id="link_UC10_UC1"><path d="M579.73,176.41 C602.07,183.28 626.11,192.87 646,206 C683.58,230.8 690.04,243.26 713,282 C769.68,377.65 803.4021,500.9975 816.8521,556.7175" fill="none" id="UC10-to-UC1" style="stroke:#181818;stroke-width:1;stroke-dasharray:7,7;"/><polygon fill="#181818" points="818.26,562.55,820.0365,552.8627,817.0868,557.6896,812.2599,554.7399,818.26,562.55" style="stroke:#181818;stroke-width:1;"/><text fill="#000000" font-family="sans-serif" font-size="13" lengthAdjust="spacing" textLength="57.5771" x="655" y="207.897">&#171;include&#187;</text></g><!--link UC11 to UC1--><g class="link" data-entity-1="UC11" data-entity-2="UC1" data-source-line="65" data-uid="lnk45" id="link_UC11_UC1"><path d="M268.34,85.62 C357.97,71.75 522.63,58.1 646,116 C816.35,195.96 826.7116,467.4606 825.5016,556.3706" fill="none" id="UC11-to-UC1" style="stroke:#181818;stroke-width:1;stroke-dasharray:7,7;"/><polygon fill="#181818" points="825.42,562.37,829.5421,553.4253,825.488,557.3705,821.5428,553.3164,825.42,562.37" style="stroke:#181818;stroke-width:1;"/><text fill="#000000" font-family="sans-serif" font-size="13" lengthAdjust="spacing" textLength="57.5771" x="480" y="69.897">&#171;include&#187;</text></g><!--link UC12a to UC1--><g class="link" data-entity-1="UC12a" data-entity-2="UC1" data-source-line="66" data-uid="lnk46" id="link_UC12a_UC1"><path d="M556.74,455.05 C583.1,467.46 616.49,483.37 646,498 C692.07,520.84 738.9937,545.1186 775.0037,563.9586" fill="none" id="UC12a-to-UC1" style="stroke:#181818;stroke-width:1;stroke-dasharray:7,7;"/><polygon fill="#181818" points="780.32,566.74,774.1998,559.0236,775.8897,564.4221,770.4912,566.1121,780.32,566.74" style="stroke:#181818;stroke-width:1;"/><text fill="#000000" font-family="sans-serif" font-size="13" lengthAdjust="spacing" textLength="57.5771" x="655" y="498.897">&#171;include&#187;</text></g><!--link UC12b to UC1--><g class="link" data-entity-1="UC12b" data-entity-2="UC1" data-source-line="67" data-uid="lnk47" id="link_UC12b_UC1"><path d="M584.42,794.76 C605.21,787.71 627.21,778.55 646,767 C712.93,725.88 770.2707,659.7882 800.6207,621.3682" fill="none" id="UC12b-to-UC1" style="stroke:#181818;stroke-width:1;stroke-dasharray:7,7;"/><polygon fill="#181818" points="804.34,616.66,795.6223,621.2428,801.2406,620.5835,801.8999,626.2018,804.34,616.66" style="stroke:#181818;stroke-width:1;"/><text fill="#000000" font-family="sans-serif" font-size="13" lengthAdjust="spacing" textLength="57.5771" x="655" y="712.897">&#171;include&#187;</text></g><!--link UC11 to UC10--><g class="link" data-entity-1="UC11" data-entity-2="UC10" data-source-line="70" data-uid="lnk48" id="link_UC11_UC10"><path d="M267.23,111.21 C316.5,121.42 378.835,134.3316 429.995,144.9416" fill="none" id="UC11-to-UC10" style="stroke:#181818;stroke-width:1;stroke-dasharray:7,7;"/><polygon fill="#181818" points="435.87,146.16,427.8698,140.4157,430.9742,145.1447,426.2452,148.2491,435.87,146.16" style="stroke:#181818;stroke-width:1;"/><text fill="#000000" font-family="sans-serif" font-size="13" lengthAdjust="spacing" textLength="55.497" x="307" y="116.897">&#171;extend&#187;</text></g><!--SRC=[XLIxRjj04Epv5GirJWevrbiAR0E23GGk0XiMaahDYbnHPn_lXEETuoXmfJvzu7_8JrY5FojBIdpQHBe5PsPdNpn9ImjMWn7Xoa8W3FbMQEN5zqAjqM04Q_JlCQIP_Ia94XXLAAb4GDzgiuVn1yKw8izBlq7hUaq6EMe1nd1zatsU1f5G8hO5Dhtql3mtj6OCKWG1mSoj3JvGk293SAKiIH6Iihjj2tvv7i0HjDjjc3hB7yLI-CWq_iA8Yyd7c9Dzk-X0ZJ9NBtyLnAbBwi-S8ji5RfmHtBYnU8VsdOHTJlXTR1nAiKaSbz8zicIkf7WWY9oqekrZH2QfCqtVhIReSOAPlnBH8f6pavQxxLpvMbbO6xqsmXs4lLeh9wpygfNWoQNUSuKIJKHP6oSrVjBxBMsqV2Z8ULMTJetTHQPVQ1Lp2od_pXdMvDcx-6PCWKO3bOqUvdKudFAwkTSFR_aVarq2L2hfSnqllvMXy22SAxwbMAFQRK5fbxVGhoi7hFn2iHLE4MoqoceVr8d3Cd7Dy_VTwtF67jRPe-I6WjtMXLpC9pv3RY0jgxhdKLqttWzqAKANzX_fm4cMJQz08XZ7DvalRrmNJqebpfMp8hctPFC7mQGkw7GNrTESgzYYvHaANy3h7ruNngi5ho38LxhW94_Ua-STmTdP6MJ_BEVnwpy2uzxr3U_tF3tfFEmL8HzW4NTASN8wUuVQiRnlCxtCRVAmLuHiKyITKlnV6thqfOkJ_xHYqo_2GH4EYt1KXECYd9Ij5vdrBKbyVHO2Ja-5Ohk0pi-v0gmyKufyYf5F9oqaULIEZzCyyBciyvBNeWdfDoA3HcJOY8mQaN4ZCcb4-AbgX3hD43z1pTYY0QlEdHYZHvvrm6FV3xTmF4cb6Upz0m00]--></g></svg>