<svg xmlns="http://www.w3.org/2000/svg" xmlns:xlink="http://www.w3.org/1999/xlink" contentStyleType="text/css" height="1136px" preserveAspectRatio="none" style="width:675px;height:1136px;" version="1.1" viewBox="0 0 675 1136" width="675px" zoomAndPan="magnify"><defs/><g><!--cluster P2--><g id="cluster_P2"><path d="M128.5,201 L306.5132,201 A6,6 0 0 1 310.5132,205 L317.5132,222.1328 L512.5,222.1328 A4,4 0 0 1 516.5,226.1328 L516.5,666 A4,4 0 0 1 512.5,670 L128.5,670 A4,4 0 0 1 124.5,666 L124.5,205 A4,4 0 0 1 128.5,201 " fill="#FFF3E0" style="stroke:#777777;stroke-width:1.5;"/><line style="stroke:#777777;stroke-width:1.5;" x1="124.5" x2="317.5132" y1="222.1328" y2="222.1328"/><text fill="#000000" font-family="monospace" font-size="13" font-weight="bold" lengthAdjust="spacing" textLength="180.0132" x="128.5" y="215.0669">02_relabel_and_merge.py</text></g><!--entity R1--><g id="elem_R1"><rect fill="#FFFFFF" height="90.8241" rx="4" ry="4" style="stroke:#333333;stroke-width:0.5;" width="359.1214" x="141" y="235"/><text fill="#111111" font-family="Serif" font-size="13" font-weight="bold" lengthAdjust="spacing" textLength="49.413" x="151" y="258.897">Relabel</text><text fill="#111111" font-family="Serif" font-size="13" lengthAdjust="spacing" textLength="215.7857" x="203.793" y="258.897">&#8212; toate clasele-arm&#259; &#8594; clasa unic&#259;</text><text fill="#111111" font-family="monospace" font-size="13" lengthAdjust="spacing" textLength="7.8267" x="422.9588" y="259.6401">0</text><text fill="#111111" font-family="Serif" font-size="13" lengthAdjust="spacing" textLength="4.498" x="434.1654" y="258.897">(</text><text fill="#111111" font-family="monospace" font-size="13" lengthAdjust="spacing" textLength="46.96" x="438.6634" y="259.6401">weapon</text><text fill="#111111" font-family="Serif" font-size="13" lengthAdjust="spacing" textLength="4.498" x="485.6234" y="258.897">)</text><text fill="#111111" font-family="Serif" font-size="13" lengthAdjust="spacing" textLength="316.8882" x="151" y="276.603">clasele non-arm&#259; (telefon, portofel, bancnot&#259;, card)</text><text fill="#111111" font-family="Serif" font-size="13" lengthAdjust="spacing" textLength="300.0922" x="151" y="294.309">sunt eliminate din etichete, dar imaginile r&#259;m&#226;n</text><text fill="#111111" font-family="Serif" font-size="13" lengthAdjust="spacing" textLength="13.715" x="151" y="312.0151">ca</text><text fill="#111111" font-family="Serif" font-size="13" font-weight="bold" lengthAdjust="spacing" textLength="116.1291" x="168.095" y="312.0151">exemple negative</text><text fill="#111111" font-family="Serif" font-size="13" lengthAdjust="spacing" textLength="49.764" x="287.6041" y="312.0151">(fundal)</text></g><!--entity R2--><g id="elem_R2"><rect fill="#FFFFFF" height="55.412" rx="4" ry="4" style="stroke:#333333;stroke-width:0.5;" width="292.4412" x="174.5" y="386"/><text fill="#111111" font-family="Serif" font-size="13" font-weight="bold" lengthAdjust="spacing" textLength="62.7901" x="184.5" y="409.897">Prefixare</text><text fill="#111111" font-family="Serif" font-size="13" lengthAdjust="spacing" textLength="3.38" x="247.2901" y="409.897">&#160;</text><text fill="#111111" font-family="monospace" font-size="13" lengthAdjust="spacing" textLength="31.3066" x="250.6701" y="410.6401">zen_</text><text fill="#111111" font-family="Serif" font-size="13" lengthAdjust="spacing" textLength="3.744" x="285.3567" y="409.897">/</text><text fill="#111111" font-family="monospace" font-size="13" lengthAdjust="spacing" textLength="23.48" x="292.4807" y="410.6401">rf_</text><text fill="#111111" font-family="Serif" font-size="13" lengthAdjust="spacing" textLength="272.4412" x="184.5" y="427.603">evit&#259; coliziunile de nume la unirea seturilor</text></g><!--entity R3--><g id="elem_R3"><rect fill="#FFFFFF" height="55.412" rx="4" ry="4" style="stroke:#333333;stroke-width:0.5;" width="325.0583" x="158" y="501"/><text fill="#111111" font-family="Serif" font-size="13" font-weight="bold" lengthAdjust="spacing" textLength="41.301" x="168" y="524.897">Merge</text><text fill="#111111" font-family="Serif" font-size="13" lengthAdjust="spacing" textLength="112.3071" x="212.681" y="524.897">&#238;n structur&#259; YOLO</text><text fill="#111111" font-family="monospace" font-size="13" lengthAdjust="spacing" textLength="39.1333" x="328.3681" y="525.6401">train</text><text fill="#111111" font-family="Serif" font-size="13" lengthAdjust="spacing" textLength="3.744" x="370.8815" y="524.897">/</text><text fill="#111111" font-family="monospace" font-size="13" lengthAdjust="spacing" textLength="39.1333" x="378.0055" y="525.6401">valid</text><text fill="#111111" font-family="Serif" font-size="13" lengthAdjust="spacing" textLength="3.744" x="420.5188" y="524.897">/</text><text fill="#111111" font-family="monospace" font-size="13" lengthAdjust="spacing" textLength="31.3066" x="427.6428" y="525.6401">test</text><text fill="#111111" font-family="Serif" font-size="13" lengthAdjust="spacing" textLength="305.0583" x="168" y="542.603">parti&#539;ii mo&#537;tenite ca atare din surse (~70 / 15 / 15)</text></g><!--entity R4--><g id="elem_R4"><rect fill="#FFFFFF" height="37.706" rx="4" ry="4" style="stroke:#333333;stroke-width:0.5;" width="264.8553" x="188" y="616"/><text fill="#111111" font-family="Serif" font-size="13" lengthAdjust="spacing" textLength="65.936" x="198" y="639.897">Genereaz&#259;</text><text fill="#111111" font-family="monospace" font-size="13" lengthAdjust="spacing" textLength="70.4399" x="267.316" y="640.6401">data.yaml</text><text fill="#111111" font-family="Serif" font-size="13" lengthAdjust="spacing" textLength="4.498" x="341.136" y="639.897">(</text><text fill="#111111" font-family="monospace" font-size="13" lengthAdjust="spacing" textLength="39.1333" x="345.634" y="640.6401">nc:&#160;1</text><text fill="#111111" font-family="Serif" font-size="13" lengthAdjust="spacing" textLength="3.25" x="384.7673" y="639.897">,</text><text fill="#111111" font-family="monospace" font-size="13" lengthAdjust="spacing" textLength="46.96" x="391.3973" y="640.6401">weapon</text><text fill="#111111" font-family="Serif" font-size="13" lengthAdjust="spacing" textLength="4.498" x="438.3573" y="639.897">)</text></g><!--entity Zen--><g id="elem_Zen"><rect fill="#E0E0E0" height="55.412" rx="4" ry="4" style="stroke:#333333;stroke-width:0.5;" width="233.7462" x="53.5" y="7"/><text fill="#111111" font-family="Serif" font-size="13" font-weight="bold" lengthAdjust="spacing" textLength="111.3581" x="63.5" y="30.897">Dangerous Items</text><text fill="#111111" font-family="Serif" font-size="13" lengthAdjust="spacing" textLength="55.0161" x="178.2381" y="30.897">(Zenodo)</text><text fill="#111111" font-family="Serif" font-size="13" lengthAdjust="spacing" textLength="213.7462" x="63.5" y="48.603">8.478 imagini &#183; 5 clase (toate arme)</text></g><!--entity Rf--><g id="elem_Rf"><rect fill="#E0E0E0" height="55.412" rx="4" ry="4" style="stroke:#333333;stroke-width:0.5;" width="296.1072" x="322.5" y="7"/><text fill="#111111" font-family="Serif" font-size="13" font-weight="bold" lengthAdjust="spacing" textLength="45.903" x="332.5" y="30.897">SOHAS</text><text fill="#111111" font-family="Serif" font-size="13" lengthAdjust="spacing" textLength="68.0421" x="381.783" y="30.897">(Roboflow)</text><text fill="#111111" font-family="Serif" font-size="13" lengthAdjust="spacing" textLength="276.1072" x="332.5" y="48.603">5.858 imagini &#183; 6 clase (2 arme + 4 non-arm&#259;)</text></g><!--entity S1--><g id="elem_S1"><rect fill="#D7E9FF" height="52.8388" rx="4" ry="4" style="stroke:#333333;stroke-width:0.5;" width="266.3112" x="187.5" y="122"/><text fill="#111111" font-family="monospace" font-size="13" font-weight="bold" lengthAdjust="spacing" textLength="180.0132" x="197.5" y="144.0669">01_download_datasets.py</text><text fill="#111111" font-family="Serif" font-size="13" lengthAdjust="spacing" textLength="246.3112" x="197.5" y="161.0298">descarc&#259; automat ambele seturi de date</text></g><!--entity S3--><g id="elem_S3"><rect fill="#D7E9FF" height="70.5448" rx="4" ry="4" style="stroke:#333333;stroke-width:0.5;" width="503.2234" x="69" y="714"/><text fill="#111111" font-family="monospace" font-size="13" font-weight="bold" lengthAdjust="spacing" textLength="125.2266" x="79" y="736.0669">03_train_yolo.py</text><text fill="#111111" font-family="Serif" font-size="13" lengthAdjust="spacing" textLength="359.1253" x="79" y="753.0298">YOLOv8m (pre-antrenat COCO) &#183; 100 epoci &#183; early stopping</text><text fill="#111111" font-family="Serif" font-size="13" lengthAdjust="spacing" textLength="483.2234" x="79" y="770.7358">AdamW + programare cosinus &#183; augment&#259;ri (HSV, geometrice, Mosaic, MixUp)</text></g><!--entity Best--><g id="elem_Best"><rect fill="#E8F5E9" height="55.412" rx="4" ry="4" style="stroke:#333333;stroke-width:0.5;" width="190.3177" x="225.5" y="845"/><text fill="#111111" font-family="monospace" font-size="13" font-weight="bold" lengthAdjust="spacing" textLength="54.7866" x="235.5" y="869.6401">best.pt</text><text fill="#111111" font-family="Serif" font-size="13" lengthAdjust="spacing" textLength="112.1511" x="293.6666" y="868.897">&#8212; model antrenat</text><text fill="#111111" font-family="Serif" font-size="13" lengthAdjust="spacing" textLength="97.1101" x="235.5" y="886.603">(ponderi finale)</text></g><!--entity S4--><g id="elem_S4"><rect fill="#D7E9FF" height="70.5448" rx="4" ry="4" style="stroke:#333333;stroke-width:0.5;" width="278.7521" x="7" y="961"/><text fill="#111111" font-family="monospace" font-size="13" font-weight="bold" lengthAdjust="spacing" textLength="148.7065" x="17" y="983.0669">04_evaluate_test.py</text><text fill="#111111" font-family="Serif" font-size="13" lengthAdjust="spacing" textLength="140.7121" x="17" y="1000.0298">evaluare pe parti&#539;ia de</text><text fill="#111111" font-family="Serif" font-size="13" font-weight="bold" lengthAdjust="spacing" textLength="24.297" x="161.0921" y="1000.0298">test</text><text fill="#111111" font-family="Serif" font-size="13" lengthAdjust="spacing" textLength="258.7521" x="17" y="1017.7358">Date neutilizate &#238;n antrenare sau validare</text></g><!--entity Metrics--><g id="elem_Metrics"><rect fill="#E8F5E9" height="37.706" rx="4" ry="4" style="stroke:#333333;stroke-width:0.5;" width="254.6357" x="19" y="1093"/><text fill="#111111" font-family="Serif" font-size="13" lengthAdjust="spacing" textLength="234.6357" x="29" y="1116.897">Metrici pe test &#8776; metricile de validare</text></g><!--entity Inf--><g id="elem_Inf"><rect fill="#FCE4EC" height="73.118" rx="4" ry="4" style="stroke:#333333;stroke-width:0.5;" width="348.8583" x="321" y="960"/><text fill="#111111" font-family="Serif" font-size="13" font-weight="bold" lengthAdjust="spacing" textLength="120.1461" x="331" y="983.897">Inferen&#539;&#259; runtime</text><text fill="#111111" font-family="Serif" font-size="13" lengthAdjust="spacing" textLength="4.498" x="454.5261" y="983.897">(</text><text fill="#111111" font-family="monospace" font-size="13" lengthAdjust="spacing" textLength="164.3599" x="459.0241" y="984.6401">WeaponDetectionSystem</text><text fill="#111111" font-family="Serif" font-size="13" lengthAdjust="spacing" textLength="4.498" x="623.3839" y="983.897">)</text><text fill="#111111" font-family="Serif" font-size="13" lengthAdjust="spacing" textLength="239.5108" x="331" y="1001.603">re&#539;in doar detec&#539;iile cu &#238;ncredere &#8805; 0,7</text><text fill="#111111" font-family="Serif" font-size="13" lengthAdjust="spacing" textLength="328.8583" x="331" y="1019.309">&#8594; confirmare temporal&#259; pe mai multe cadre &#8594; alert&#259;</text></g><!--link R1 to R2--><g id="link_R1_R2"><path d="M320.5,326.22 C320.5,346.08 320.5,362.79 320.5,379.92 " fill="none" id="R1-to-R2" style="stroke:#555555;stroke-width:1.0;"/><polygon fill="#555555" points="320.5,385.92,324.5,376.92,320.5,380.92,316.5,376.92,320.5,385.92" style="stroke:#555555;stroke-width:1.0;"/></g><!--link R2 to R3--><g id="link_R2_R3"><path d="M320.5,441.28 C320.5,459.29 320.5,476.94 320.5,494.91 " fill="none" id="R2-to-R3" style="stroke:#555555;stroke-width:1.0;"/><polygon fill="#555555" points="320.5,500.91,324.5,491.91,320.5,495.91,316.5,491.91,320.5,500.91" style="stroke:#555555;stroke-width:1.0;"/></g><!--link R3 to R4--><g id="link_R3_R4"><path d="M320.5,556.14 C320.5,574.89 320.5,593.47 320.5,609.96 " fill="none" id="R3-to-R4" style="stroke:#555555;stroke-width:1.0;"/><polygon fill="#555555" points="320.5,615.96,324.5,606.96,320.5,610.96,316.5,606.96,320.5,615.96" style="stroke:#555555;stroke-width:1.0;"/></g><!--link Zen to S1--><g id="link_Zen_S1"><path d="M206.05,62.04 C230.31,80.15 257.4528,100.4196 281.4328,118.3296 " fill="none" id="Zen-to-S1" style="stroke:#555555;stroke-width:1.0;"/><polygon fill="#555555" points="286.24,121.92,281.4228,113.3296,282.234,118.928,276.6356,119.7392,286.24,121.92" style="stroke:#555555;stroke-width:1.0;"/></g><!--link Rf to S1--><g id="link_Rf_S1"><path d="M434.95,62.04 C410.69,80.15 383.5472,100.4196 359.5672,118.3296 " fill="none" id="Rf-to-S1" style="stroke:#555555;stroke-width:1.0;"/><polygon fill="#555555" points="354.76,121.92,364.3644,119.7392,358.766,118.928,359.5772,113.3296,354.76,121.92" style="stroke:#555555;stroke-width:1.0;"/></g><!--link S1 to R1--><g id="link_S1_R1"><path d="M320.5,175.18 C320.5,192.2 320.5,208.98 320.5,228.91 " fill="none" id="S1-to-R1" style="stroke:#555555;stroke-width:1.0;"/><polygon fill="#555555" points="320.5,234.91,324.5,225.91,320.5,229.91,316.5,225.91,320.5,234.91" style="stroke:#555555;stroke-width:1.0;"/></g><!--link R4 to S3--><g id="link_R4_S3"><path d="M320.5,654.08 C320.5,670.1 320.5,687.95 320.5,707.67 " fill="none" id="R4-to-S3" style="stroke:#555555;stroke-width:1.0;"/><polygon fill="#555555" points="320.5,713.67,324.5,704.67,320.5,708.67,316.5,704.67,320.5,713.67" style="stroke:#555555;stroke-width:1.0;"/></g><!--link S3 to Best--><g id="link_S3_Best"><path d="M320.5,785.17 C320.5,804.17 320.5,821.35 320.5,838.9 " fill="none" id="S3-to-Best" style="stroke:#555555;stroke-width:1.0;"/><polygon fill="#555555" points="320.5,844.9,324.5,835.9,320.5,839.9,316.5,835.9,320.5,844.9" style="stroke:#555555;stroke-width:1.0;"/></g><!--link Best to S4--><g id="link_Best_S4"><path d="M282.31,900.27 C256.91,918.09 228.1921,938.2145 200.7621,957.4545 " fill="none" id="Best-to-S4" style="stroke:#555555;stroke-width:1.0;"/><polygon fill="#555555" points="195.85,960.9,205.5151,959.0065,199.9434,958.0288,200.9212,952.4571,195.85,960.9" style="stroke:#555555;stroke-width:1.0;"/></g><!--link S4 to Metrics--><g id="link_S4_Metrics"><path d="M146.5,1032.17 C146.5,1052.25 146.5,1070.7 146.5,1086.99 " fill="none" id="S4-to-Metrics" style="stroke:#555555;stroke-width:1.0;"/><polygon fill="#555555" points="146.5,1092.99,150.5,1083.99,146.5,1087.99,142.5,1083.99,146.5,1092.99" style="stroke:#555555;stroke-width:1.0;"/></g><!--link Best to Inf--><g id="link_Best_Inf"><path d="M358.9,900.27 C384.06,917.81 412.2883,937.4883 439.6383,956.5583 " fill="none" id="Best-to-Inf" style="stroke:#555555;stroke-width:1.0;"/><polygon fill="#555555" points="444.56,959.99,439.4652,951.5613,440.4586,957.1302,434.8896,958.1236,444.56,959.99" style="stroke:#555555;stroke-width:1.0;"/></g><!--SRC=[TLRBRYD55DtxAwvw5kCO9zYnJJAHGChBp4Y4ZDA24IYILUc-xIcckgfLNPqN0Y55Gh15R4QpGsBBbZsJHRuZNyAfwavi9qv5YijLztdkkRVyd5xBWfNKl5efIfbIuPXktaiIsbdMmZ89V-4uSSPMgf9UIjYSgPsRb1M97whI2KUPr5HOKrXPhRIUKtjN56iqsgAIaor8LchYjLPQhVATr8Mm8gVohKZDcTHJoeGgUUxcH2JlfjPKEjqrobXoLkWILwpTd5JAcQYK6nljlXQ8A6Ohi-NtiRnawW_cBXlhLhEbpRdpRMlDMUtrsIYiXvVUNYCm26i-9mkWX9ugfXzRH3l6fcmNXN7w8Bjd-zlZ_dW7DtEc-s6rVfgpNK1FJ9TOtWYhqO_T1RoV69KkSpKUZmVxFPX5ZJxt2wYvoihxufULBQ-lwhlMB9keqzd3Zc6hf5UEyxBJeVRth4rgLexrvjfmOvDaBgPII_hlNnfHeaG9bZZZhORQHoHAWWeIxlc_HVFnuSljs1izCYScK-OCPaThcwC5iv_TcLslIVW93KaRlOelrrUrWwFitluinyJAmb5_MLfHrEjFm4EjZ4Wdm03sNRbMN4IuFDOfbucm2I0HbJCvc2xo4uPgkO1RS1ttwTdUnlwByVYHwtLgMrO2ceWvPplbbIQOkwhMeQnF6h69qEaa23QX10-lrqFr5n8ugXK0tUqlVrADTq19SOqBtVxwHpWHL6dfKu6ZAA9s59snA8oE8c3TgCpWHEtmFJEwIuMnpcIikkXCdMZZhg-w15XIw9MLTeGPaaljFQUO0-nayXOpemjex5tvODfUN-KV_zBm9QZJuNFE2- -GfyB9K_Qrpy1KePf2zWDTiHvc_Dfo9iyn3g0IHPUi9yZcKsnjXjsnvbE922anIbxAAhX6cNG5mgY0WMNHr0zDKJjRVyhPWQy177tyHrFfR9L03SQ_E_pg41uncQHkl9yA9TDcxxXqFXHqhfCt7wIatDoyTwobhuuWqCpMOFc60w5_tkX1iJyA_ne01ijZ-f8nj5XSXa9wmgvTY5pL1TN95lMZg4jpjQsD3UUC0ThLrI-GjD-lrti_cU0nx8SB0w9cy83Qzu_2oXEDD9W4F2ON63Rt7UIHEjtCgLrO4B8suMZtSFTmnRTqlzSZBamI-fk5LHU0sHG5teLZlPsA_0qw1Y_B52FGOvQOKceC8KYBQfhZIRY-GX-sNyRVTcdA9cTdPGBk7PXIo0IVyloReWOX7Znkq8FmZ5c-n5E1k9OcTe9ghXNEvnEQh7dwcboETHj0OnnB_meArKow7IXX56sEH_il7g4vf3Q3BvNFg63oT7aArE6abdGySI6E1jTv_JkQ2K_qJiVBUP4ztv6QAoVH2NxlIJnxsajHKI0jljJu36Vup8Ln422LTu7IxU-_KGrpqreBHchfyd7ghtG6tkgR3o2knTIGwCSbAIyHywCXYju4Gk-57oFIwFYYn3iKPfTbvAufDHWtuSUAxpXOIogVSM8PnM64_JVrkXl7Ein3epDf0wDW1GDEAFX3Xhb0hu8BlarJhmLXrDI2PY4zX8TEsjqVxk_EKXkhwhp9nJzmledYVWjFKREBcuR3sR0-6xJYkjayJLg1A-5ys8fhYGR6sHKSj_u7]--></g></svg>