<svg xmlns="http://www.w3.org/2000/svg" xmlns:xlink="http://www.w3.org/1999/xlink" contentStyleType="text/css" data-diagram-type="SEQUENCE" height="1453px" preserveAspectRatio="none" style="width:979px;height:1453px;" version="1.1" viewBox="0 0 979 1453" width="979px" zoomAndPan="magnify"><defs/><g><g><title>Endpoint</title><rect fill="#F4F6FB" height="123.5301" style="stroke:#181818;stroke-width:1;" width="10" x="302.6397" y="197.5301"/></g><rect fill="none" height="1061.9315" style="stroke:#5A6B8C;stroke-width:1.5;" width="952.2215" x="10" y="274.9421"/><rect fill="none" height="445.2419" style="stroke:#5A6B8C;stroke-width:1.5;" width="932.2215" x="20" y="725.5498"/><rect fill="none" height="121.7878" style="stroke:#5A6B8C;stroke-width:1.5;" width="329.6417" x="612.5799" y="754.9619"/><rect fill="none" height="253.336" style="stroke:#5A6B8C;stroke-width:1.5;" width="720.96" x="30" y="910.4557"/><rect fill="none" height="140.512" style="stroke:#5A6B8C;stroke-width:1.5;" width="700.96" x="40" y="971.5738"/><g><title>Client</title><rect fill="#000000" fill-opacity="0.00000" height="1253.4615" width="8" x="79.3745" y="100.412"/><line style="stroke:#888888;stroke-width:0.5;stroke-dasharray:5,5;" x1="83" x2="83" y1="100.412" y2="1353.8736"/></g><g><title>Endpoint</title><rect fill="#000000" fill-opacity="0.00000" height="1253.4615" width="8" x="303.6397" y="100.412"/><line style="stroke:#888888;stroke-width:0.5;stroke-dasharray:5,5;" x1="307.4081" x2="307.4081" y1="100.412" y2="1353.8736"/></g><g><title>Coada proprie</title><rect fill="#000000" fill-opacity="0.00000" height="793.8626" width="8" x="672.7699" y="560.011"/><line style="stroke:#888888;stroke-width:0.5;stroke-dasharray:5,5;" x1="676.5799" x2="676.5799" y1="560.011" y2="1353.8736"/></g><g><title>Firul de fuziune</title><rect fill="#000000" fill-opacity="0.00000" height="1253.4615" width="8" x="868.474" y="100.412"/><line style="stroke:#888888;stroke-width:0.5;stroke-dasharray:5,5;" x1="871.7265" x2="871.7265" y1="100.412" y2="1353.8736"/></g><g class="participant participant-head" data-participant="Client"><text fill="#111111" font-family="Serif" font-size="13" lengthAdjust="spacing" textLength="36.088" x="62.3305" y="78.897">Client</text><text fill="#111111" font-family="Serif" font-size="13" lengthAdjust="spacing" textLength="60.749" x="50" y="96.603">(browser)</text><ellipse cx="83.3745" cy="13.5" fill="#EAF1FB" rx="8" ry="8" style="stroke:#333333;stroke-width:0.5;"/><path d="M83.3745,21.5 L83.3745,48.5 M70.3745,29.5 L96.3745,29.5 M83.3745,48.5 L70.3745,63.5 M83.3745,48.5 L96.3745,63.5" fill="none" style="stroke:#333333;stroke-width:0.5;"/></g><g class="participant participant-tail" data-participant="Client"><text fill="#111111" font-family="Serif" font-size="13" lengthAdjust="spacing" textLength="36.088" x="62.3305" y="1366.7706">Client</text><text fill="#111111" font-family="Serif" font-size="13" lengthAdjust="spacing" textLength="60.749" x="50" y="1384.4766">(browser)</text><ellipse cx="83.3745" cy="1396.7856" fill="#EAF1FB" rx="8" ry="8" style="stroke:#333333;stroke-width:0.5;"/><path d="M83.3745,1404.7856 L83.3745,1431.7856 M70.3745,1412.7856 L96.3745,1412.7856 M83.3745,1431.7856 L70.3745,1446.7856 M83.3745,1431.7856 L96.3745,1446.7856" fill="none" style="stroke:#333333;stroke-width:0.5;"/></g><g class="participant participant-head" data-participant="WS"><rect fill="#EAF1FB" height="49.412" rx="2.5" ry="2.5" style="stroke:#333333;stroke-width:0.5;" width="74.4631" x="270.4081" y="50"/><text fill="#111111" font-family="Serif" font-size="13" font-weight="bold" lengthAdjust="spacing" textLength="60.4631" x="277.4081" y="70.897">Endpoint</text><text fill="#111111" font-family="Serif" font-size="13" font-weight="bold" lengthAdjust="spacing" textLength="21.216" x="297.0317" y="88.603">/ws</text></g><g class="participant participant-tail" data-participant="WS"><rect fill="#EAF1FB" height="49.412" rx="2.5" ry="2.5" style="stroke:#333333;stroke-width:0.5;" width="74.4631" x="270.4081" y="1352.8736"/><text fill="#111111" font-family="Serif" font-size="13" font-weight="bold" lengthAdjust="spacing" textLength="60.4631" x="277.4081" y="1373.7706">Endpoint</text><text fill="#111111" font-family="Serif" font-size="13" font-weight="bold" lengthAdjust="spacing" textLength="21.216" x="297.0317" y="1391.4766">/ws</text></g><g class="participant participant-tail" data-participant="Q"><rect fill="#EAF1FB" height="45.326" rx="2.5" ry="2.5" style="stroke:#333333;stroke-width:0.5;" width="108.3801" x="622.5799" y="1352.8736"/><text fill="#111111" font-family="Serif" font-size="13" font-weight="bold" lengthAdjust="spacing" textLength="94.3801" x="629.5799" y="1373.7706">Coada proprie</text><text fill="#111111" font-family="Serif" font-size="10" font-weight="bold" lengthAdjust="spacing" textLength="91.1699" x="631.1849" y="1388.2696">client_queues[ws]</text></g><g class="participant participant-head" data-participant="Fusion"><rect fill="#EAF1FB" height="45.326" rx="2.5" ry="2.5" style="stroke:#333333;stroke-width:0.5;" width="119.4951" x="812.7265" y="54.086"/><text fill="#111111" font-family="Serif" font-size="13" font-weight="bold" lengthAdjust="spacing" textLength="105.4951" x="819.7265" y="74.983">Firul de fuziune</text><text fill="#111111" font-family="Serif" font-size="10" font-weight="bold" lengthAdjust="spacing" textLength="90.5599" x="827.1941" y="89.482">_broadcast_frame</text></g><g class="participant participant-tail" data-participant="Fusion"><rect fill="#EAF1FB" height="45.326" rx="2.5" ry="2.5" style="stroke:#333333;stroke-width:0.5;" width="119.4951" x="812.7265" y="1352.8736"/><text fill="#111111" font-family="Serif" font-size="13" font-weight="bold" lengthAdjust="spacing" textLength="105.4951" x="819.7265" y="1373.7706">Firul de fuziune</text><text fill="#111111" font-family="Serif" font-size="10" font-weight="bold" lengthAdjust="spacing" textLength="90.5599" x="827.1941" y="1388.2696">_broadcast_frame</text></g><g><title>Endpoint</title><rect fill="#F4F6FB" height="123.5301" style="stroke:#181818;stroke-width:1;" width="10" x="302.6397" y="197.5301"/></g><rect fill="#EAF1FB" height="3" style="stroke:#EAF1FB;stroke-width:1;" width="972.2215" x="0" y="132.265"/><line style="stroke:#5A6B8C;stroke-width:1;" x1="0" x2="972.2215" y1="132.265" y2="132.265"/><line style="stroke:#5A6B8C;stroke-width:1;" x1="0" x2="972.2215" y1="135.265" y2="135.265"/><rect fill="#EAF1FB" height="25.706" style="stroke:#5A6B8C;stroke-width:2;" width="105.7671" x="433.2272" y="120.412"/><text fill="#111111" font-family="Serif" font-size="13" font-weight="bold" lengthAdjust="spacing" textLength="88.3871" x="439.2272" y="138.309">Autentificare</text><g class="message" data-participant-1="Client" data-participant-2="WS"><polygon fill="#555555" points="290.6397,193.5301,300.6397,197.5301,290.6397,201.5301,294.6397,197.5301" style="stroke:#555555;stroke-width:1;"/><line style="stroke:#555555;stroke-width:1;" x1="83.3745" x2="296.6397" y1="197.5301" y2="197.5301"/><text fill="#333333" font-family="Serif" font-size="13" lengthAdjust="spacing" textLength="60.606" x="162.7041" y="174.0151">conectare</text><text fill="#333333" font-family="Serif" font-size="13" lengthAdjust="spacing" textLength="164.4892" x="110.7625" y="191.7211">ws://host/ws?token=&lt;JWT&gt;</text></g><g class="message" data-participant-1="WS" data-participant-2="WS"><line style="stroke:#555555;stroke-width:1;" x1="312.6397" x2="354.6397" y1="246.9421" y2="246.9421"/><line style="stroke:#555555;stroke-width:1;" x1="354.6397" x2="354.6397" y1="246.9421" y2="259.9421"/><line style="stroke:#555555;stroke-width:1;" x1="313.6397" x2="354.6397" y1="259.9421" y2="259.9421"/><polygon fill="#555555" points="323.6397,255.9421,313.6397,259.9421,323.6397,263.9421,319.6397,259.9421" style="stroke:#555555;stroke-width:1;"/><text fill="#333333" font-family="Serif" font-size="13" lengthAdjust="spacing" textLength="110.7211" x="347.1802" y="223.4271">jwt.decode(token)</text><text fill="#333333" font-family="Serif" font-size="13" lengthAdjust="spacing" textLength="165.8021" x="319.6397" y="241.1331">re-validare cont fata de DB</text></g><path d="M10,274.9421 L72.628,274.9421 L72.628,284.6481 L62.628,294.6481 L10,294.6481 L10,274.9421" fill="#FFFFFF" style="stroke:#5A6B8C;stroke-width:1.5;"/><rect fill="none" height="1061.9315" style="stroke:#5A6B8C;stroke-width:1.5;" width="952.2215" x="10" y="274.9421"/><text fill="#111111" font-family="Serif" font-size="13" font-weight="bold" lengthAdjust="spacing" textLength="17.628" x="25" y="289.8391">alt</text><text fill="#000000" font-family="Serif" font-size="13" font-weight="bold" lengthAdjust="spacing" textLength="274.3652" x="87.628" y="290.8391">[token lipsa / invalid / expirat / cont sters]</text><g class="message" data-participant-1="WS" data-participant-2="Client"><polygon fill="#555555" points="94.3745,317.0602,84.3745,321.0602,94.3745,325.0602,90.3745,321.0602" style="stroke:#555555;stroke-width:1;"/><line style="stroke:#555555;stroke-width:1;stroke-dasharray:2,2;" x1="88.3745" x2="306.6397" y1="321.0602" y2="321.0602"/><text fill="#333333" font-family="Serif" font-size="13" lengthAdjust="spacing" textLength="68.8091" x="161.1026" y="315.2512">close(1008)</text></g><path d="M312,334.0602 L312,373.0602 L434,373.0602 L434,344.0602 L424,334.0602 L312,334.0602" fill="#FFF3E0" style="stroke:#B0792C;stroke-width:0.5;"/><path d="M424,334.0602 L424,344.0602 L434,344.0602 L424,334.0602" fill="#FFF3E0" style="stroke:#B0792C;stroke-width:0.5;"/><text fill="#111111" font-family="Serif" font-size="11" lengthAdjust="spacing" textLength="101.4302" x="318" y="350.8191">conexiune refuzata</text><text fill="#111111" font-family="Serif" font-size="11" lengthAdjust="spacing" textLength="96.6783" x="318" y="365.801">inainte de accept()</text><line style="stroke:#5A6B8C;stroke-width:1;stroke-dasharray:2,2;" x1="10" x2="962.2215" y1="380.0239" y2="380.0239"/><text fill="#000000" font-family="Serif" font-size="13" font-weight="bold" lengthAdjust="spacing" textLength="84.9941" x="15" y="393.921">[token valid]</text><rect fill="#EAF1FB" height="3" style="stroke:#EAF1FB;stroke-width:1;" width="972.2215" x="0" y="420.583"/><line style="stroke:#5A6B8C;stroke-width:1;" x1="0" x2="972.2215" y1="420.583" y2="420.583"/><line style="stroke:#5A6B8C;stroke-width:1;" x1="0" x2="972.2215" y1="423.583" y2="423.583"/><rect fill="#EAF1FB" height="25.706" style="stroke:#5A6B8C;stroke-width:2;" width="91.4151" x="440.4032" y="408.73"/><text fill="#111111" font-family="Serif" font-size="13" font-weight="bold" lengthAdjust="spacing" textLength="74.035" x="446.4032" y="426.627">Handshake</text><g class="message" data-participant-1="WS" data-participant-2="Client"><polygon fill="#555555" points="94.3745,464.142,84.3745,468.142,94.3745,472.142,90.3745,468.142" style="stroke:#555555;stroke-width:1;"/><line style="stroke:#555555;stroke-width:1;" x1="88.3745" x2="306.6397" y1="468.142" y2="468.142"/><text fill="#333333" font-family="Serif" font-size="13" lengthAdjust="spacing" textLength="154.8691" x="118.0725" y="462.333">await websocket.accept()</text></g><rect fill="#EAF1FB" height="3" style="stroke:#EAF1FB;stroke-width:1;" width="972.2215" x="0" y="497.995"/><line style="stroke:#5A6B8C;stroke-width:1;" x1="0" x2="972.2215" y1="497.995" y2="497.995"/><line style="stroke:#5A6B8C;stroke-width:1;" x1="0" x2="972.2215" y1="500.995" y2="500.995"/><rect fill="#EAF1FB" height="25.706" style="stroke:#5A6B8C;stroke-width:2;" width="164.5012" x="403.8602" y="486.142"/><text fill="#111111" font-family="Serif" font-size="13" font-weight="bold" lengthAdjust="spacing" textLength="147.1212" x="409.8602" y="504.039">Alocare coada proprie</text><g class="message" data-participant-1="WS" data-participant-2="Q"><polygon fill="#555555" points="610.5799,541.554,620.5799,545.554,610.5799,549.554,614.5799,545.554" style="stroke:#555555;stroke-width:1;"/><line style="stroke:#555555;stroke-width:1;" x1="307.6397" x2="616.5799" y1="545.554" y2="545.554"/><text fill="#333333" font-family="Serif" font-size="13" lengthAdjust="spacing" textLength="290.9402" x="319.6397" y="539.745">queue.Queue(maxsize=output_queue_maxsize)</text></g><rect fill="#EAF1FB" height="45.326" rx="2.5" ry="2.5" style="stroke:#333333;stroke-width:0.5;" width="108.3801" x="622.5799" y="521.848"/><text fill="#111111" font-family="Serif" font-size="13" font-weight="bold" lengthAdjust="spacing" textLength="94.3801" x="629.5799" y="542.745">Coada proprie</text><text fill="#111111" font-family="Serif" font-size="10" font-weight="bold" lengthAdjust="spacing" textLength="91.1699" x="631.1849" y="557.244">client_queues[ws]</text><g class="message" data-participant-1="WS" data-participant-2="WS"><line style="stroke:#555555;stroke-width:1;" x1="307.6397" x2="349.6397" y1="601.88" y2="601.88"/><line style="stroke:#555555;stroke-width:1;" x1="349.6397" x2="349.6397" y1="601.88" y2="614.88"/><line style="stroke:#555555;stroke-width:1;" x1="308.6397" x2="349.6397" y1="614.88" y2="614.88"/><polygon fill="#555555" points="318.6397,610.88,308.6397,614.88,318.6397,618.88,314.6397,614.88" style="stroke:#555555;stroke-width:1;"/><text fill="#333333" font-family="Serif" font-size="13" lengthAdjust="spacing" textLength="161.7072" x="314.6397" y="596.071">client_queues[ws] = coada</text></g><path d="M264,627.88 L264,666.88 L719,666.88 L719,637.88 L709,627.88 L264,627.88" fill="#FFF3E0" style="stroke:#B0792C;stroke-width:0.5;"/><path d="M709,627.88 L709,637.88 L719,637.88 L709,627.88" fill="#FFF3E0" style="stroke:#B0792C;stroke-width:0.5;"/><text fill="#111111" font-family="Serif" font-size="11" lengthAdjust="spacing" textLength="158.9928" x="405.002" y="644.6389">model broadcast unu-la-multi:</text><text fill="#111111" font-family="Serif" font-size="11" lengthAdjust="spacing" textLength="164.5477" x="405.002" y="659.6208">fiecare client are coada proprie</text><rect fill="#EAF1FB" height="3" style="stroke:#EAF1FB;stroke-width:1;" width="972.2215" x="0" y="694.6968"/><line style="stroke:#5A6B8C;stroke-width:1;" x1="0" x2="972.2215" y1="694.6968" y2="694.6968"/><line style="stroke:#5A6B8C;stroke-width:1;" x1="0" x2="972.2215" y1="697.6968" y2="697.6968"/><rect fill="#EAF1FB" height="25.706" style="stroke:#5A6B8C;stroke-width:2;" width="218.7372" x="376.7422" y="682.8438"/><text fill="#111111" font-family="Serif" font-size="13" font-weight="bold" lengthAdjust="spacing" textLength="201.3572" x="382.7422" y="700.7408">Bucla de transmitere (~30 FPS)</text><path d="M20,725.5498 L87.971,725.5498 L87.971,735.2558 L77.971,745.2558 L20,745.2558 L20,725.5498" fill="#FFFFFF" style="stroke:#5A6B8C;stroke-width:1.5;"/><rect fill="none" height="445.2419" style="stroke:#5A6B8C;stroke-width:1.5;" width="932.2215" x="20" y="725.5498"/><text fill="#111111" font-family="Serif" font-size="13" font-weight="bold" lengthAdjust="spacing" textLength="22.971" x="35" y="740.4468">par</text><text fill="#000000" font-family="Serif" font-size="13" font-weight="bold" lengthAdjust="spacing" textLength="212.0692" x="102.971" y="741.4468">[firul de fuziune produce cadre]</text><path d="M612.5799,754.9619 L686.4789,754.9619 L686.4789,764.6679 L676.4789,774.6679 L612.5799,774.6679 L612.5799,754.9619" fill="#FFFFFF" style="stroke:#5A6B8C;stroke-width:1.5;"/><rect fill="none" height="121.7878" style="stroke:#5A6B8C;stroke-width:1.5;" width="329.6417" x="612.5799" y="754.9619"/><text fill="#111111" font-family="Serif" font-size="13" font-weight="bold" lengthAdjust="spacing" textLength="28.899" x="627.5799" y="769.8589">loop</text><text fill="#000000" font-family="Serif" font-size="13" font-weight="bold" lengthAdjust="spacing" textLength="207.6362" x="701.4789" y="770.8589">[pentru fiecare cadru procesat]</text><g class="message" data-participant-1="Fusion" data-participant-2="Q"><polygon fill="#555555" points="687.7699,814.7859,677.7699,818.7859,687.7699,822.7859,683.7699,818.7859" style="stroke:#555555;stroke-width:1;"/><line style="stroke:#555555;stroke-width:1;" x1="681.7699" x2="871.474" y1="818.7859" y2="818.7859"/><text fill="#333333" font-family="Serif" font-size="13" lengthAdjust="spacing" textLength="171.7041" x="688.7699" y="795.2709">_broadcast_frame(message)</text><text fill="#333333" font-family="Serif" font-size="13" lengthAdjust="spacing" textLength="102.4271" x="723.4084" y="812.9769">put(block=False)</text></g><path d="M681,831.7859 L681,870.7859 L803,870.7859 L803,841.7859 L793,831.7859 L681,831.7859" fill="#FFF3E0" style="stroke:#B0792C;stroke-width:0.5;"/><path d="M793,831.7859 L793,841.7859 L803,841.7859 L793,831.7859" fill="#FFF3E0" style="stroke:#B0792C;stroke-width:0.5;"/><text fill="#111111" font-family="Serif" font-size="11" lengthAdjust="spacing" textLength="101.5623" x="687" y="848.5448">politica drop-oldest</text><text fill="#111111" font-family="Serif" font-size="11" lengthAdjust="spacing" textLength="73.1934" x="687" y="863.5267">la coada plina</text><line style="stroke:#5A6B8C;stroke-width:1;stroke-dasharray:2,2;" x1="20" x2="952.2215" y1="884.7497" y2="884.7497"/><text fill="#000000" font-family="Serif" font-size="13" font-weight="bold" lengthAdjust="spacing" textLength="243.5552" x="25" y="898.6467">[bucla endpoint-ului consuma cadre]</text><path d="M30,910.4557 L103.899,910.4557 L103.899,920.1617 L93.899,930.1617 L30,930.1617 L30,910.4557" fill="#FFFFFF" style="stroke:#5A6B8C;stroke-width:1.5;"/><rect fill="none" height="253.336" style="stroke:#5A6B8C;stroke-width:1.5;" width="720.96" x="30" y="910.4557"/><text fill="#111111" font-family="Serif" font-size="13" font-weight="bold" lengthAdjust="spacing" textLength="28.899" x="45" y="925.3527">loop</text><text fill="#000000" font-family="Serif" font-size="13" font-weight="bold" lengthAdjust="spacing" textLength="218.2702" x="118.899" y="926.3527">[cat timp conexiunea este activa]</text><g class="message" data-participant-1="WS" data-participant-2="Q"><polygon fill="#555555" points="664.7699,952.5738,674.7699,956.5738,664.7699,960.5738,668.7699,956.5738" style="stroke:#555555;stroke-width:1;"/><line style="stroke:#555555;stroke-width:1;" x1="307.6397" x2="670.7699" y1="956.5738" y2="956.5738"/><text fill="#333333" font-family="Serif" font-size="13" lengthAdjust="spacing" textLength="100.1391" x="442.1352" y="950.7648">get(block=False)</text></g><path d="M40,971.5738 L102.628,971.5738 L102.628,981.2798 L92.628,991.2798 L40,991.2798 L40,971.5738" fill="#FFFFFF" style="stroke:#5A6B8C;stroke-width:1.5;"/><rect fill="none" height="140.512" style="stroke:#5A6B8C;stroke-width:1.5;" width="700.96" x="40" y="971.5738"/><text fill="#111111" font-family="Serif" font-size="13" font-weight="bold" lengthAdjust="spacing" textLength="17.628" x="55" y="986.4708">alt</text><text fill="#000000" font-family="Serif" font-size="13" font-weight="bold" lengthAdjust="spacing" textLength="119.5481" x="117.628" y="987.4708">[mesaj disponibil]</text><g class="message" data-participant-1="Q" data-participant-2="WS"><polygon fill="#555555" points="318.6397,1013.6918,308.6397,1017.6918,318.6397,1021.6918,314.6397,1017.6918" style="stroke:#555555;stroke-width:1;"/><line style="stroke:#555555;stroke-width:1;stroke-dasharray:2,2;" x1="312.6397" x2="675.7699" y1="1017.6918" y2="1017.6918"/><text fill="#333333" font-family="Serif" font-size="13" lengthAdjust="spacing" textLength="176.1371" x="404.1362" y="1011.8828">message (type: video_frame)</text></g><g class="message" data-participant-1="WS" data-participant-2="Client"><polygon fill="#555555" points="94.3745,1045.3978,84.3745,1049.3978,94.3745,1053.3978,90.3745,1049.3978" style="stroke:#555555;stroke-width:1;"/><line style="stroke:#555555;stroke-width:1;" x1="88.3745" x2="306.6397" y1="1049.3978" y2="1049.3978"/><text fill="#333333" font-family="Serif" font-size="13" lengthAdjust="spacing" textLength="200.2652" x="95.3745" y="1043.5888">send_text(json.dumps(message))</text></g><line style="stroke:#5A6B8C;stroke-width:1;stroke-dasharray:2,2;" x1="40" x2="740.96" y1="1058.3978" y2="1058.3978"/><text fill="#000000" font-family="Serif" font-size="13" font-weight="bold" lengthAdjust="spacing" textLength="97.6821" x="45" y="1072.2948">[queue.Empty]</text><path d="M312,1082.1038 L312,1106.1038 L454,1106.1038 L454,1092.1038 L444,1082.1038 L312,1082.1038" fill="#FFF3E0" style="stroke:#B0792C;stroke-width:0.5;"/><path d="M444,1082.1038 L444,1092.1038 L454,1092.1038 L444,1082.1038" fill="#FFF3E0" style="stroke:#B0792C;stroke-width:0.5;"/><text fill="#111111" font-family="Serif" font-size="11" lengthAdjust="spacing" textLength="121.8681" x="318" y="1098.8628">nu blocheaza, continua</text><g class="message" data-participant-1="WS" data-participant-2="WS"><line style="stroke:#555555;stroke-width:1;" x1="307.6397" x2="349.6397" y1="1142.7917" y2="1142.7917"/><line style="stroke:#555555;stroke-width:1;" x1="349.6397" x2="349.6397" y1="1142.7917" y2="1155.7917"/><line style="stroke:#555555;stroke-width:1;" x1="308.6397" x2="349.6397" y1="1155.7917" y2="1155.7917"/><polygon fill="#555555" points="318.6397,1151.7917,308.6397,1155.7917,318.6397,1159.7917,314.6397,1155.7917" style="stroke:#555555;stroke-width:1;"/><text fill="#333333" font-family="Serif" font-size="13" lengthAdjust="spacing" textLength="154.0111" x="314.6397" y="1136.9827">await asyncio.sleep(0.03)</text></g><rect fill="#EAF1FB" height="3" style="stroke:#EAF1FB;stroke-width:1;" width="972.2215" x="0" y="1199.6448"/><line style="stroke:#5A6B8C;stroke-width:1;" x1="0" x2="972.2215" y1="1199.6448" y2="1199.6448"/><line style="stroke:#5A6B8C;stroke-width:1;" x1="0" x2="972.2215" y1="1202.6448" y2="1202.6448"/><rect fill="#EAF1FB" height="25.706" style="stroke:#5A6B8C;stroke-width:2;" width="99.8131" x="436.2042" y="1187.7917"/><text fill="#111111" font-family="Serif" font-size="13" font-weight="bold" lengthAdjust="spacing" textLength="82.4331" x="442.2042" y="1205.6888">Deconectare</text><g class="message" data-participant-1="Client" data-participant-2="WS"><line style="stroke:#555555;stroke-width:2;" x1="289.6397" x2="299.6397" y1="1242.2038" y2="1252.2038"/><line style="stroke:#555555;stroke-width:2;" x1="289.6397" x2="299.6397" y1="1252.2038" y2="1242.2038"/><line style="stroke:#555555;stroke-width:1;" x1="83.3745" x2="294.6397" y1="1247.2038" y2="1247.2038"/><text fill="#333333" font-family="Serif" font-size="13" lengthAdjust="spacing" textLength="136.7211" x="127.1465" y="1241.3948">WebSocketDisconnect</text></g><g class="message" data-participant-1="WS" data-participant-2="Q"><polygon fill="#555555" points="664.7699,1274.9098,674.7699,1278.9098,664.7699,1282.9098,668.7699,1278.9098" style="stroke:#555555;stroke-width:1;"/><line style="stroke:#555555;stroke-width:1;" x1="307.6397" x2="670.7699" y1="1278.9098" y2="1278.9098"/><text fill="#333333" font-family="Serif" font-size="13" lengthAdjust="spacing" textLength="176.9041" x="403.7527" y="1273.1008">client_queues.pop(ws, None)</text></g><line style="stroke:#888888;stroke-width:2;" x1="667.7699" x2="685.7699" y1="1269.9098" y2="1287.9098"/><line style="stroke:#888888;stroke-width:2;" x1="667.7699" x2="685.7699" y1="1287.9098" y2="1269.9098"/><path d="M312,1291.9098 L312,1330.9098 L455,1330.9098 L455,1301.9098 L445,1291.9098 L312,1291.9098" fill="#FFF3E0" style="stroke:#B0792C;stroke-width:0.5;"/><path d="M445,1291.9098 L445,1301.9098 L455,1301.9098 L445,1291.9098" fill="#FFF3E0" style="stroke:#B0792C;stroke-width:0.5;"/><text fill="#111111" font-family="Serif" font-size="11" lengthAdjust="spacing" textLength="122.0661" x="318" y="1308.6687">eliminare din dictionar</text><text fill="#111111" font-family="Serif" font-size="11" lengthAdjust="spacing" textLength="66.2965" x="318" y="1323.6506">(bloc finally)</text><!--SRC=[VLPjRo8t4FxEhnZTVUWY1KAQopL58HLveQSgTxg8LlbGAcIy0t7msdj-WP2g_UqTUvTb5xXQ0YqxZvzvyJDZVe0xmHQ6PGnI18jyXSen-EFp0tI02owz38QLOFIMIV0A1N2jy5Lu9U09PsFDb-WW6N_eNfm4Xdvkj43kcC7f6cSssjkjbbqAbJDo1VQPfNejr0BcJ5giMMQCBnT6UvNUQgaDECEK9HC5LKEbE6TUkf5MxWlB4CPenFouVIpU4CxEQyQXCNfTiB-_Y6lV6FQLWFEuQe0nVlEeE7v6Qza2Xr8iL4RH0QSlD8qiIoZytG9u47Dy40flj4dHbEoNSTMjU-c_7tqOVHpTj0ZobHadkCYPSWsECi8cO9_cVZWw8ve6g9RbMLo7vh7RI8IPbcc8OCYTDiTz5wRlUetcGtza-PNmUOFpOlZnvlAsCXqK9Awj-HCosdaiapkn4cJwVanRm57VfV6G-9_w0IljYiDjaDpqVlhvnq1oBFRp-nvPZWMy4slqmaB9uDsj5AIhYKfcf4kBflqEc8NYRIlVdHQykrTfhaN0dgvjH3sDcuXRpL86r9ov4JXHLvQyzSzwrpooJKci7ksVQ_lNrMamNKUInoR7I9XY8Cpz6ms0EisKGcGfPzPDvrGThBECl1LQjLg30Goz8szYBZXrDGm6hLQH3NIkAMBen-4IXyT4hMt_zFHPMqSf_UBq4jNWwhUdtwz3TSIAKVKfHzgqtVgoTjqKkKunYUZsH1dih9WKQN16p8ucZekZxewwYaa74GXIv9R1AGWLqVI4hxampD5Jt6QfkIqT4mHF7N9OHatnIcqnEUlrBjlH7bLXnEBPWPxlKWhpajuZ5OuYc2YX69qMXb0OvvYxfDYUOZqvfF5OXXW3Yn2guYUcKfgYorZ1RLIreDYQ2GVLzErMBhO4GwbvKPEQABPat63m_rXZVYJIg93kO_XEClOQZdUWlSjzAPvf-R9TsrValwym61IETmNJApG4FecECZf12PMUwDBn7Saw6SrqqP-eETqkCVOYsuCqgYHlF9VniECraWawGuJat_CUZBwEsr5y0KaAX_cUi0DNwcbuSvOQZB2mfDOvvEJLUAZ288GFU8wMkGeQLg7xRVtsEoJ9Yak4P4erJ6Pq9Cl1ADo8xGPBKr61ATTIK5DIRfHnX-OpMcfyohMiWoHrLHIe2jb4BSrYIR0S5XqlVRpEhQS_04TIvTG1JcJvJiAqcNe12f4smjm9PO7_aqreEagSlK0gRAwLc0dP08Jr67iiYgSi4YHkasCVmc3MHVtQ1zlski1IdbE7hovviLfrKv_bjYfwStSiJY7m-ontcmFg8ssjF8Gidv6ziPCu9eJopPfiQzyCCEukMfJPZU92Twr4p9DUjtVUFZmubLQIliDgFcwxjPgVhmLnzP_iJbW21_HU8pVwiPlhF5dR4_X2nDiPP9tHct807CaSfSX8OXH3AXHzI0oQVePxYWf2dQ6Ob9kZ0uro-Gy0]--></g></svg>